ISO-10303-21;
HEADER;
FILE_DESCRIPTION(('ViewDefinition[DesignTransferView]'),'2;1');
FILE_NAME('/dev/null','2026-10-07T09:32:58+00:00',(''),(''),'IfcOpenShell 0.9.0','IfcOpenShell 0.9.0','Nobody');
FILE_SCHEMA(('IFC4'));
ENDSEC;
DATA;
#1=IFCPROJECT('2vZ30Canb1xBEVBe8efHiy',$,'Andreas 12 - Gryningsv\X2\00E4\X0\gen 14',$,$,$,$,(#10),#5);
#2=IFCSIUNIT(*,.LENGTHUNIT.,$,.METRE.);
#3=IFCSIUNIT(*,.AREAUNIT.,$,.SQUARE_METRE.);
#4=IFCSIUNIT(*,.VOLUMEUNIT.,$,.CUBIC_METRE.);
#5=IFCUNITASSIGNMENT((#2,#3,#4));
#6=IFCCARTESIANPOINT((0.,0.,0.));
#7=IFCDIRECTION((0.,0.,1.));
#8=IFCDIRECTION((1.,0.,0.));
#9=IFCAXIS2PLACEMENT3D(#6,#7,#8);
#10=IFCGEOMETRICREPRESENTATIONCONTEXT($,'Model',3,1.E-05,#9,$);
#11=IFCGEOMETRICREPRESENTATIONSUBCONTEXT('Body','Model',*,*,*,*,#10,$,.MODEL_VIEW.,$);
#12=IFCSITE('3JR7ojcGj9VR_9PAFfpQEm',$,'Andreas 12',$,$,$,$,$,$,$,$,$,$,#13);
#13=IFCPOSTALADDRESS($,$,$,$,('Gryningsv\X2\00E4\X0\gen 14'),$,'Sp\X2\00E5\X0\nga',$,'163 51','SE');
#14=IFCBUILDING('1QnyQ3x15Dzh0dTnTZ4In3',$,'Andreas 12',$,$,$,$,$,$,$,$,$);
#15=IFCBUILDINGSTOREY('0a6_JXwuHFTALc1wM7AFUM',$,'Markniv\X2\00E5\X0\',$,$,$,$,$,$,0.);
#16=IFCRELAGGREGATES('1h$jNsHFX6y9I8pqU623Qy',$,$,$,#1,(#12));
#17=IFCRELAGGREGATES('1D3ZUgDW50ff4m$$dOZg1c',$,$,$,#12,(#14));
#18=IFCRELAGGREGATES('3GH0unEOT4ywGhoyinGIFI',$,$,$,#14,(#15));
#19=IFCSURFACESTYLE('Tr\X2\00E4\X0\',.BOTH.,(#20));
#20=IFCSURFACESTYLESHADING(#21,0.);
#21=IFCCOLOURRGB('Tr\X2\00E4\X0\',0.8,0.66,0.44);
#22=IFCSURFACESTYLE('Limtr\X2\00E4\X0\',.BOTH.,(#23));
#23=IFCSURFACESTYLESHADING(#24,0.);
#24=IFCCOLOURRGB('Limtr\X2\00E4\X0\',0.74,0.58,0.36);
#25=IFCSURFACESTYLE('Ek, oljad',.BOTH.,(#26));
#26=IFCSURFACESTYLESHADING(#27,0.);
#27=IFCCOLOURRGB('Ek, oljad',0.52,0.38,0.23);
#28=IFCSURFACESTYLE('Betong',.BOTH.,(#29));
#29=IFCSURFACESTYLESHADING(#30,0.);
#30=IFCCOLOURRGB('Betong',0.68,0.68,0.66);
#31=IFCSURFACESTYLE('Sedum',.BOTH.,(#32));
#32=IFCSURFACESTYLESHADING(#33,0.);
#33=IFCCOLOURRGB('Sedum',0.38,0.55,0.28);
#34=IFCSURFACESTYLE('Makadam',.BOTH.,(#35));
#35=IFCSURFACESTYLESHADING(#36,0.);
#36=IFCCOLOURRGB('Makadam',0.58,0.55,0.5);
#37=IFCSURFACESTYLE('Jord',.BOTH.,(#38));
#38=IFCSURFACESTYLESHADING(#39,0.);
#39=IFCCOLOURRGB('Jord',0.36,0.27,0.19);
#40=IFCSURFACESTYLE('Puts',.BOTH.,(#41));
#41=IFCSURFACESTYLESHADING(#42,0.);
#42=IFCCOLOURRGB('Puts',0.93,0.78,0.3);
#43=IFCSURFACESTYLE('Pl\X2\00E5\X0\t',.BOTH.,(#44));
#44=IFCSURFACESTYLESHADING(#45,0.);
#45=IFCCOLOURRGB('Pl\X2\00E5\X0\t',0.55,0.58,0.6);
#46=IFCSURFACESTYLE('Tegel',.BOTH.,(#47));
#47=IFCSURFACESTYLESHADING(#48,0.);
#48=IFCCOLOURRGB('Tegel',0.72,0.3,0.18);
#49=IFCFOOTING('1dTKrlubT9d83Y4wU1XWt$',$,'Betongplint 1',$,$,#84,#71,$,$);
#50=IFCMATERIAL('Betong',$,$);
#51=IFCRELASSOCIATESMATERIAL('1BSFcTnz12GgRgg873Nc5F',$,$,$,(#1775,#49,#175,#294,#413,#1801),#50);
#52=IFCPROPERTYSET('1qTi2g$vn6zQ61sbjsmgpT',$,'Stroo_Carport',$,(#54,#55));
#53=IFCRELDEFINESBYPROPERTIES('18ybO7Tm93mPxpsddtYtXK',$,$,$,(#49),#52);
#54=IFCPROPERTYSINGLEVALUE('Typ',$,IFCLABEL('Ledbruket Betongplint KP 500 med bottenplatta eller likv\X2\00E4\X0\rdigt (m\X2\00E5\X0\tt antagna)'),$);
#55=IFCPROPERTYSINGLEVALUE('Stolpsko',$,IFCLABEL('Justerbar, isolerad'),$);
#56=IFCCARTESIANPOINT((0.1,0.1));
#57=IFCAXIS2PLACEMENT2D(#56,$);
#58=IFCRECTANGLEPROFILEDEF(.AREA.,$,#57,0.2,0.2);
#59=IFCCARTESIANPOINT((-0.1,-0.1,0.));
#60=IFCAXIS2PLACEMENT3D(#59,$,$);
#61=IFCDIRECTION((0.,0.,1.));
#62=IFCEXTRUDEDAREASOLID(#58,#60,#61,0.5);
#63=IFCCARTESIANPOINT((0.2,0.2));
#64=IFCAXIS2PLACEMENT2D(#63,$);
#65=IFCRECTANGLEPROFILEDEF(.AREA.,$,#64,0.4,0.4);
#66=IFCCARTESIANPOINT((-0.2,-0.2,-0.08));
#67=IFCAXIS2PLACEMENT3D(#66,$,$);
#68=IFCDIRECTION((0.,0.,1.));
#69=IFCEXTRUDEDAREASOLID(#65,#67,#68,0.08);
#70=IFCSHAPEREPRESENTATION(#11,'Body','SweptSolid',(#62,#69));
#71=IFCPRODUCTDEFINITIONSHAPE($,$,(#70));
#72=IFCSTYLEDITEM(#62,(#28),'Betong');
#73=IFCSTYLEDITEM(#69,(#28),'Betong');
#79=IFCRELCONTAINEDINSPATIALSTRUCTURE('3Q4DiYyev5zhCns3AS664K',$,$,$,(#838,#1504,#1063,#1953,#1293,#637,#175,#413,#862,#1087,#1747,#1538,#661,#49,#886,#1332,#1111,#1775,#1564,#222,#460,#688,#913,#1719,#1138,#1800,#246,#484,#1377,#712,#937,#1605,#1162,#270,#508,#736,#961,#1186,#1635,#294,#532,#1855,#1420,#763,#988,#1213,#1881,#559,#1663,#787,#1449,#99,#1012,#341,#1237,#1905,#584,#1691,#811,#125,#1036,#365,#1261,#1478,#1929,#613,#151,#389),#15);
#80=IFCCARTESIANPOINT((0.589,0.166,-0.40364469468029973));
#81=IFCDIRECTION((0.,0.,1.));
#82=IFCDIRECTION((1.,0.,0.));
#83=IFCAXIS2PLACEMENT3D(#80,#81,#82);
#84=IFCLOCALPLACEMENT($,#83);
#85=IFCCARTESIANPOINT((0.1,0.1));
#86=IFCAXIS2PLACEMENT2D(#85,$);
#87=IFCRECTANGLEPROFILEDEF(.AREA.,$,#86,0.2,0.2);
#88=IFCCARTESIANPOINT((0.489,0.066,-0.40364469468029973));
#89=IFCAXIS2PLACEMENT3D(#88,$,$);
#90=IFCDIRECTION((0.,0.,1.));
#91=IFCEXTRUDEDAREASOLID(#87,#89,#90,0.5);
#92=IFCCARTESIANPOINT((0.2,0.2));
#93=IFCAXIS2PLACEMENT2D(#92,$);
#94=IFCRECTANGLEPROFILEDEF(.AREA.,$,#93,0.4,0.4);
#95=IFCCARTESIANPOINT((0.38899999999999996,-0.034,-0.48364469468029975));
#96=IFCAXIS2PLACEMENT3D(#95,$,$);
#97=IFCDIRECTION((0.,0.,1.));
#98=IFCEXTRUDEDAREASOLID(#94,#96,#97,0.08);
#99=IFCCOLUMN('0hb_iDkHb0LeeY64WJFbpp',$,'Pelare 90x90 1',$,$,#124,#113,$,$);
#100=IFCMATERIAL('Tr\X2\00E4\X0\, kvadratisk pelare 90x90',$,$);
#101=IFCRELASSOCIATESMATERIAL('398VATjWnEYPg8b3HTUp2V',$,$,$,(#222,#341,#460,#99),#100);
#102=IFCPROPERTYSET('0B0gDwxj9Fs8hchVgfqj31',$,'Stroo_Carport',$,(#104));
#103=IFCRELDEFINESBYPROPERTIES('0OILuj1FP7Kgg2HqhAO5_W',$,$,$,(#99),#102);
#104=IFCPROPERTYSINGLEVALUE('Dimension',$,IFCLABEL('90x90 mm'),$);
#105=IFCCARTESIANPOINT((0.,0.));
#106=IFCAXIS2PLACEMENT2D(#105,$);
#107=IFCRECTANGLEPROFILEDEF(.AREA.,$,#106,0.09,0.09);
#108=IFCCARTESIANPOINT((0.,0.,0.));
#109=IFCAXIS2PLACEMENT3D(#108,$,$);
#110=IFCDIRECTION((0.,0.,1.));
#111=IFCEXTRUDEDAREASOLID(#107,#109,#110,2.25);
#112=IFCSHAPEREPRESENTATION(#11,'Body','SweptSolid',(#111));
#113=IFCPRODUCTDEFINITIONSHAPE($,$,(#112));
#114=IFCSTYLEDITEM(#111,(#19),'Tr\X2\00E4\X0\');
#120=IFCCARTESIANPOINT((0.589,0.166,0.09635530531970027));
#121=IFCDIRECTION((0.,0.,1.));
#122=IFCDIRECTION((1.,0.,0.));
#123=IFCAXIS2PLACEMENT3D(#120,#121,#122);
#124=IFCLOCALPLACEMENT($,#123);
#125=IFCWALL('1XULf6ZIT2JBWUmCzPQxY6',$,'Pelarbekl\X2\00E4\X0\dnad plank 1a',$,$,#150,#139,$,$);
#126=IFCMATERIAL('Tr\X2\00E4\X0\, plank 22x220',$,$);
#127=IFCRELASSOCIATESMATERIAL('1xGby6du95FOPLuYJz3ikv',$,$,$,(#508,#125,#246,#365,#484,#151,#270,#389),#126);
#128=IFCPROPERTYSET('1ZL7aHry51v98cHd3cxLlL',$,'Stroo_Carport',$,(#130));
#129=IFCRELDEFINESBYPROPERTIES('3fN0Av2jXCI8W_j9AfNFTs',$,$,$,(#125),#128);
#130=IFCPROPERTYSINGLEVALUE('Dimension',$,IFCLABEL('22x220 mm'),$);
#131=IFCCARTESIANPOINT((0.,0.));
#132=IFCAXIS2PLACEMENT2D(#131,$);
#133=IFCRECTANGLEPROFILEDEF(.AREA.,$,#132,0.22,0.022);
#134=IFCCARTESIANPOINT((0.,0.,0.));
#135=IFCAXIS2PLACEMENT3D(#134,$,$);
#136=IFCDIRECTION((0.,0.,1.));
#137=IFCEXTRUDEDAREASOLID(#133,#135,#136,2.25);
#138=IFCSHAPEREPRESENTATION(#11,'Body','SweptSolid',(#137));
#139=IFCPRODUCTDEFINITIONSHAPE($,$,(#138));
#140=IFCSTYLEDITEM(#137,(#19),'Tr\X2\00E4\X0\');
#146=IFCCARTESIANPOINT((0.589,0.11000000000000001,0.09635530531970027));
#147=IFCDIRECTION((0.,0.,1.));
#148=IFCDIRECTION((1.,0.,0.));
#149=IFCAXIS2PLACEMENT3D(#146,#147,#148);
#150=IFCLOCALPLACEMENT($,#149);
#151=IFCWALL('2T0mps4Rv47P8PvioS1RKX',$,'Pelarbekl\X2\00E4\X0\dnad plank 1b',$,$,#174,#163,$,$);
#152=IFCPROPERTYSET('2CHDXmP6H6TOPPnSJAVwiK',$,'Stroo_Carport',$,(#154));
#153=IFCRELDEFINESBYPROPERTIES('0LTBhCHpfD7QC3s38KyBq_',$,$,$,(#151),#152);
#154=IFCPROPERTYSINGLEVALUE('Dimension',$,IFCLABEL('22x220 mm'),$);
#155=IFCCARTESIANPOINT((0.,0.));
#156=IFCAXIS2PLACEMENT2D(#155,$);
#157=IFCRECTANGLEPROFILEDEF(.AREA.,$,#156,0.22,0.022);
#158=IFCCARTESIANPOINT((0.,0.,0.));
#159=IFCAXIS2PLACEMENT3D(#158,$,$);
#160=IFCDIRECTION((0.,0.,1.));
#161=IFCEXTRUDEDAREASOLID(#157,#159,#160,2.25);
#162=IFCSHAPEREPRESENTATION(#11,'Body','SweptSolid',(#161));
#163=IFCPRODUCTDEFINITIONSHAPE($,$,(#162));
#164=IFCSTYLEDITEM(#161,(#19),'Tr\X2\00E4\X0\');
#170=IFCCARTESIANPOINT((0.589,0.222,0.09635530531970027));
#171=IFCDIRECTION((0.,0.,1.));
#172=IFCDIRECTION((1.,0.,0.));
#173=IFCAXIS2PLACEMENT3D(#170,#171,#172);
#174=IFCLOCALPLACEMENT($,#173);
#175=IFCFOOTING('18KT64sA14yPvCUkoDhcCr',$,'Betongplint 2',$,$,#207,#195,$,$);
#176=IFCPROPERTYSET('2MKNX_jGH8hfpN8Z9rg$L3',$,'Stroo_Carport',$,(#178,#179));
#177=IFCRELDEFINESBYPROPERTIES('1xuj00Q$T0CRiOMvdsOHwb',$,$,$,(#175),#176);
#178=IFCPROPERTYSINGLEVALUE('Typ',$,IFCLABEL('Ledbruket Betongplint KP 500 med bottenplatta eller likv\X2\00E4\X0\rdigt (m\X2\00E5\X0\tt antagna)'),$);
#179=IFCPROPERTYSINGLEVALUE('Stolpsko',$,IFCLABEL('Justerbar, isolerad'),$);
#180=IFCCARTESIANPOINT((0.1,0.1));
#181=IFCAXIS2PLACEMENT2D(#180,$);
#182=IFCRECTANGLEPROFILEDEF(.AREA.,$,#181,0.2,0.2);
#183=IFCCARTESIANPOINT((-0.1,-0.1,0.));
#184=IFCAXIS2PLACEMENT3D(#183,$,$);
#185=IFCDIRECTION((0.,0.,1.));
#186=IFCEXTRUDEDAREASOLID(#182,#184,#185,0.5);
#187=IFCCARTESIANPOINT((0.2,0.2));
#188=IFCAXIS2PLACEMENT2D(#187,$);
#189=IFCRECTANGLEPROFILEDEF(.AREA.,$,#188,0.4,0.4);
#190=IFCCARTESIANPOINT((-0.2,-0.2,-0.08));
#191=IFCAXIS2PLACEMENT3D(#190,$,$);
#192=IFCDIRECTION((0.,0.,1.));
#193=IFCEXTRUDEDAREASOLID(#189,#191,#192,0.08);
#194=IFCSHAPEREPRESENTATION(#11,'Body','SweptSolid',(#186,#193));
#195=IFCPRODUCTDEFINITIONSHAPE($,$,(#194));
#196=IFCSTYLEDITEM(#186,(#28),'Betong');
#197=IFCSTYLEDITEM(#193,(#28),'Betong');
#203=IFCCARTESIANPOINT((0.589,3.056,-0.40364469468029973));
#204=IFCDIRECTION((0.,0.,1.));
#205=IFCDIRECTION((1.,0.,0.));
#206=IFCAXIS2PLACEMENT3D(#203,#204,#205);
#207=IFCLOCALPLACEMENT($,#206);
#208=IFCCARTESIANPOINT((0.1,0.1));
#209=IFCAXIS2PLACEMENT2D(#208,$);
#210=IFCRECTANGLEPROFILEDEF(.AREA.,$,#209,0.2,0.2);
#211=IFCCARTESIANPOINT((0.489,2.956,-0.40364469468029973));
#212=IFCAXIS2PLACEMENT3D(#211,$,$);
#213=IFCDIRECTION((0.,0.,1.));
#214=IFCEXTRUDEDAREASOLID(#210,#212,#213,0.5);
#215=IFCCARTESIANPOINT((0.2,0.2));
#216=IFCAXIS2PLACEMENT2D(#215,$);
#217=IFCRECTANGLEPROFILEDEF(.AREA.,$,#216,0.4,0.4);
#218=IFCCARTESIANPOINT((0.38899999999999996,2.856,-0.48364469468029975));
#219=IFCAXIS2PLACEMENT3D(#218,$,$);
#220=IFCDIRECTION((0.,0.,1.));
#221=IFCEXTRUDEDAREASOLID(#217,#219,#220,0.08);
#222=IFCCOLUMN('1fj51ZWNH3wQJLLFyez$8n',$,'Pelare 90x90 2',$,$,#245,#234,$,$);
#223=IFCPROPERTYSET('0j6gqpNnf53gk$ZpabPKhA',$,'Stroo_Carport',$,(#225));
#224=IFCRELDEFINESBYPROPERTIES('2kde1nW0H3rxEmjiHFxVt9',$,$,$,(#222),#223);
#225=IFCPROPERTYSINGLEVALUE('Dimension',$,IFCLABEL('90x90 mm'),$);
#226=IFCCARTESIANPOINT((0.,0.));
#227=IFCAXIS2PLACEMENT2D(#226,$);
#228=IFCRECTANGLEPROFILEDEF(.AREA.,$,#227,0.09,0.09);
#229=IFCCARTESIANPOINT((0.,0.,0.));
#230=IFCAXIS2PLACEMENT3D(#229,$,$);
#231=IFCDIRECTION((0.,0.,1.));
#232=IFCEXTRUDEDAREASOLID(#228,#230,#231,2.25);
#233=IFCSHAPEREPRESENTATION(#11,'Body','SweptSolid',(#232));
#234=IFCPRODUCTDEFINITIONSHAPE($,$,(#233));
#235=IFCSTYLEDITEM(#232,(#19),'Tr\X2\00E4\X0\');
#241=IFCCARTESIANPOINT((0.589,3.056,0.09635530531970027));
#242=IFCDIRECTION((0.,0.,1.));
#243=IFCDIRECTION((1.,0.,0.));
#244=IFCAXIS2PLACEMENT3D(#241,#242,#243);
#245=IFCLOCALPLACEMENT($,#244);
#246=IFCWALL('1r06HJfI1BYxJJnsBwThpt',$,'Pelarbekl\X2\00E4\X0\dnad plank 2a',$,$,#269,#258,$,$);
#247=IFCPROPERTYSET('01OvNAHlP9XulxaOo_7l1b',$,'Stroo_Carport',$,(#249));
#248=IFCRELDEFINESBYPROPERTIES('33VrN4fD191xnrVJAGz$Sq',$,$,$,(#246),#247);
#249=IFCPROPERTYSINGLEVALUE('Dimension',$,IFCLABEL('22x220 mm'),$);
#250=IFCCARTESIANPOINT((0.,0.));
#251=IFCAXIS2PLACEMENT2D(#250,$);
#252=IFCRECTANGLEPROFILEDEF(.AREA.,$,#251,0.22,0.022);
#253=IFCCARTESIANPOINT((0.,0.,0.));
#254=IFCAXIS2PLACEMENT3D(#253,$,$);
#255=IFCDIRECTION((0.,0.,1.));
#256=IFCEXTRUDEDAREASOLID(#252,#254,#255,2.25);
#257=IFCSHAPEREPRESENTATION(#11,'Body','SweptSolid',(#256));
#258=IFCPRODUCTDEFINITIONSHAPE($,$,(#257));
#259=IFCSTYLEDITEM(#256,(#19),'Tr\X2\00E4\X0\');
#265=IFCCARTESIANPOINT((0.589,3.,0.09635530531970027));
#266=IFCDIRECTION((0.,0.,1.));
#267=IFCDIRECTION((1.,0.,0.));
#268=IFCAXIS2PLACEMENT3D(#265,#266,#267);
#269=IFCLOCALPLACEMENT($,#268);
#270=IFCWALL('1A6XVA6w92O9iPVy5LEvKl',$,'Pelarbekl\X2\00E4\X0\dnad plank 2b',$,$,#293,#282,$,$);
#271=IFCPROPERTYSET('1Uz6bhEpb7Exb4sKk2b9lR',$,'Stroo_Carport',$,(#273));
#272=IFCRELDEFINESBYPROPERTIES('1VztftIiX0L9krtKaWl_ub',$,$,$,(#270),#271);
#273=IFCPROPERTYSINGLEVALUE('Dimension',$,IFCLABEL('22x220 mm'),$);
#274=IFCCARTESIANPOINT((0.,0.));
#275=IFCAXIS2PLACEMENT2D(#274,$);
#276=IFCRECTANGLEPROFILEDEF(.AREA.,$,#275,0.22,0.022);
#277=IFCCARTESIANPOINT((0.,0.,0.));
#278=IFCAXIS2PLACEMENT3D(#277,$,$);
#279=IFCDIRECTION((0.,0.,1.));
#280=IFCEXTRUDEDAREASOLID(#276,#278,#279,2.25);
#281=IFCSHAPEREPRESENTATION(#11,'Body','SweptSolid',(#280));
#282=IFCPRODUCTDEFINITIONSHAPE($,$,(#281));
#283=IFCSTYLEDITEM(#280,(#19),'Tr\X2\00E4\X0\');
#289=IFCCARTESIANPOINT((0.589,3.112,0.09635530531970027));
#290=IFCDIRECTION((0.,0.,1.));
#291=IFCDIRECTION((1.,0.,0.));
#292=IFCAXIS2PLACEMENT3D(#289,#290,#291);
#293=IFCLOCALPLACEMENT($,#292);
#294=IFCFOOTING('0aNlvwIBzEZRkc9ai1c9_Z',$,'Betongplint 3',$,$,#326,#314,$,$);
#295=IFCPROPERTYSET('1pTqI0wdrB5O0NyQGqRUTN',$,'Stroo_Carport',$,(#297,#298));
#296=IFCRELDEFINESBYPROPERTIES('1Mas2EsrT8UA1K0Z86W$vA',$,$,$,(#294),#295);
#297=IFCPROPERTYSINGLEVALUE('Typ',$,IFCLABEL('Ledbruket Betongplint KP 500 med bottenplatta eller likv\X2\00E4\X0\rdigt (m\X2\00E5\X0\tt antagna)'),$);
#298=IFCPROPERTYSINGLEVALUE('Stolpsko',$,IFCLABEL('Justerbar, isolerad'),$);
#299=IFCCARTESIANPOINT((0.1,0.1));
#300=IFCAXIS2PLACEMENT2D(#299,$);
#301=IFCRECTANGLEPROFILEDEF(.AREA.,$,#300,0.2,0.2);
#302=IFCCARTESIANPOINT((-0.1,-0.1,0.));
#303=IFCAXIS2PLACEMENT3D(#302,$,$);
#304=IFCDIRECTION((0.,0.,1.));
#305=IFCEXTRUDEDAREASOLID(#301,#303,#304,0.5);
#306=IFCCARTESIANPOINT((0.2,0.2));
#307=IFCAXIS2PLACEMENT2D(#306,$);
#308=IFCRECTANGLEPROFILEDEF(.AREA.,$,#307,0.4,0.4);
#309=IFCCARTESIANPOINT((-0.2,-0.2,-0.08));
#310=IFCAXIS2PLACEMENT3D(#309,$,$);
#311=IFCDIRECTION((0.,0.,1.));
#312=IFCEXTRUDEDAREASOLID(#308,#310,#311,0.08);
#313=IFCSHAPEREPRESENTATION(#11,'Body','SweptSolid',(#305,#312));
#314=IFCPRODUCTDEFINITIONSHAPE($,$,(#313));
#315=IFCSTYLEDITEM(#305,(#28),'Betong');
#316=IFCSTYLEDITEM(#312,(#28),'Betong');
#322=IFCCARTESIANPOINT((3.3680000000000003,0.166,-0.18493265141468507));
#323=IFCDIRECTION((0.,0.,1.));
#324=IFCDIRECTION((1.,0.,0.));
#325=IFCAXIS2PLACEMENT3D(#322,#323,#324);
#326=IFCLOCALPLACEMENT($,#325);
#327=IFCCARTESIANPOINT((0.1,0.1));
#328=IFCAXIS2PLACEMENT2D(#327,$);
#329=IFCRECTANGLEPROFILEDEF(.AREA.,$,#328,0.2,0.2);
#330=IFCCARTESIANPOINT((3.2680000000000002,0.066,-0.18493265141468507));
#331=IFCAXIS2PLACEMENT3D(#330,$,$);
#332=IFCDIRECTION((0.,0.,1.));
#333=IFCEXTRUDEDAREASOLID(#329,#331,#332,0.5);
#334=IFCCARTESIANPOINT((0.2,0.2));
#335=IFCAXIS2PLACEMENT2D(#334,$);
#336=IFCRECTANGLEPROFILEDEF(.AREA.,$,#335,0.4,0.4);
#337=IFCCARTESIANPOINT((3.168,-0.034,-0.2649326514146851));
#338=IFCAXIS2PLACEMENT3D(#337,$,$);
#339=IFCDIRECTION((0.,0.,1.));
#340=IFCEXTRUDEDAREASOLID(#336,#338,#339,0.08);
#341=IFCCOLUMN('3S$FW2i_XARPo8SBtazxxx',$,'Pelare 90x90 3',$,$,#364,#353,$,$);
#342=IFCPROPERTYSET('1XBlpe9V5Bxh8JXV38pAHF',$,'Stroo_Carport',$,(#344));
#343=IFCRELDEFINESBYPROPERTIES('05ZpX3Dxb8OxZ8vTdZVVNW',$,$,$,(#341),#342);
#344=IFCPROPERTYSINGLEVALUE('Dimension',$,IFCLABEL('90x90 mm'),$);
#345=IFCCARTESIANPOINT((0.,0.));
#346=IFCAXIS2PLACEMENT2D(#345,$);
#347=IFCRECTANGLEPROFILEDEF(.AREA.,$,#346,0.09,0.09);
#348=IFCCARTESIANPOINT((0.,0.,0.));
#349=IFCAXIS2PLACEMENT3D(#348,$,$);
#350=IFCDIRECTION((0.,0.,1.));
#351=IFCEXTRUDEDAREASOLID(#347,#349,#350,2.25);
#352=IFCSHAPEREPRESENTATION(#11,'Body','SweptSolid',(#351));
#353=IFCPRODUCTDEFINITIONSHAPE($,$,(#352));
#354=IFCSTYLEDITEM(#351,(#19),'Tr\X2\00E4\X0\');
#360=IFCCARTESIANPOINT((3.3680000000000003,0.166,0.31506734858531493));
#361=IFCDIRECTION((0.,0.,1.));
#362=IFCDIRECTION((1.,0.,0.));
#363=IFCAXIS2PLACEMENT3D(#360,#361,#362);
#364=IFCLOCALPLACEMENT($,#363);
#365=IFCWALL('0nZG9NHyj2fuwOJ2ijkuak',$,'Pelarbekl\X2\00E4\X0\dnad plank 3a',$,$,#388,#377,$,$);
#366=IFCPROPERTYSET('3tDl_GlOTBowc7uE9qK1jC',$,'Stroo_Carport',$,(#368));
#367=IFCRELDEFINESBYPROPERTIES('27U$b7ywH8VueHo0gTG3Md',$,$,$,(#365),#366);
#368=IFCPROPERTYSINGLEVALUE('Dimension',$,IFCLABEL('22x220 mm'),$);
#369=IFCCARTESIANPOINT((0.,0.));
#370=IFCAXIS2PLACEMENT2D(#369,$);
#371=IFCRECTANGLEPROFILEDEF(.AREA.,$,#370,0.22,0.022);
#372=IFCCARTESIANPOINT((0.,0.,0.));
#373=IFCAXIS2PLACEMENT3D(#372,$,$);
#374=IFCDIRECTION((0.,0.,1.));
#375=IFCEXTRUDEDAREASOLID(#371,#373,#374,2.25);
#376=IFCSHAPEREPRESENTATION(#11,'Body','SweptSolid',(#375));
#377=IFCPRODUCTDEFINITIONSHAPE($,$,(#376));
#378=IFCSTYLEDITEM(#375,(#19),'Tr\X2\00E4\X0\');
#384=IFCCARTESIANPOINT((3.3680000000000003,0.11000000000000001,0.31506734858531493));
#385=IFCDIRECTION((0.,0.,1.));
#386=IFCDIRECTION((1.,0.,0.));
#387=IFCAXIS2PLACEMENT3D(#384,#385,#386);
#388=IFCLOCALPLACEMENT($,#387);
#389=IFCWALL('3VwUd9Ktn8cBVAogkbUKON',$,'Pelarbekl\X2\00E4\X0\dnad plank 3b',$,$,#412,#401,$,$);
#390=IFCPROPERTYSET('3d30xbpZL9MgcEwLxdeOcp',$,'Stroo_Carport',$,(#392));
#391=IFCRELDEFINESBYPROPERTIES('2KHsqQZrr9FRhwcj2rbXE8',$,$,$,(#389),#390);
#392=IFCPROPERTYSINGLEVALUE('Dimension',$,IFCLABEL('22x220 mm'),$);
#393=IFCCARTESIANPOINT((0.,0.));
#394=IFCAXIS2PLACEMENT2D(#393,$);
#395=IFCRECTANGLEPROFILEDEF(.AREA.,$,#394,0.22,0.022);
#396=IFCCARTESIANPOINT((0.,0.,0.));
#397=IFCAXIS2PLACEMENT3D(#396,$,$);
#398=IFCDIRECTION((0.,0.,1.));
#399=IFCEXTRUDEDAREASOLID(#395,#397,#398,2.25);
#400=IFCSHAPEREPRESENTATION(#11,'Body','SweptSolid',(#399));
#401=IFCPRODUCTDEFINITIONSHAPE($,$,(#400));
#402=IFCSTYLEDITEM(#399,(#19),'Tr\X2\00E4\X0\');
#408=IFCCARTESIANPOINT((3.3680000000000003,0.222,0.31506734858531493));
#409=IFCDIRECTION((0.,0.,1.));
#410=IFCDIRECTION((1.,0.,0.));
#411=IFCAXIS2PLACEMENT3D(#408,#409,#410);
#412=IFCLOCALPLACEMENT($,#411);
#413=IFCFOOTING('27_dcs3DfEge$RCSKCsHQj',$,'Betongplint 4',$,$,#445,#433,$,$);
#414=IFCPROPERTYSET('2hBKS6am9Cy867fOfV_RE1',$,'Stroo_Carport',$,(#416,#417));
#415=IFCRELDEFINESBYPROPERTIES('3gVe0r3jb5afhkwcfP1yMV',$,$,$,(#413),#414);
#416=IFCPROPERTYSINGLEVALUE('Typ',$,IFCLABEL('Ledbruket Betongplint KP 500 med bottenplatta eller likv\X2\00E4\X0\rdigt (m\X2\00E5\X0\tt antagna)'),$);
#417=IFCPROPERTYSINGLEVALUE('Stolpsko',$,IFCLABEL('Justerbar, isolerad'),$);
#418=IFCCARTESIANPOINT((0.1,0.1));
#419=IFCAXIS2PLACEMENT2D(#418,$);
#420=IFCRECTANGLEPROFILEDEF(.AREA.,$,#419,0.2,0.2);
#421=IFCCARTESIANPOINT((-0.1,-0.1,0.));
#422=IFCAXIS2PLACEMENT3D(#421,$,$);
#423=IFCDIRECTION((0.,0.,1.));
#424=IFCEXTRUDEDAREASOLID(#420,#422,#423,0.5);
#425=IFCCARTESIANPOINT((0.2,0.2));
#426=IFCAXIS2PLACEMENT2D(#425,$);
#427=IFCRECTANGLEPROFILEDEF(.AREA.,$,#426,0.4,0.4);
#428=IFCCARTESIANPOINT((-0.2,-0.2,-0.08));
#429=IFCAXIS2PLACEMENT3D(#428,$,$);
#430=IFCDIRECTION((0.,0.,1.));
#431=IFCEXTRUDEDAREASOLID(#427,#429,#430,0.08);
#432=IFCSHAPEREPRESENTATION(#11,'Body','SweptSolid',(#424,#431));
#433=IFCPRODUCTDEFINITIONSHAPE($,$,(#432));
#434=IFCSTYLEDITEM(#424,(#28),'Betong');
#435=IFCSTYLEDITEM(#431,(#28),'Betong');
#441=IFCCARTESIANPOINT((3.3680000000000003,3.056,-0.18493265141468507));
#442=IFCDIRECTION((0.,0.,1.));
#443=IFCDIRECTION((1.,0.,0.));
#444=IFCAXIS2PLACEMENT3D(#441,#442,#443);
#445=IFCLOCALPLACEMENT($,#444);
#446=IFCCARTESIANPOINT((0.1,0.1));
#447=IFCAXIS2PLACEMENT2D(#446,$);
#448=IFCRECTANGLEPROFILEDEF(.AREA.,$,#447,0.2,0.2);
#449=IFCCARTESIANPOINT((3.2680000000000002,2.956,-0.18493265141468507));
#450=IFCAXIS2PLACEMENT3D(#449,$,$);
#451=IFCDIRECTION((0.,0.,1.));
#452=IFCEXTRUDEDAREASOLID(#448,#450,#451,0.5);
#453=IFCCARTESIANPOINT((0.2,0.2));
#454=IFCAXIS2PLACEMENT2D(#453,$);
#455=IFCRECTANGLEPROFILEDEF(.AREA.,$,#454,0.4,0.4);
#456=IFCCARTESIANPOINT((3.168,2.856,-0.2649326514146851));
#457=IFCAXIS2PLACEMENT3D(#456,$,$);
#458=IFCDIRECTION((0.,0.,1.));
#459=IFCEXTRUDEDAREASOLID(#455,#457,#458,0.08);
#460=IFCCOLUMN('1cJOZhS0r3fBg$EI6wRndD',$,'Pelare 90x90 4',$,$,#483,#472,$,$);
#461=IFCPROPERTYSET('2f_zImGADDJuTyhiCfN7ZY',$,'Stroo_Carport',$,(#463));
#462=IFCRELDEFINESBYPROPERTIES('1izQ52e$vECPHGjtKn6RXl',$,$,$,(#460),#461);
#463=IFCPROPERTYSINGLEVALUE('Dimension',$,IFCLABEL('90x90 mm'),$);
#464=IFCCARTESIANPOINT((0.,0.));
#465=IFCAXIS2PLACEMENT2D(#464,$);
#466=IFCRECTANGLEPROFILEDEF(.AREA.,$,#465,0.09,0.09);
#467=IFCCARTESIANPOINT((0.,0.,0.));
#468=IFCAXIS2PLACEMENT3D(#467,$,$);
#469=IFCDIRECTION((0.,0.,1.));
#470=IFCEXTRUDEDAREASOLID(#466,#468,#469,2.25);
#471=IFCSHAPEREPRESENTATION(#11,'Body','SweptSolid',(#470));
#472=IFCPRODUCTDEFINITIONSHAPE($,$,(#471));
#473=IFCSTYLEDITEM(#470,(#19),'Tr\X2\00E4\X0\');
#479=IFCCARTESIANPOINT((3.3680000000000003,3.056,0.31506734858531493));
#480=IFCDIRECTION((0.,0.,1.));
#481=IFCDIRECTION((1.,0.,0.));
#482=IFCAXIS2PLACEMENT3D(#479,#480,#481);
#483=IFCLOCALPLACEMENT($,#482);
#484=IFCWALL('3lyRA7TA55JPZFtJEkVATc',$,'Pelarbekl\X2\00E4\X0\dnad plank 4a',$,$,#507,#496,$,$);
#485=IFCPROPERTYSET('19$JPB7dj6nPFAfYShF728',$,'Stroo_Carport',$,(#487));
#486=IFCRELDEFINESBYPROPERTIES('1yd946qwLDrBSylAkvuX3b',$,$,$,(#484),#485);
#487=IFCPROPERTYSINGLEVALUE('Dimension',$,IFCLABEL('22x220 mm'),$);
#488=IFCCARTESIANPOINT((0.,0.));
#489=IFCAXIS2PLACEMENT2D(#488,$);
#490=IFCRECTANGLEPROFILEDEF(.AREA.,$,#489,0.22,0.022);
#491=IFCCARTESIANPOINT((0.,0.,0.));
#492=IFCAXIS2PLACEMENT3D(#491,$,$);
#493=IFCDIRECTION((0.,0.,1.));
#494=IFCEXTRUDEDAREASOLID(#490,#492,#493,2.25);
#495=IFCSHAPEREPRESENTATION(#11,'Body','SweptSolid',(#494));
#496=IFCPRODUCTDEFINITIONSHAPE($,$,(#495));
#497=IFCSTYLEDITEM(#494,(#19),'Tr\X2\00E4\X0\');
#503=IFCCARTESIANPOINT((3.3680000000000003,3.,0.31506734858531493));
#504=IFCDIRECTION((0.,0.,1.));
#505=IFCDIRECTION((1.,0.,0.));
#506=IFCAXIS2PLACEMENT3D(#503,#504,#505);
#507=IFCLOCALPLACEMENT($,#506);
#508=IFCWALL('3C3S5x_AX3_hBvzzwltUDG',$,'Pelarbekl\X2\00E4\X0\dnad plank 4b',$,$,#531,#520,$,$);
#509=IFCPROPERTYSET('2HTTD5Eq9Bp8eNRgAHsxnF',$,'Stroo_Carport',$,(#511));
#510=IFCRELDEFINESBYPROPERTIES('0dIXJ0SgDA2wbn4fJjCbBV',$,$,$,(#508),#509);
#511=IFCPROPERTYSINGLEVALUE('Dimension',$,IFCLABEL('22x220 mm'),$);
#512=IFCCARTESIANPOINT((0.,0.));
#513=IFCAXIS2PLACEMENT2D(#512,$);
#514=IFCRECTANGLEPROFILEDEF(.AREA.,$,#513,0.22,0.022);
#515=IFCCARTESIANPOINT((0.,0.,0.));
#516=IFCAXIS2PLACEMENT3D(#515,$,$);
#517=IFCDIRECTION((0.,0.,1.));
#518=IFCEXTRUDEDAREASOLID(#514,#516,#517,2.25);
#519=IFCSHAPEREPRESENTATION(#11,'Body','SweptSolid',(#518));
#520=IFCPRODUCTDEFINITIONSHAPE($,$,(#519));
#521=IFCSTYLEDITEM(#518,(#19),'Tr\X2\00E4\X0\');
#527=IFCCARTESIANPOINT((3.3680000000000003,3.112,0.31506734858531493));
#528=IFCDIRECTION((0.,0.,1.));
#529=IFCDIRECTION((1.,0.,0.));
#530=IFCAXIS2PLACEMENT3D(#527,#528,#529);
#531=IFCLOCALPLACEMENT($,#530);
#532=IFCBEAM('2Qp73IdtP81BILfGSuiWMi',$,'B\X2\00E4\X0\rlina GL30c 90x360 1',$,$,#558,#547,$,$);
#533=IFCMATERIAL('Limtr\X2\00E4\X0\ GL30c',$,$);
#534=IFCRELASSOCIATESMATERIAL('1GLZSnoBfEWuR5jw$1C7YQ',$,$,$,(#559,#532),#533);
#535=IFCPROPERTYSET('2NFjlumq59TeB4_D0XLCIm',$,'Stroo_Carport',$,(#537,#538));
#536=IFCRELDEFINESBYPROPERTIES('0LESLh6jXE$OVGp8kmSQJ0',$,$,$,(#532),#535);
#537=IFCPROPERTYSINGLEVALUE('Dimension',$,IFCLABEL('90x360 mm'),$);
#538=IFCPROPERTYSINGLEVALUE('H\X2\00E5\X0\llfasthetsklass',$,IFCLABEL('GL30c'),$);
#539=IFCCARTESIANPOINT((0.,0.));
#540=IFCAXIS2PLACEMENT2D(#539,$);
#541=IFCRECTANGLEPROFILEDEF(.AREA.,$,#540,0.09,0.36);
#542=IFCCARTESIANPOINT((0.,0.,0.));
#543=IFCAXIS2PLACEMENT3D(#542,$,$);
#544=IFCDIRECTION((0.,0.,1.));
#545=IFCEXTRUDEDAREASOLID(#541,#543,#544,4.913145588168879);
#546=IFCSHAPEREPRESENTATION(#11,'Body','SweptSolid',(#545));
#547=IFCPRODUCTDEFINITIONSHAPE($,$,(#546));
#548=IFCSTYLEDITEM(#545,(#22),'Limtr\X2\00E4\X0\');
#554=IFCCARTESIANPOINT((0.18587736276898792,0.166,2.4951854614368862));
#555=IFCDIRECTION((0.996917333733128,0.,0.07845909572784494));
#556=IFCDIRECTION((0.,1.,0.));
#557=IFCAXIS2PLACEMENT3D(#554,#555,#556);
#558=IFCLOCALPLACEMENT($,#557);
#559=IFCBEAM('0pWZbxus19zxGVGjILbHYK',$,'B\X2\00E4\X0\rlina GL30c 90x360 2',$,$,#583,#572,$,$);
#560=IFCPROPERTYSET('3fiCiNStD9tP_Fh$4RrV8$',$,'Stroo_Carport',$,(#562,#563));
#561=IFCRELDEFINESBYPROPERTIES('1a497oL$9AmxvI_HIDCQcC',$,$,$,(#559),#560);
#562=IFCPROPERTYSINGLEVALUE('Dimension',$,IFCLABEL('90x360 mm'),$);
#563=IFCPROPERTYSINGLEVALUE('H\X2\00E5\X0\llfasthetsklass',$,IFCLABEL('GL30c'),$);
#564=IFCCARTESIANPOINT((0.,0.));
#565=IFCAXIS2PLACEMENT2D(#564,$);
#566=IFCRECTANGLEPROFILEDEF(.AREA.,$,#565,0.09,0.36);
#567=IFCCARTESIANPOINT((0.,0.,0.));
#568=IFCAXIS2PLACEMENT3D(#567,$,$);
#569=IFCDIRECTION((0.,0.,1.));
#570=IFCEXTRUDEDAREASOLID(#566,#568,#569,4.913145588168879);
#571=IFCSHAPEREPRESENTATION(#11,'Body','SweptSolid',(#570));
#572=IFCPRODUCTDEFINITIONSHAPE($,$,(#571));
#573=IFCSTYLEDITEM(#570,(#22),'Limtr\X2\00E4\X0\');
#579=IFCCARTESIANPOINT((0.18587736276898792,3.056,2.4951854614368862));
#580=IFCDIRECTION((0.996917333733128,0.,0.07845909572784494));
#581=IFCDIRECTION((0.,1.,0.));
#582=IFCAXIS2PLACEMENT3D(#579,#580,#581);
#583=IFCLOCALPLACEMENT($,#582);
#584=IFCBEAM('3J7N0fMOz9XQTTmwL46832',$,'Bj\X2\00E4\X0\lke 220x45 s600 #1',$,$,#612,#601,$,$);
#585=IFCMATERIAL('Konstruktionsvirke C30',$,$);
#586=IFCRELASSOCIATESMATERIAL('0FFy35E$H83vic4G5fy6VM',$,$,$,(#838,#787,#1063,#736,#1012,#961,#1237,#1186,#688,#637,#584,#913,#862,#1138,#811,#1087,#1036,#763,#712,#988,#661,#937,#1213,#886,#1162,#1111,#613),#585);
#587=IFCPROPERTYSET('2pwtSF2OX2jB7phUMj7bep',$,'Stroo_Carport',$,(#589,#590,#591,#592));
#588=IFCRELDEFINESBYPROPERTIES('0DQTBpSXLB8PojUE$_fDG1',$,$,$,(#584),#587);
#589=IFCPROPERTYSINGLEVALUE('Dimension',$,IFCLABEL('45x220 mm'),$);
#590=IFCPROPERTYSINGLEVALUE('H\X2\00E5\X0\llfasthetsklass',$,IFCLABEL('C30'),$);
#591=IFCPROPERTYSINGLEVALUE('Centrumavst\X2\00E5\X0\nd',$,IFCLABEL('600 mm'),$);
#592=IFCPROPERTYSINGLEVALUE('F\X2\00E4\X0\ste',$,IFCLABEL('Balksko mot b\X2\00E4\X0\rlina'),$);
#593=IFCCARTESIANPOINT((0.,0.));
#594=IFCAXIS2PLACEMENT2D(#593,$);
#595=IFCRECTANGLEPROFILEDEF(.AREA.,$,#594,0.045,0.22);
#596=IFCCARTESIANPOINT((0.,0.,0.));
#597=IFCAXIS2PLACEMENT3D(#596,$,$);
#598=IFCDIRECTION((0.,0.,1.));
#599=IFCEXTRUDEDAREASOLID(#595,#597,#598,2.8000000000000003);
#600=IFCSHAPEREPRESENTATION(#11,'Body','SweptSolid',(#599));
#601=IFCPRODUCTDEFINITIONSHAPE($,$,(#600));
#602=IFCSTYLEDITEM(#599,(#19),'Tr\X2\00E4\X0\');
#608=IFCCARTESIANPOINT((0.2435,0.21100000000000002,2.4731638656117942));
#609=IFCDIRECTION((0.,1.,0.));
#610=IFCDIRECTION((1.,0.,0.));
#611=IFCAXIS2PLACEMENT3D(#608,#609,#610);
#612=IFCLOCALPLACEMENT($,#611);
#613=IFCMEMBER('2r1$vFJ7D6heZldnsK6O8D',$,'Distansbit 100 #1',$,$,#636,#625,$,.MEMBER.);
#614=IFCPROPERTYSET('3z2gIceXzAjP6VzU3_w$$C',$,'Stroo_Carport',$,(#616));
#615=IFCRELDEFINESBYPROPERTIES('1FYWXXedP8ggdCcwnIXrfr',$,$,$,(#613),#614);
#616=IFCPROPERTYSINGLEVALUE('Funktion',$,IFCLABEL('Distansbit s600 mellan fasadpanel och b\X2\00E4\X0\rlina'),$);
#617=IFCCARTESIANPOINT((0.,0.));
#618=IFCAXIS2PLACEMENT2D(#617,$);
#619=IFCRECTANGLEPROFILEDEF(.AREA.,$,#618,0.045,0.1);
#620=IFCCARTESIANPOINT((0.,0.,0.));
#621=IFCAXIS2PLACEMENT3D(#620,$,$);
#622=IFCDIRECTION((0.,0.,1.));
#623=IFCEXTRUDEDAREASOLID(#619,#621,#622,0.36);
#624=IFCSHAPEREPRESENTATION(#11,'Body','SweptSolid',(#623));
#625=IFCPRODUCTDEFINITIONSHAPE($,$,(#624));
#626=IFCSTYLEDITEM(#623,(#19),'Tr\X2\00E4\X0\');
#632=IFCCARTESIANPOINT((0.2435,0.07100000000000001,2.3191638656117943));
#633=IFCDIRECTION((0.,0.,1.));
#634=IFCDIRECTION((1.,0.,0.));
#635=IFCAXIS2PLACEMENT3D(#632,#633,#634);
#636=IFCLOCALPLACEMENT($,#635);
#637=IFCMEMBER('1EHB1f$WbCFPz36NcD0HSB',$,'Distansbit 100 #1',$,$,#660,#649,$,.MEMBER.);
#638=IFCPROPERTYSET('0yOFexMeX1Bh5PcE9e6YkN',$,'Stroo_Carport',$,(#640));
#639=IFCRELDEFINESBYPROPERTIES('2iOw83k9nFguuAbE41ERIK',$,$,$,(#637),#638);
#640=IFCPROPERTYSINGLEVALUE('Funktion',$,IFCLABEL('Distansbit s600 mellan fasadpanel och b\X2\00E4\X0\rlina'),$);
#641=IFCCARTESIANPOINT((0.,0.));
#642=IFCAXIS2PLACEMENT2D(#641,$);
#643=IFCRECTANGLEPROFILEDEF(.AREA.,$,#642,0.045,0.1);
#644=IFCCARTESIANPOINT((0.,0.,0.));
#645=IFCAXIS2PLACEMENT3D(#644,$,$);
#646=IFCDIRECTION((0.,0.,1.));
#647=IFCEXTRUDEDAREASOLID(#643,#645,#646,0.36);
#648=IFCSHAPEREPRESENTATION(#11,'Body','SweptSolid',(#647));
#649=IFCPRODUCTDEFINITIONSHAPE($,$,(#648));
#650=IFCSTYLEDITEM(#647,(#19),'Tr\X2\00E4\X0\');
#656=IFCCARTESIANPOINT((0.2435,3.151,2.3191638656117943));
#657=IFCDIRECTION((0.,0.,1.));
#658=IFCDIRECTION((1.,0.,0.));
#659=IFCAXIS2PLACEMENT3D(#656,#657,#658);
#660=IFCLOCALPLACEMENT($,#659);
#661=IFCBEAM('04LBxPq6572eRrG2gm1$wZ',$,'Bj\X2\00E4\X0\lke 220x45 s600 #2',$,$,#687,#676,$,$);
#662=IFCPROPERTYSET('3vRyrhJaH0QAL33vV8lp4X',$,'Stroo_Carport',$,(#664,#665,#666,#667));
#663=IFCRELDEFINESBYPROPERTIES('146UCvWvX29fn9115U9UC5',$,$,$,(#661),#662);
#664=IFCPROPERTYSINGLEVALUE('Dimension',$,IFCLABEL('45x220 mm'),$);
#665=IFCPROPERTYSINGLEVALUE('H\X2\00E5\X0\llfasthetsklass',$,IFCLABEL('C30'),$);
#666=IFCPROPERTYSINGLEVALUE('Centrumavst\X2\00E5\X0\nd',$,IFCLABEL('600 mm'),$);
#667=IFCPROPERTYSINGLEVALUE('F\X2\00E4\X0\ste',$,IFCLABEL('Balksko mot b\X2\00E4\X0\rlina'),$);
#668=IFCCARTESIANPOINT((0.,0.));
#669=IFCAXIS2PLACEMENT2D(#668,$);
#670=IFCRECTANGLEPROFILEDEF(.AREA.,$,#669,0.045,0.22);
#671=IFCCARTESIANPOINT((0.,0.,0.));
#672=IFCAXIS2PLACEMENT3D(#671,$,$);
#673=IFCDIRECTION((0.,0.,1.));
#674=IFCEXTRUDEDAREASOLID(#670,#672,#673,2.8000000000000003);
#675=IFCSHAPEREPRESENTATION(#11,'Body','SweptSolid',(#674));
#676=IFCPRODUCTDEFINITIONSHAPE($,$,(#675));
#677=IFCSTYLEDITEM(#674,(#19),'Tr\X2\00E4\X0\');
#683=IFCCARTESIANPOINT((0.8434999999999999,0.21100000000000002,2.5203848897065653));
#684=IFCDIRECTION((0.,1.,0.));
#685=IFCDIRECTION((1.,0.,0.));
#686=IFCAXIS2PLACEMENT3D(#683,#684,#685);
#687=IFCLOCALPLACEMENT($,#686);
#688=IFCMEMBER('0CL834P814$hIWcE59F31d',$,'Distansbit 100 #2',$,$,#711,#700,$,.MEMBER.);
#689=IFCPROPERTYSET('1_UlTSAZLEfPJmfzXsFrAU',$,'Stroo_Carport',$,(#691));
#690=IFCRELDEFINESBYPROPERTIES('3z$lGU7nb14vkWyryiSOra',$,$,$,(#688),#689);
#691=IFCPROPERTYSINGLEVALUE('Funktion',$,IFCLABEL('Distansbit s600 mellan fasadpanel och b\X2\00E4\X0\rlina'),$);
#692=IFCCARTESIANPOINT((0.,0.));
#693=IFCAXIS2PLACEMENT2D(#692,$);
#694=IFCRECTANGLEPROFILEDEF(.AREA.,$,#693,0.045,0.1);
#695=IFCCARTESIANPOINT((0.,0.,0.));
#696=IFCAXIS2PLACEMENT3D(#695,$,$);
#697=IFCDIRECTION((0.,0.,1.));
#698=IFCEXTRUDEDAREASOLID(#694,#696,#697,0.36);
#699=IFCSHAPEREPRESENTATION(#11,'Body','SweptSolid',(#698));
#700=IFCPRODUCTDEFINITIONSHAPE($,$,(#699));
#701=IFCSTYLEDITEM(#698,(#19),'Tr\X2\00E4\X0\');
#707=IFCCARTESIANPOINT((0.8434999999999999,0.07100000000000001,2.3663848897065654));
#708=IFCDIRECTION((0.,0.,1.));
#709=IFCDIRECTION((1.,0.,0.));
#710=IFCAXIS2PLACEMENT3D(#707,#708,#709);
#711=IFCLOCALPLACEMENT($,#710);
#712=IFCMEMBER('3Yzb7KXRP0COdw6ihPnT1$',$,'Distansbit 100 #2',$,$,#735,#724,$,.MEMBER.);
#713=IFCPROPERTYSET('3Fz6WxT_z4YOTUvshFLRCK',$,'Stroo_Carport',$,(#715));
#714=IFCRELDEFINESBYPROPERTIES('2OI9efyfjCFgEwa6Kv6fqp',$,$,$,(#712),#713);
#715=IFCPROPERTYSINGLEVALUE('Funktion',$,IFCLABEL('Distansbit s600 mellan fasadpanel och b\X2\00E4\X0\rlina'),$);
#716=IFCCARTESIANPOINT((0.,0.));
#717=IFCAXIS2PLACEMENT2D(#716,$);
#718=IFCRECTANGLEPROFILEDEF(.AREA.,$,#717,0.045,0.1);
#719=IFCCARTESIANPOINT((0.,0.,0.));
#720=IFCAXIS2PLACEMENT3D(#719,$,$);
#721=IFCDIRECTION((0.,0.,1.));
#722=IFCEXTRUDEDAREASOLID(#718,#720,#721,0.36);
#723=IFCSHAPEREPRESENTATION(#11,'Body','SweptSolid',(#722));
#724=IFCPRODUCTDEFINITIONSHAPE($,$,(#723));
#725=IFCSTYLEDITEM(#722,(#19),'Tr\X2\00E4\X0\');
#731=IFCCARTESIANPOINT((0.8434999999999999,3.151,2.3663848897065654));
#732=IFCDIRECTION((0.,0.,1.));
#733=IFCDIRECTION((1.,0.,0.));
#734=IFCAXIS2PLACEMENT3D(#731,#732,#733);
#735=IFCLOCALPLACEMENT($,#734);
#736=IFCBEAM('0HPnv7Oqf79gr5O99KuMtb',$,'Bj\X2\00E4\X0\lke 220x45 s600 #3',$,$,#762,#751,$,$);
#737=IFCPROPERTYSET('3$mdvulpr3a9I7uHztata8',$,'Stroo_Carport',$,(#739,#740,#741,#742));
#738=IFCRELDEFINESBYPROPERTIES('14X4ZHjevAER3laAbZsFXc',$,$,$,(#736),#737);
#739=IFCPROPERTYSINGLEVALUE('Dimension',$,IFCLABEL('45x220 mm'),$);
#740=IFCPROPERTYSINGLEVALUE('H\X2\00E5\X0\llfasthetsklass',$,IFCLABEL('C30'),$);
#741=IFCPROPERTYSINGLEVALUE('Centrumavst\X2\00E5\X0\nd',$,IFCLABEL('600 mm'),$);
#742=IFCPROPERTYSINGLEVALUE('F\X2\00E4\X0\ste',$,IFCLABEL('Balksko mot b\X2\00E4\X0\rlina'),$);
#743=IFCCARTESIANPOINT((0.,0.));
#744=IFCAXIS2PLACEMENT2D(#743,$);
#745=IFCRECTANGLEPROFILEDEF(.AREA.,$,#744,0.045,0.22);
#746=IFCCARTESIANPOINT((0.,0.,0.));
#747=IFCAXIS2PLACEMENT3D(#746,$,$);
#748=IFCDIRECTION((0.,0.,1.));
#749=IFCEXTRUDEDAREASOLID(#745,#747,#748,2.8000000000000003);
#750=IFCSHAPEREPRESENTATION(#11,'Body','SweptSolid',(#749));
#751=IFCPRODUCTDEFINITIONSHAPE($,$,(#750));
#752=IFCSTYLEDITEM(#749,(#19),'Tr\X2\00E4\X0\');
#758=IFCCARTESIANPOINT((1.4435,0.21100000000000002,2.5676059138013363));
#759=IFCDIRECTION((0.,1.,0.));
#760=IFCDIRECTION((1.,0.,0.));
#761=IFCAXIS2PLACEMENT3D(#758,#759,#760);
#762=IFCLOCALPLACEMENT($,#761);
#763=IFCMEMBER('3IckkYPTLCdwc3NqzhKvef',$,'Distansbit 100 #3',$,$,#786,#775,$,.MEMBER.);
#764=IFCPROPERTYSET('1JKoeijuPE_8hfEGp6O$3O',$,'Stroo_Carport',$,(#766));
#765=IFCRELDEFINESBYPROPERTIES('13bSEx0orAHuc8QLrtjuE1',$,$,$,(#763),#764);
#766=IFCPROPERTYSINGLEVALUE('Funktion',$,IFCLABEL('Distansbit s600 mellan fasadpanel och b\X2\00E4\X0\rlina'),$);
#767=IFCCARTESIANPOINT((0.,0.));
#768=IFCAXIS2PLACEMENT2D(#767,$);
#769=IFCRECTANGLEPROFILEDEF(.AREA.,$,#768,0.045,0.1);
#770=IFCCARTESIANPOINT((0.,0.,0.));
#771=IFCAXIS2PLACEMENT3D(#770,$,$);
#772=IFCDIRECTION((0.,0.,1.));
#773=IFCEXTRUDEDAREASOLID(#769,#771,#772,0.36);
#774=IFCSHAPEREPRESENTATION(#11,'Body','SweptSolid',(#773));
#775=IFCPRODUCTDEFINITIONSHAPE($,$,(#774));
#776=IFCSTYLEDITEM(#773,(#19),'Tr\X2\00E4\X0\');
#782=IFCCARTESIANPOINT((1.4435,0.07100000000000001,2.4136059138013364));
#783=IFCDIRECTION((0.,0.,1.));
#784=IFCDIRECTION((1.,0.,0.));
#785=IFCAXIS2PLACEMENT3D(#782,#783,#784);
#786=IFCLOCALPLACEMENT($,#785);
#787=IFCMEMBER('3fyaM83457EvaoPy2C7ov7',$,'Distansbit 100 #3',$,$,#810,#799,$,.MEMBER.);
#788=IFCPROPERTYSET('3jBp37uTL4CBdEZODgzZ0q',$,'Stroo_Carport',$,(#790));
#789=IFCRELDEFINESBYPROPERTIES('3czNp9CzH3muGEQvGXoXL9',$,$,$,(#787),#788);
#790=IFCPROPERTYSINGLEVALUE('Funktion',$,IFCLABEL('Distansbit s600 mellan fasadpanel och b\X2\00E4\X0\rlina'),$);
#791=IFCCARTESIANPOINT((0.,0.));
#792=IFCAXIS2PLACEMENT2D(#791,$);
#793=IFCRECTANGLEPROFILEDEF(.AREA.,$,#792,0.045,0.1);
#794=IFCCARTESIANPOINT((0.,0.,0.));
#795=IFCAXIS2PLACEMENT3D(#794,$,$);
#796=IFCDIRECTION((0.,0.,1.));
#797=IFCEXTRUDEDAREASOLID(#793,#795,#796,0.36);
#798=IFCSHAPEREPRESENTATION(#11,'Body','SweptSolid',(#797));
#799=IFCPRODUCTDEFINITIONSHAPE($,$,(#798));
#800=IFCSTYLEDITEM(#797,(#19),'Tr\X2\00E4\X0\');
#806=IFCCARTESIANPOINT((1.4435,3.151,2.4136059138013364));
#807=IFCDIRECTION((0.,0.,1.));
#808=IFCDIRECTION((1.,0.,0.));
#809=IFCAXIS2PLACEMENT3D(#806,#807,#808);
#810=IFCLOCALPLACEMENT($,#809);
#811=IFCBEAM('0VZRiZTpn1wxI6gjgj4DJg',$,'Bj\X2\00E4\X0\lke 220x45 s600 #4',$,$,#837,#826,$,$);
#812=IFCPROPERTYSET('2XXmK$N_L1XOZAehNIh_TT',$,'Stroo_Carport',$,(#814,#815,#816,#817));
#813=IFCRELDEFINESBYPROPERTIES('0U$mUVt7HDdua8DIIHNCIG',$,$,$,(#811),#812);
#814=IFCPROPERTYSINGLEVALUE('Dimension',$,IFCLABEL('45x220 mm'),$);
#815=IFCPROPERTYSINGLEVALUE('H\X2\00E5\X0\llfasthetsklass',$,IFCLABEL('C30'),$);
#816=IFCPROPERTYSINGLEVALUE('Centrumavst\X2\00E5\X0\nd',$,IFCLABEL('600 mm'),$);
#817=IFCPROPERTYSINGLEVALUE('F\X2\00E4\X0\ste',$,IFCLABEL('Balksko mot b\X2\00E4\X0\rlina'),$);
#818=IFCCARTESIANPOINT((0.,0.));
#819=IFCAXIS2PLACEMENT2D(#818,$);
#820=IFCRECTANGLEPROFILEDEF(.AREA.,$,#819,0.045,0.22);
#821=IFCCARTESIANPOINT((0.,0.,0.));
#822=IFCAXIS2PLACEMENT3D(#821,$,$);
#823=IFCDIRECTION((0.,0.,1.));
#824=IFCEXTRUDEDAREASOLID(#820,#822,#823,2.8000000000000003);
#825=IFCSHAPEREPRESENTATION(#11,'Body','SweptSolid',(#824));
#826=IFCPRODUCTDEFINITIONSHAPE($,$,(#825));
#827=IFCSTYLEDITEM(#824,(#19),'Tr\X2\00E4\X0\');
#833=IFCCARTESIANPOINT((2.0435,0.21100000000000002,2.6148269378961073));
#834=IFCDIRECTION((0.,1.,0.));
#835=IFCDIRECTION((1.,0.,0.));
#836=IFCAXIS2PLACEMENT3D(#833,#834,#835);
#837=IFCLOCALPLACEMENT($,#836);
#838=IFCMEMBER('24RDbFeh1C_ObBIcPuwOGQ',$,'Distansbit 100 #4',$,$,#861,#850,$,.MEMBER.);
#839=IFCPROPERTYSET('3IR6vfI1HFDuNvCzrjbo8d',$,'Stroo_Carport',$,(#841));
#840=IFCRELDEFINESBYPROPERTIES('1Ut36KXuHCG9ZMQ8nVkhpA',$,$,$,(#838),#839);
#841=IFCPROPERTYSINGLEVALUE('Funktion',$,IFCLABEL('Distansbit s600 mellan fasadpanel och b\X2\00E4\X0\rlina'),$);
#842=IFCCARTESIANPOINT((0.,0.));
#843=IFCAXIS2PLACEMENT2D(#842,$);
#844=IFCRECTANGLEPROFILEDEF(.AREA.,$,#843,0.045,0.1);
#845=IFCCARTESIANPOINT((0.,0.,0.));
#846=IFCAXIS2PLACEMENT3D(#845,$,$);
#847=IFCDIRECTION((0.,0.,1.));
#848=IFCEXTRUDEDAREASOLID(#844,#846,#847,0.36);
#849=IFCSHAPEREPRESENTATION(#11,'Body','SweptSolid',(#848));
#850=IFCPRODUCTDEFINITIONSHAPE($,$,(#849));
#851=IFCSTYLEDITEM(#848,(#19),'Tr\X2\00E4\X0\');
#857=IFCCARTESIANPOINT((2.0435,0.07100000000000001,2.4608269378961074));
#858=IFCDIRECTION((0.,0.,1.));
#859=IFCDIRECTION((1.,0.,0.));
#860=IFCAXIS2PLACEMENT3D(#857,#858,#859);
#861=IFCLOCALPLACEMENT($,#860);
#862=IFCMEMBER('3XJwYMY8j0m9dX3tu5unUp',$,'Distansbit 100 #4',$,$,#885,#874,$,.MEMBER.);
#863=IFCPROPERTYSET('3FTZESuLf0ChgErNVRY18W',$,'Stroo_Carport',$,(#865));
#864=IFCRELDEFINESBYPROPERTIES('18_5eyTrLCBgMFMixLswxk',$,$,$,(#862),#863);
#865=IFCPROPERTYSINGLEVALUE('Funktion',$,IFCLABEL('Distansbit s600 mellan fasadpanel och b\X2\00E4\X0\rlina'),$);
#866=IFCCARTESIANPOINT((0.,0.));
#867=IFCAXIS2PLACEMENT2D(#866,$);
#868=IFCRECTANGLEPROFILEDEF(.AREA.,$,#867,0.045,0.1);
#869=IFCCARTESIANPOINT((0.,0.,0.));
#870=IFCAXIS2PLACEMENT3D(#869,$,$);
#871=IFCDIRECTION((0.,0.,1.));
#872=IFCEXTRUDEDAREASOLID(#868,#870,#871,0.36);
#873=IFCSHAPEREPRESENTATION(#11,'Body','SweptSolid',(#872));
#874=IFCPRODUCTDEFINITIONSHAPE($,$,(#873));
#875=IFCSTYLEDITEM(#872,(#19),'Tr\X2\00E4\X0\');
#881=IFCCARTESIANPOINT((2.0435,3.151,2.4608269378961074));
#882=IFCDIRECTION((0.,0.,1.));
#883=IFCDIRECTION((1.,0.,0.));
#884=IFCAXIS2PLACEMENT3D(#881,#882,#883);
#885=IFCLOCALPLACEMENT($,#884);
#886=IFCBEAM('0zkg4JJm1CufLbE1a2xy4Q',$,'Bj\X2\00E4\X0\lke 220x45 s600 #5',$,$,#912,#901,$,$);
#887=IFCPROPERTYSET('20up8azLDAlxS_GnejJaf5',$,'Stroo_Carport',$,(#889,#890,#891,#892));
#888=IFCRELDEFINESBYPROPERTIES('1mdgrjCZf4_9mSPJo1xoX7',$,$,$,(#886),#887);
#889=IFCPROPERTYSINGLEVALUE('Dimension',$,IFCLABEL('45x220 mm'),$);
#890=IFCPROPERTYSINGLEVALUE('H\X2\00E5\X0\llfasthetsklass',$,IFCLABEL('C30'),$);
#891=IFCPROPERTYSINGLEVALUE('Centrumavst\X2\00E5\X0\nd',$,IFCLABEL('600 mm'),$);
#892=IFCPROPERTYSINGLEVALUE('F\X2\00E4\X0\ste',$,IFCLABEL('Balksko mot b\X2\00E4\X0\rlina'),$);
#893=IFCCARTESIANPOINT((0.,0.));
#894=IFCAXIS2PLACEMENT2D(#893,$);
#895=IFCRECTANGLEPROFILEDEF(.AREA.,$,#894,0.045,0.22);
#896=IFCCARTESIANPOINT((0.,0.,0.));
#897=IFCAXIS2PLACEMENT3D(#896,$,$);
#898=IFCDIRECTION((0.,0.,1.));
#899=IFCEXTRUDEDAREASOLID(#895,#897,#898,2.8000000000000003);
#900=IFCSHAPEREPRESENTATION(#11,'Body','SweptSolid',(#899));
#901=IFCPRODUCTDEFINITIONSHAPE($,$,(#900));
#902=IFCSTYLEDITEM(#899,(#19),'Tr\X2\00E4\X0\');
#908=IFCCARTESIANPOINT((2.6435,0.21100000000000002,2.662047961990879));
#909=IFCDIRECTION((0.,1.,0.));
#910=IFCDIRECTION((1.,0.,0.));
#911=IFCAXIS2PLACEMENT3D(#908,#909,#910);
#912=IFCLOCALPLACEMENT($,#911);
#913=IFCMEMBER('2zoLYmAE9B18Q0vM31KwSo',$,'Distansbit 100 #5',$,$,#936,#925,$,.MEMBER.);
#914=IFCPROPERTYSET('3z_OoW3Ln7ffm4Jd0J3T8d',$,'Stroo_Carport',$,(#916));
#915=IFCRELDEFINESBYPROPERTIES('1E0_39VcL7qgiswT7G7vRP',$,$,$,(#913),#914);
#916=IFCPROPERTYSINGLEVALUE('Funktion',$,IFCLABEL('Distansbit s600 mellan fasadpanel och b\X2\00E4\X0\rlina'),$);
#917=IFCCARTESIANPOINT((0.,0.));
#918=IFCAXIS2PLACEMENT2D(#917,$);
#919=IFCRECTANGLEPROFILEDEF(.AREA.,$,#918,0.045,0.1);
#920=IFCCARTESIANPOINT((0.,0.,0.));
#921=IFCAXIS2PLACEMENT3D(#920,$,$);
#922=IFCDIRECTION((0.,0.,1.));
#923=IFCEXTRUDEDAREASOLID(#919,#921,#922,0.36);
#924=IFCSHAPEREPRESENTATION(#11,'Body','SweptSolid',(#923));
#925=IFCPRODUCTDEFINITIONSHAPE($,$,(#924));
#926=IFCSTYLEDITEM(#923,(#19),'Tr\X2\00E4\X0\');
#932=IFCCARTESIANPOINT((2.6435,0.07100000000000001,2.508047961990879));
#933=IFCDIRECTION((0.,0.,1.));
#934=IFCDIRECTION((1.,0.,0.));
#935=IFCAXIS2PLACEMENT3D(#932,#933,#934);
#936=IFCLOCALPLACEMENT($,#935);
#937=IFCMEMBER('04RNgV1vT9NPNP$LAzu4zC',$,'Distansbit 100 #5',$,$,#960,#949,$,.MEMBER.);
#938=IFCPROPERTYSET('1hIVrKAmXB6QDNa4mm7_fp',$,'Stroo_Carport',$,(#940));
#939=IFCRELDEFINESBYPROPERTIES('0wpXtThUr0Hw_YH8Tb46To',$,$,$,(#937),#938);
#940=IFCPROPERTYSINGLEVALUE('Funktion',$,IFCLABEL('Distansbit s600 mellan fasadpanel och b\X2\00E4\X0\rlina'),$);
#941=IFCCARTESIANPOINT((0.,0.));
#942=IFCAXIS2PLACEMENT2D(#941,$);
#943=IFCRECTANGLEPROFILEDEF(.AREA.,$,#942,0.045,0.1);
#944=IFCCARTESIANPOINT((0.,0.,0.));
#945=IFCAXIS2PLACEMENT3D(#944,$,$);
#946=IFCDIRECTION((0.,0.,1.));
#947=IFCEXTRUDEDAREASOLID(#943,#945,#946,0.36);
#948=IFCSHAPEREPRESENTATION(#11,'Body','SweptSolid',(#947));
#949=IFCPRODUCTDEFINITIONSHAPE($,$,(#948));
#950=IFCSTYLEDITEM(#947,(#19),'Tr\X2\00E4\X0\');
#956=IFCCARTESIANPOINT((2.6435,3.151,2.508047961990879));
#957=IFCDIRECTION((0.,0.,1.));
#958=IFCDIRECTION((1.,0.,0.));
#959=IFCAXIS2PLACEMENT3D(#956,#957,#958);
#960=IFCLOCALPLACEMENT($,#959);
#961=IFCBEAM('2ajxOSWxX9MQ0tbNxxywNl',$,'Bj\X2\00E4\X0\lke 220x45 s600 #6',$,$,#987,#976,$,$);
#962=IFCPROPERTYSET('0M6CTc47HExBDQNzBEAnct',$,'Stroo_Carport',$,(#964,#965,#966,#967));
#963=IFCRELDEFINESBYPROPERTIES('0q6noo38j1YfDWlngCDVTd',$,$,$,(#961),#962);
#964=IFCPROPERTYSINGLEVALUE('Dimension',$,IFCLABEL('45x220 mm'),$);
#965=IFCPROPERTYSINGLEVALUE('H\X2\00E5\X0\llfasthetsklass',$,IFCLABEL('C30'),$);
#966=IFCPROPERTYSINGLEVALUE('Centrumavst\X2\00E5\X0\nd',$,IFCLABEL('600 mm'),$);
#967=IFCPROPERTYSINGLEVALUE('F\X2\00E4\X0\ste',$,IFCLABEL('Balksko mot b\X2\00E4\X0\rlina'),$);
#968=IFCCARTESIANPOINT((0.,0.));
#969=IFCAXIS2PLACEMENT2D(#968,$);
#970=IFCRECTANGLEPROFILEDEF(.AREA.,$,#969,0.045,0.22);
#971=IFCCARTESIANPOINT((0.,0.,0.));
#972=IFCAXIS2PLACEMENT3D(#971,$,$);
#973=IFCDIRECTION((0.,0.,1.));
#974=IFCEXTRUDEDAREASOLID(#970,#972,#973,2.8000000000000003);
#975=IFCSHAPEREPRESENTATION(#11,'Body','SweptSolid',(#974));
#976=IFCPRODUCTDEFINITIONSHAPE($,$,(#975));
#977=IFCSTYLEDITEM(#974,(#19),'Tr\X2\00E4\X0\');
#983=IFCCARTESIANPOINT((3.2435,0.21100000000000002,2.70926898608565));
#984=IFCDIRECTION((0.,1.,0.));
#985=IFCDIRECTION((1.,0.,0.));
#986=IFCAXIS2PLACEMENT3D(#983,#984,#985);
#987=IFCLOCALPLACEMENT($,#986);
#988=IFCMEMBER('34pg_ujFD8ePc8IW1mHvAT',$,'Distansbit 100 #6',$,$,#1011,#1000,$,.MEMBER.);
#989=IFCPROPERTYSET('2PPZyzSo59dPiNWJ$jR_jo',$,'Stroo_Carport',$,(#991));
#990=IFCRELDEFINESBYPROPERTIES('1fPNVo2nX4o9yMf0wHpfbh',$,$,$,(#988),#989);
#991=IFCPROPERTYSINGLEVALUE('Funktion',$,IFCLABEL('Distansbit s600 mellan fasadpanel och b\X2\00E4\X0\rlina'),$);
#992=IFCCARTESIANPOINT((0.,0.));
#993=IFCAXIS2PLACEMENT2D(#992,$);
#994=IFCRECTANGLEPROFILEDEF(.AREA.,$,#993,0.045,0.1);
#995=IFCCARTESIANPOINT((0.,0.,0.));
#996=IFCAXIS2PLACEMENT3D(#995,$,$);
#997=IFCDIRECTION((0.,0.,1.));
#998=IFCEXTRUDEDAREASOLID(#994,#996,#997,0.36);
#999=IFCSHAPEREPRESENTATION(#11,'Body','SweptSolid',(#998));
#1000=IFCPRODUCTDEFINITIONSHAPE($,$,(#999));
#1001=IFCSTYLEDITEM(#998,(#19),'Tr\X2\00E4\X0\');
#1007=IFCCARTESIANPOINT((3.2435,0.07100000000000001,2.55526898608565));
#1008=IFCDIRECTION((0.,0.,1.));
#1009=IFCDIRECTION((1.,0.,0.));
#1010=IFCAXIS2PLACEMENT3D(#1007,#1008,#1009);
#1011=IFCLOCALPLACEMENT($,#1010);
#1012=IFCMEMBER('1Up9m5ra1AXQvXTvq$6HTx',$,'Distansbit 100 #6',$,$,#1035,#1024,$,.MEMBER.);
#1013=IFCPROPERTYSET('3HIbRSPqX5AA9yKDycPa$r',$,'Stroo_Carport',$,(#1015));
#1014=IFCRELDEFINESBYPROPERTIES('0yxnOLw_fD$ATXOq2IokO3',$,$,$,(#1012),#1013);
#1015=IFCPROPERTYSINGLEVALUE('Funktion',$,IFCLABEL('Distansbit s600 mellan fasadpanel och b\X2\00E4\X0\rlina'),$);
#1016=IFCCARTESIANPOINT((0.,0.));
#1017=IFCAXIS2PLACEMENT2D(#1016,$);
#1018=IFCRECTANGLEPROFILEDEF(.AREA.,$,#1017,0.045,0.1);
#1019=IFCCARTESIANPOINT((0.,0.,0.));
#1020=IFCAXIS2PLACEMENT3D(#1019,$,$);
#1021=IFCDIRECTION((0.,0.,1.));
#1022=IFCEXTRUDEDAREASOLID(#1018,#1020,#1021,0.36);
#1023=IFCSHAPEREPRESENTATION(#11,'Body','SweptSolid',(#1022));
#1024=IFCPRODUCTDEFINITIONSHAPE($,$,(#1023));
#1025=IFCSTYLEDITEM(#1022,(#19),'Tr\X2\00E4\X0\');
#1031=IFCCARTESIANPOINT((3.2435,3.151,2.55526898608565));
#1032=IFCDIRECTION((0.,0.,1.));
#1033=IFCDIRECTION((1.,0.,0.));
#1034=IFCAXIS2PLACEMENT3D(#1031,#1032,#1033);
#1035=IFCLOCALPLACEMENT($,#1034);
#1036=IFCBEAM('1zNDHQMHD3rxbCnHMJQ6m8',$,'Bj\X2\00E4\X0\lke 220x45 s600 #7',$,$,#1062,#1051,$,$);
#1037=IFCPROPERTYSET('3tulTFCdT4s8IOrb0p$rxI',$,'Stroo_Carport',$,(#1039,#1040,#1041,#1042));
#1038=IFCRELDEFINESBYPROPERTIES('17jIWaZG1BOxoN$aHfT0li',$,$,$,(#1036),#1037);
#1039=IFCPROPERTYSINGLEVALUE('Dimension',$,IFCLABEL('45x220 mm'),$);
#1040=IFCPROPERTYSINGLEVALUE('H\X2\00E5\X0\llfasthetsklass',$,IFCLABEL('C30'),$);
#1041=IFCPROPERTYSINGLEVALUE('Centrumavst\X2\00E5\X0\nd',$,IFCLABEL('600 mm'),$);
#1042=IFCPROPERTYSINGLEVALUE('F\X2\00E4\X0\ste',$,IFCLABEL('Balksko mot b\X2\00E4\X0\rlina'),$);
#1043=IFCCARTESIANPOINT((0.,0.));
#1044=IFCAXIS2PLACEMENT2D(#1043,$);
#1045=IFCRECTANGLEPROFILEDEF(.AREA.,$,#1044,0.045,0.22);
#1046=IFCCARTESIANPOINT((0.,0.,0.));
#1047=IFCAXIS2PLACEMENT3D(#1046,$,$);
#1048=IFCDIRECTION((0.,0.,1.));
#1049=IFCEXTRUDEDAREASOLID(#1045,#1047,#1048,2.8000000000000003);
#1050=IFCSHAPEREPRESENTATION(#11,'Body','SweptSolid',(#1049));
#1051=IFCPRODUCTDEFINITIONSHAPE($,$,(#1050));
#1052=IFCSTYLEDITEM(#1049,(#19),'Tr\X2\00E4\X0\');
#1058=IFCCARTESIANPOINT((3.8434999999999997,0.21100000000000002,2.756490010180421));
#1059=IFCDIRECTION((0.,1.,0.));
#1060=IFCDIRECTION((1.,0.,0.));
#1061=IFCAXIS2PLACEMENT3D(#1058,#1059,#1060);
#1062=IFCLOCALPLACEMENT($,#1061);
#1063=IFCMEMBER('3_qv8YFI14lRr4Ub9CAwlD',$,'Distansbit 100 #7',$,$,#1086,#1075,$,.MEMBER.);
#1064=IFCPROPERTYSET('2Na3Rwd9D5TugwbjbeKGN2',$,'Stroo_Carport',$,(#1066));
#1065=IFCRELDEFINESBYPROPERTIES('1wcM9$P0L34RSM2h16fL56',$,$,$,(#1063),#1064);
#1066=IFCPROPERTYSINGLEVALUE('Funktion',$,IFCLABEL('Distansbit s600 mellan fasadpanel och b\X2\00E4\X0\rlina'),$);
#1067=IFCCARTESIANPOINT((0.,0.));
#1068=IFCAXIS2PLACEMENT2D(#1067,$);
#1069=IFCRECTANGLEPROFILEDEF(.AREA.,$,#1068,0.045,0.1);
#1070=IFCCARTESIANPOINT((0.,0.,0.));
#1071=IFCAXIS2PLACEMENT3D(#1070,$,$);
#1072=IFCDIRECTION((0.,0.,1.));
#1073=IFCEXTRUDEDAREASOLID(#1069,#1071,#1072,0.36);
#1074=IFCSHAPEREPRESENTATION(#11,'Body','SweptSolid',(#1073));
#1075=IFCPRODUCTDEFINITIONSHAPE($,$,(#1074));
#1076=IFCSTYLEDITEM(#1073,(#19),'Tr\X2\00E4\X0\');
#1082=IFCCARTESIANPOINT((3.8434999999999997,0.07100000000000001,2.602490010180421));
#1083=IFCDIRECTION((0.,0.,1.));
#1084=IFCDIRECTION((1.,0.,0.));
#1085=IFCAXIS2PLACEMENT3D(#1082,#1083,#1084);
#1086=IFCLOCALPLACEMENT($,#1085);
#1087=IFCMEMBER('20WjhK0PH91h2z3bOxiwiG',$,'Distansbit 100 #7',$,$,#1110,#1099,$,.MEMBER.);
#1088=IFCPROPERTYSET('1FwHFvhpr8lhVxhPKYbV9c',$,'Stroo_Carport',$,(#1090));
#1089=IFCRELDEFINESBYPROPERTIES('2FciN4DND9MPUFIjvlVkqQ',$,$,$,(#1087),#1088);
#1090=IFCPROPERTYSINGLEVALUE('Funktion',$,IFCLABEL('Distansbit s600 mellan fasadpanel och b\X2\00E4\X0\rlina'),$);
#1091=IFCCARTESIANPOINT((0.,0.));
#1092=IFCAXIS2PLACEMENT2D(#1091,$);
#1093=IFCRECTANGLEPROFILEDEF(.AREA.,$,#1092,0.045,0.1);
#1094=IFCCARTESIANPOINT((0.,0.,0.));
#1095=IFCAXIS2PLACEMENT3D(#1094,$,$);
#1096=IFCDIRECTION((0.,0.,1.));
#1097=IFCEXTRUDEDAREASOLID(#1093,#1095,#1096,0.36);
#1098=IFCSHAPEREPRESENTATION(#11,'Body','SweptSolid',(#1097));
#1099=IFCPRODUCTDEFINITIONSHAPE($,$,(#1098));
#1100=IFCSTYLEDITEM(#1097,(#19),'Tr\X2\00E4\X0\');
#1106=IFCCARTESIANPOINT((3.8434999999999997,3.151,2.602490010180421));
#1107=IFCDIRECTION((0.,0.,1.));
#1108=IFCDIRECTION((1.,0.,0.));
#1109=IFCAXIS2PLACEMENT3D(#1106,#1107,#1108);
#1110=IFCLOCALPLACEMENT($,#1109);
#1111=IFCBEAM('3MHPrpZ7T6jAtMm4641yKS',$,'Bj\X2\00E4\X0\lke 220x45 s600 #8',$,$,#1137,#1126,$,$);
#1112=IFCPROPERTYSET('1RS4Kdlib9I8ggAsQeERA0',$,'Stroo_Carport',$,(#1114,#1115,#1116,#1117));
#1113=IFCRELDEFINESBYPROPERTIES('2hUNMzcUj6vejai51XtVUU',$,$,$,(#1111),#1112);
#1114=IFCPROPERTYSINGLEVALUE('Dimension',$,IFCLABEL('45x220 mm'),$);
#1115=IFCPROPERTYSINGLEVALUE('H\X2\00E5\X0\llfasthetsklass',$,IFCLABEL('C30'),$);
#1116=IFCPROPERTYSINGLEVALUE('Centrumavst\X2\00E5\X0\nd',$,IFCLABEL('600 mm'),$);
#1117=IFCPROPERTYSINGLEVALUE('F\X2\00E4\X0\ste',$,IFCLABEL('Balksko mot b\X2\00E4\X0\rlina'),$);
#1118=IFCCARTESIANPOINT((0.,0.));
#1119=IFCAXIS2PLACEMENT2D(#1118,$);
#1120=IFCRECTANGLEPROFILEDEF(.AREA.,$,#1119,0.045,0.22);
#1121=IFCCARTESIANPOINT((0.,0.,0.));
#1122=IFCAXIS2PLACEMENT3D(#1121,$,$);
#1123=IFCDIRECTION((0.,0.,1.));
#1124=IFCEXTRUDEDAREASOLID(#1120,#1122,#1123,2.8000000000000003);
#1125=IFCSHAPEREPRESENTATION(#11,'Body','SweptSolid',(#1124));
#1126=IFCPRODUCTDEFINITIONSHAPE($,$,(#1125));
#1127=IFCSTYLEDITEM(#1124,(#19),'Tr\X2\00E4\X0\');
#1133=IFCCARTESIANPOINT((4.4435,0.21100000000000002,2.803711034275192));
#1134=IFCDIRECTION((0.,1.,0.));
#1135=IFCDIRECTION((1.,0.,0.));
#1136=IFCAXIS2PLACEMENT3D(#1133,#1134,#1135);
#1137=IFCLOCALPLACEMENT($,#1136);
#1138=IFCMEMBER('0ZhAT2M$b2Fu4rcNciACpF',$,'Distansbit 100 #8',$,$,#1161,#1150,$,.MEMBER.);
#1139=IFCPROPERTYSET('18QDt$hHLCQB83qZJUN5u4',$,'Stroo_Carport',$,(#1141));
#1140=IFCRELDEFINESBYPROPERTIES('154xdg0M5508byd75gL7WQ',$,$,$,(#1138),#1139);
#1141=IFCPROPERTYSINGLEVALUE('Funktion',$,IFCLABEL('Distansbit s600 mellan fasadpanel och b\X2\00E4\X0\rlina'),$);
#1142=IFCCARTESIANPOINT((0.,0.));
#1143=IFCAXIS2PLACEMENT2D(#1142,$);
#1144=IFCRECTANGLEPROFILEDEF(.AREA.,$,#1143,0.045,0.1);
#1145=IFCCARTESIANPOINT((0.,0.,0.));
#1146=IFCAXIS2PLACEMENT3D(#1145,$,$);
#1147=IFCDIRECTION((0.,0.,1.));
#1148=IFCEXTRUDEDAREASOLID(#1144,#1146,#1147,0.36);
#1149=IFCSHAPEREPRESENTATION(#11,'Body','SweptSolid',(#1148));
#1150=IFCPRODUCTDEFINITIONSHAPE($,$,(#1149));
#1151=IFCSTYLEDITEM(#1148,(#19),'Tr\X2\00E4\X0\');
#1157=IFCCARTESIANPOINT((4.4435,0.07100000000000001,2.649711034275192));
#1158=IFCDIRECTION((0.,0.,1.));
#1159=IFCDIRECTION((1.,0.,0.));
#1160=IFCAXIS2PLACEMENT3D(#1157,#1158,#1159);
#1161=IFCLOCALPLACEMENT($,#1160);
#1162=IFCMEMBER('0SHzoT0_f8dw6r$G2ln89z',$,'Distansbit 100 #8',$,$,#1185,#1174,$,.MEMBER.);
#1163=IFCPROPERTYSET('2K9RjgOkTAGxrG4lW6d93L',$,'Stroo_Carport',$,(#1165));
#1164=IFCRELDEFINESBYPROPERTIES('1syko8$j9DIhuuP7KoBREr',$,$,$,(#1162),#1163);
#1165=IFCPROPERTYSINGLEVALUE('Funktion',$,IFCLABEL('Distansbit s600 mellan fasadpanel och b\X2\00E4\X0\rlina'),$);
#1166=IFCCARTESIANPOINT((0.,0.));
#1167=IFCAXIS2PLACEMENT2D(#1166,$);
#1168=IFCRECTANGLEPROFILEDEF(.AREA.,$,#1167,0.045,0.1);
#1169=IFCCARTESIANPOINT((0.,0.,0.));
#1170=IFCAXIS2PLACEMENT3D(#1169,$,$);
#1171=IFCDIRECTION((0.,0.,1.));
#1172=IFCEXTRUDEDAREASOLID(#1168,#1170,#1171,0.36);
#1173=IFCSHAPEREPRESENTATION(#11,'Body','SweptSolid',(#1172));
#1174=IFCPRODUCTDEFINITIONSHAPE($,$,(#1173));
#1175=IFCSTYLEDITEM(#1172,(#19),'Tr\X2\00E4\X0\');
#1181=IFCCARTESIANPOINT((4.4435,3.151,2.649711034275192));
#1182=IFCDIRECTION((0.,0.,1.));
#1183=IFCDIRECTION((1.,0.,0.));
#1184=IFCAXIS2PLACEMENT3D(#1181,#1182,#1183);
#1185=IFCLOCALPLACEMENT($,#1184);
#1186=IFCBEAM('2xzWaCUU1FdOmxoq8keEuO',$,'Bj\X2\00E4\X0\lke 220x45 s600 #9',$,$,#1212,#1201,$,$);
#1187=IFCPROPERTYSET('0W6zXvsKjD7PLaEps5hdBQ',$,'Stroo_Carport',$,(#1189,#1190,#1191,#1192));
#1188=IFCRELDEFINESBYPROPERTIES('2XLeyaNRz2cQE3Kp67YTZI',$,$,$,(#1186),#1187);
#1189=IFCPROPERTYSINGLEVALUE('Dimension',$,IFCLABEL('45x220 mm'),$);
#1190=IFCPROPERTYSINGLEVALUE('H\X2\00E5\X0\llfasthetsklass',$,IFCLABEL('C30'),$);
#1191=IFCPROPERTYSINGLEVALUE('Centrumavst\X2\00E5\X0\nd',$,IFCLABEL('600 mm'),$);
#1192=IFCPROPERTYSINGLEVALUE('F\X2\00E4\X0\ste',$,IFCLABEL('Balksko mot b\X2\00E4\X0\rlina'),$);
#1193=IFCCARTESIANPOINT((0.,0.));
#1194=IFCAXIS2PLACEMENT2D(#1193,$);
#1195=IFCRECTANGLEPROFILEDEF(.AREA.,$,#1194,0.045,0.22);
#1196=IFCCARTESIANPOINT((0.,0.,0.));
#1197=IFCAXIS2PLACEMENT3D(#1196,$,$);
#1198=IFCDIRECTION((0.,0.,1.));
#1199=IFCEXTRUDEDAREASOLID(#1195,#1197,#1198,2.8000000000000003);
#1200=IFCSHAPEREPRESENTATION(#11,'Body','SweptSolid',(#1199));
#1201=IFCPRODUCTDEFINITIONSHAPE($,$,(#1200));
#1202=IFCSTYLEDITEM(#1199,(#19),'Tr\X2\00E4\X0\');
#1208=IFCCARTESIANPOINT((5.0545,0.21100000000000002,2.8517977771450336));
#1209=IFCDIRECTION((0.,1.,0.));
#1210=IFCDIRECTION((1.,0.,0.));
#1211=IFCAXIS2PLACEMENT3D(#1208,#1209,#1210);
#1212=IFCLOCALPLACEMENT($,#1211);
#1213=IFCMEMBER('0ND$kMpOT29u$xPSy9rtbh',$,'Distansbit 100 #9',$,$,#1236,#1225,$,.MEMBER.);
#1214=IFCPROPERTYSET('2M89Uo_j52QhV7ysASoMgc',$,'Stroo_Carport',$,(#1216));
#1215=IFCRELDEFINESBYPROPERTIES('3LH9n10brA5wsz1SRYYcMQ',$,$,$,(#1213),#1214);
#1216=IFCPROPERTYSINGLEVALUE('Funktion',$,IFCLABEL('Distansbit s600 mellan fasadpanel och b\X2\00E4\X0\rlina'),$);
#1217=IFCCARTESIANPOINT((0.,0.));
#1218=IFCAXIS2PLACEMENT2D(#1217,$);
#1219=IFCRECTANGLEPROFILEDEF(.AREA.,$,#1218,0.045,0.1);
#1220=IFCCARTESIANPOINT((0.,0.,0.));
#1221=IFCAXIS2PLACEMENT3D(#1220,$,$);
#1222=IFCDIRECTION((0.,0.,1.));
#1223=IFCEXTRUDEDAREASOLID(#1219,#1221,#1222,0.36);
#1224=IFCSHAPEREPRESENTATION(#11,'Body','SweptSolid',(#1223));
#1225=IFCPRODUCTDEFINITIONSHAPE($,$,(#1224));
#1226=IFCSTYLEDITEM(#1223,(#19),'Tr\X2\00E4\X0\');
#1232=IFCCARTESIANPOINT((5.0545,0.07100000000000001,2.6977977771450337));
#1233=IFCDIRECTION((0.,0.,1.));
#1234=IFCDIRECTION((1.,0.,0.));
#1235=IFCAXIS2PLACEMENT3D(#1232,#1233,#1234);
#1236=IFCLOCALPLACEMENT($,#1235);
#1237=IFCMEMBER('1bwako$JTDP8DB6BgQktgc',$,'Distansbit 100 #9',$,$,#1260,#1249,$,.MEMBER.);
#1238=IFCPROPERTYSET('0v5$wa1sj6oeUVHvMdHL7d',$,'Stroo_Carport',$,(#1240));
#1239=IFCRELDEFINESBYPROPERTIES('3g_dvPLFj3FwcHBwkn9Kdl',$,$,$,(#1237),#1238);
#1240=IFCPROPERTYSINGLEVALUE('Funktion',$,IFCLABEL('Distansbit s600 mellan fasadpanel och b\X2\00E4\X0\rlina'),$);
#1241=IFCCARTESIANPOINT((0.,0.));
#1242=IFCAXIS2PLACEMENT2D(#1241,$);
#1243=IFCRECTANGLEPROFILEDEF(.AREA.,$,#1242,0.045,0.1);
#1244=IFCCARTESIANPOINT((0.,0.,0.));
#1245=IFCAXIS2PLACEMENT3D(#1244,$,$);
#1246=IFCDIRECTION((0.,0.,1.));
#1247=IFCEXTRUDEDAREASOLID(#1243,#1245,#1246,0.36);
#1248=IFCSHAPEREPRESENTATION(#11,'Body','SweptSolid',(#1247));
#1249=IFCPRODUCTDEFINITIONSHAPE($,$,(#1248));
#1250=IFCSTYLEDITEM(#1247,(#19),'Tr\X2\00E4\X0\');
#1256=IFCCARTESIANPOINT((5.0545,3.151,2.6977977771450337));
#1257=IFCDIRECTION((0.,0.,1.));
#1258=IFCDIRECTION((1.,0.,0.));
#1259=IFCAXIS2PLACEMENT3D(#1256,#1257,#1258);
#1260=IFCLOCALPLACEMENT($,#1259);
#1261=IFCCOVERING('28jG0Ye0bCnBgjseqeB8zM',$,'Undertak ytterpanel 22 + b\X2\00E4\X0\rl\X2\00E4\X0\kt 22',$,$,#1292,#1281,$,.CEILING.);
#1262=IFCPROPERTYSET('2yBNqKD8H0z9kYlvur0glc',$,'Stroo_Carport',$,(#1264,#1265));
#1263=IFCRELDEFINESBYPROPERTIES('1OcKSz5B5FE9rS8K$qmymH',$,$,$,(#1261),#1262);
#1264=IFCPROPERTYSINGLEVALUE('Panel',$,IFCLABEL('Ytterpanel 22x70 s80'),$);
#1265=IFCPROPERTYSINGLEVALUE('B\X2\00E4\X0\rl\X2\00E4\X0\kt',$,IFCLABEL('22 mm s600'),$);
#1266=IFCMATERIALLAYERSET((#1268,#1270),'Undertak',$);
#1267=IFCMATERIAL('Ytterpanel 22x70',$,$);
#1268=IFCMATERIALLAYER(#1267,0.022,$,$,$,$,$);
#1269=IFCMATERIAL('B\X2\00E4\X0\rl\X2\00E4\X0\kt 22',$,$);
#1270=IFCMATERIALLAYER(#1269,0.022,$,$,$,$,$);
#1271=IFCMATERIALLAYERSETUSAGE(#1266,.AXIS3.,.POSITIVE.,0.,$);
#1272=IFCRELASSOCIATESMATERIAL('0NQKrirYH9qfmRS7pC2ML_',$,$,$,(#1261),#1271);
#1273=IFCCARTESIANPOINT((2.4355078579163,1.4000000000000001));
#1274=IFCAXIS2PLACEMENT2D(#1273,$);
#1275=IFCRECTANGLEPROFILEDEF(.AREA.,$,#1274,4.8710157158326,2.8000000000000003);
#1276=IFCCARTESIANPOINT((0.,0.,0.));
#1277=IFCAXIS2PLACEMENT3D(#1276,$,$);
#1278=IFCDIRECTION((0.,0.,1.));
#1279=IFCEXTRUDEDAREASOLID(#1275,#1277,#1278,0.044);
#1280=IFCSHAPEREPRESENTATION(#11,'Body','SweptSolid',(#1279));
#1281=IFCPRODUCTDEFINITIONSHAPE($,$,(#1280));
#1282=IFCSTYLEDITEM(#1279,(#25),'Ek, oljad');
#1288=IFCCARTESIANPOINT((0.221,0.21100000000000002,2.3173930772082403));
#1289=IFCDIRECTION((-0.07845909572784494,0.,0.996917333733128));
#1290=IFCDIRECTION((0.996917333733128,0.,0.07845909572784494));
#1291=IFCAXIS2PLACEMENT3D(#1288,#1289,#1290);
#1292=IFCLOCALPLACEMENT($,#1291);
#1293=IFCROOF('32g1rkWbP38ggQJ0fz$KsA',$,'Sedumtak',$,$,$,$,$,.FLAT_ROOF.);
#1294=IFCSLAB('1ruorYftPE1R92cx64w3yH',$,'Sedumtak, uppbyggnad',$,$,#1331,#1314,$,.ROOF.);
#1295=IFCPROPERTYSET('3qWhElQS18YAY8V8A1zwtg',$,'Stroo_Carport',$,(#1297,#1298));
#1296=IFCRELDEFINESBYPROPERTIES('1jxwmooanEQPWeHb19Or$I',$,$,$,(#1294),#1295);
#1297=IFCPROPERTYSINGLEVALUE('Utf\X2\00F6\X0\rande',$,IFCLABEL('Sedumtak enl. leverant\X2\00F6\X0\rens anvisning'),$);
#1298=IFCPROPERTYSINGLEVALUE('Fall',$,IFCLABEL('Mot stupr\X2\00F6\X0\r i nedre \X2\00E4\X0\nden (mot huset)'),$);
#1299=IFCMATERIALLAYERSET((#1301,#1303),'Sedumtak',$);
#1300=IFCMATERIAL('Plywood 21',$,$);
#1301=IFCMATERIALLAYER(#1300,0.021,$,$,$,$,$);
#1302=IFCMATERIAL('Sedumtak 90',$,$);
#1303=IFCMATERIALLAYER(#1302,0.09,$,$,$,$,$);
#1304=IFCMATERIALLAYERSETUSAGE(#1299,.AXIS3.,.POSITIVE.,0.,$);
#1305=IFCRELASSOCIATESMATERIAL('3MnXJ26xXBqfyBimroM5$u',$,$,$,(#1294),#1304);
#1306=IFCCARTESIANPOINT((2.4355078579163,1.4000000000000001));
#1307=IFCAXIS2PLACEMENT2D(#1306,$);
#1308=IFCRECTANGLEPROFILEDEF(.AREA.,$,#1307,4.8710157158326,2.8000000000000003);
#1309=IFCCARTESIANPOINT((0.,0.,0.));
#1310=IFCAXIS2PLACEMENT3D(#1309,$,$);
#1311=IFCDIRECTION((0.,0.,1.));
#1312=IFCEXTRUDEDAREASOLID(#1308,#1310,#1311,0.111);
#1313=IFCSHAPEREPRESENTATION(#11,'Body','SweptSolid',(#1312));
#1314=IFCPRODUCTDEFINITIONSHAPE($,$,(#1313));
#1315=IFCSTYLEDITEM(#1312,(#31),'Sedum');
#1326=IFCRELAGGREGATES('2a07vjqrH9N8Q2NFzMCxi4',$,$,$,#1293,(#1294));
#1327=IFCCARTESIANPOINT((0.221,0.21100000000000002,2.5813930772082405));
#1328=IFCDIRECTION((-0.07845909572784494,0.,0.996917333733128));
#1329=IFCDIRECTION((0.996917333733128,0.,0.07845909572784494));
#1330=IFCAXIS2PLACEMENT3D(#1327,#1328,#1329);
#1331=IFCLOCALPLACEMENT($,#1330);
#1332=IFCWALL('2BF4bI_erAe99gC82tNqV$',$,'Fasadpanel s\X2\00F6\X0\der',$,$,#1372,#1361,$,$);
#1333=IFCMATERIAL('S\X2\00E5\X0\gad ek, oljad',$,$);
#1334=IFCRELASSOCIATESMATERIAL('23dVmipuH1CBZhp_ZIuVqo',$,$,$,(#1332,#1449,#1377,#1420),#1333);
#1335=IFCPROPERTYSET('3$MZ_rR0r22QkUGLDDBXbl',$,'Stroo_Carport',$,(#1337,#1338));
#1336=IFCRELDEFINESBYPROPERTIES('2$macmuT94_Bmqa8l1tSQ2',$,$,$,(#1332),#1335);
#1337=IFCPROPERTYSINGLEVALUE('Bekl\X2\00E4\X0\dnad',$,IFCLABEL('S\X2\00E5\X0\gad ek. Oljas in.'),$);
#1338=IFCPROPERTYSINGLEVALUE('H\X2\00F6\X0\jd',$,IFCLABEL('440 mm'),$);
#1339=IFCCARTESIANPOINT((2.449,0.0105));
#1340=IFCAXIS2PLACEMENT2D(#1339,$);
#1341=IFCRECTANGLEPROFILEDEF(.AREA.,$,#1340,4.898,0.021);
#1342=IFCCARTESIANPOINT((0.,0.,0.));
#1343=IFCAXIS2PLACEMENT3D(#1342,$,$);
#1344=IFCDIRECTION((0.,0.,1.));
#1345=IFCEXTRUDEDAREASOLID(#1341,#1343,#1344,0.8754809600269811);
#1346=IFCCARTESIANPOINT((0.,0.,0.));
#1347=IFCDIRECTION((-0.07845909572784494,0.,0.996917333733128));
#1348=IFCDIRECTION((0.996917333733128,0.,0.07845909572784494));
#1349=IFCAXIS2PLACEMENT3D(#1346,#1347,#1348);
#1350=IFCPLANE(#1349);
#1351=IFCHALFSPACESOLID(#1350,.T.);
#1352=IFCBOOLEANCLIPPINGRESULT(.DIFFERENCE.,#1345,#1351);
#1353=IFCCARTESIANPOINT((0.,0.,0.44));
#1354=IFCDIRECTION((-0.07845909572784494,0.,0.996917333733128));
#1355=IFCDIRECTION((0.996917333733128,0.,0.07845909572784494));
#1356=IFCAXIS2PLACEMENT3D(#1353,#1354,#1355);
#1357=IFCPLANE(#1356);
#1358=IFCHALFSPACESOLID(#1357,.F.);
#1359=IFCBOOLEANCLIPPINGRESULT(.DIFFERENCE.,#1352,#1358);
#1360=IFCSHAPEREPRESENTATION(#11,'Body','Clipping',(#1359));
#1361=IFCPRODUCTDEFINITIONSHAPE($,$,(#1360));
#1362=IFCSTYLEDITEM(#1359,(#25),'Ek, oljad');
#1368=IFCCARTESIANPOINT((0.2,0.,2.2907403413649234));
#1369=IFCDIRECTION((0.,0.,1.));
#1370=IFCDIRECTION((1.,0.,0.));
#1371=IFCAXIS2PLACEMENT3D(#1368,#1369,#1370);
#1372=IFCLOCALPLACEMENT($,#1371);
#1373=IFCPROPERTYSET('2OqZGw0Dn0EAKo24ae3Vfi',$,'Pset_WallCommon',$,(#1375,#1376));
#1374=IFCRELDEFINESBYPROPERTIES('2fJrSnTpP7nxFGnTavYyzL',$,$,$,(#1332),#1373);
#1375=IFCPROPERTYSINGLEVALUE('IsExternal',$,IFCBOOLEAN(.T.),$);
#1376=IFCPROPERTYSINGLEVALUE('LoadBearing',$,IFCBOOLEAN(.F.),$);
#1377=IFCWALL('0GgtxQ2M55_RM$3tY__Ls6',$,'Fasadpanel norr',$,$,#1415,#1404,$,$);
#1378=IFCPROPERTYSET('2FfsqCLNrAufLAVFQ4qF5S',$,'Stroo_Carport',$,(#1380,#1381));
#1379=IFCRELDEFINESBYPROPERTIES('2QDtb3eLLF0BxAn1ElxDCs',$,$,$,(#1377),#1378);
#1380=IFCPROPERTYSINGLEVALUE('Bekl\X2\00E4\X0\dnad',$,IFCLABEL('S\X2\00E5\X0\gad ek. Oljas in.'),$);
#1381=IFCPROPERTYSINGLEVALUE('H\X2\00F6\X0\jd',$,IFCLABEL('440 mm'),$);
#1382=IFCCARTESIANPOINT((2.449,0.0105));
#1383=IFCAXIS2PLACEMENT2D(#1382,$);
#1384=IFCRECTANGLEPROFILEDEF(.AREA.,$,#1383,4.898,0.021);
#1385=IFCCARTESIANPOINT((0.,0.,0.));
#1386=IFCAXIS2PLACEMENT3D(#1385,$,$);
#1387=IFCDIRECTION((0.,0.,1.));
#1388=IFCEXTRUDEDAREASOLID(#1384,#1386,#1387,0.8754809600269811);
#1389=IFCCARTESIANPOINT((0.,0.,0.));
#1390=IFCDIRECTION((-0.07845909572784494,0.,0.996917333733128));
#1391=IFCDIRECTION((0.996917333733128,0.,0.07845909572784494));
#1392=IFCAXIS2PLACEMENT3D(#1389,#1390,#1391);
#1393=IFCPLANE(#1392);
#1394=IFCHALFSPACESOLID(#1393,.T.);
#1395=IFCBOOLEANCLIPPINGRESULT(.DIFFERENCE.,#1388,#1394);
#1396=IFCCARTESIANPOINT((0.,0.,0.44));
#1397=IFCDIRECTION((-0.07845909572784494,0.,0.996917333733128));
#1398=IFCDIRECTION((0.996917333733128,0.,0.07845909572784494));
#1399=IFCAXIS2PLACEMENT3D(#1396,#1397,#1398);
#1400=IFCPLANE(#1399);
#1401=IFCHALFSPACESOLID(#1400,.F.);
#1402=IFCBOOLEANCLIPPINGRESULT(.DIFFERENCE.,#1395,#1401);
#1403=IFCSHAPEREPRESENTATION(#11,'Body','Clipping',(#1402));
#1404=IFCPRODUCTDEFINITIONSHAPE($,$,(#1403));
#1405=IFCSTYLEDITEM(#1402,(#25),'Ek, oljad');
#1411=IFCCARTESIANPOINT((0.2,3.201,2.2907403413649234));
#1412=IFCDIRECTION((0.,0.,1.));
#1413=IFCDIRECTION((1.,0.,0.));
#1414=IFCAXIS2PLACEMENT3D(#1411,#1412,#1413);
#1415=IFCLOCALPLACEMENT($,#1414);
#1416=IFCPROPERTYSET('3bQUNhaQv60v7_Toi6NtQZ',$,'Pset_WallCommon',$,(#1418,#1419));
#1417=IFCRELDEFINESBYPROPERTIES('0ZFDJFiRr9ffpCOyyPfRFq',$,$,$,(#1377),#1416);
#1418=IFCPROPERTYSINGLEVALUE('IsExternal',$,IFCBOOLEAN(.T.),$);
#1419=IFCPROPERTYSINGLEVALUE('LoadBearing',$,IFCBOOLEAN(.F.),$);
#1420=IFCWALL('0kwvmc_dL4XwGPf9tQ4cNC',$,'Fasadpanel v\X2\00E4\X0\stra gaveln',$,$,#1444,#1433,$,$);
#1421=IFCPROPERTYSET('3Wax_4KHfD9Ow1YPkskNxX',$,'Stroo_Carport',$,(#1423,#1424));
#1422=IFCRELDEFINESBYPROPERTIES('2HAf8vg9n319$lFi3PH7bX',$,$,$,(#1420),#1421);
#1423=IFCPROPERTYSINGLEVALUE('Bekl\X2\00E4\X0\dnad',$,IFCLABEL('S\X2\00E5\X0\gad ek. Oljas in.'),$);
#1424=IFCPROPERTYSINGLEVALUE('H\X2\00F6\X0\jd',$,IFCLABEL('440 mm'),$);
#1425=IFCCARTESIANPOINT((0.0105,1.59));
#1426=IFCAXIS2PLACEMENT2D(#1425,$);
#1427=IFCRECTANGLEPROFILEDEF(.AREA.,$,#1426,0.021,3.18);
#1428=IFCCARTESIANPOINT((0.,0.,0.));
#1429=IFCAXIS2PLACEMENT3D(#1428,$,$);
#1430=IFCDIRECTION((0.,0.,1.));
#1431=IFCEXTRUDEDAREASOLID(#1427,#1429,#1430,0.44);
#1432=IFCSHAPEREPRESENTATION(#11,'Body','SweptSolid',(#1431));
#1433=IFCPRODUCTDEFINITIONSHAPE($,$,(#1432));
#1434=IFCSTYLEDITEM(#1431,(#25),'Ek, oljad');
#1440=IFCCARTESIANPOINT((0.2,0.021,2.2907403413649234));
#1441=IFCDIRECTION((0.,0.,1.));
#1442=IFCDIRECTION((1.,0.,0.));
#1443=IFCAXIS2PLACEMENT3D(#1440,#1441,#1442);
#1444=IFCLOCALPLACEMENT($,#1443);
#1445=IFCPROPERTYSET('10QPZVY35Fnx0lB$Ddy0O1',$,'Pset_WallCommon',$,(#1447,#1448));
#1446=IFCRELDEFINESBYPROPERTIES('17PIjBnBz1wxJNyv3uUzoS',$,$,$,(#1420),#1445);
#1447=IFCPROPERTYSINGLEVALUE('IsExternal',$,IFCBOOLEAN(.T.),$);
#1448=IFCPROPERTYSINGLEVALUE('LoadBearing',$,IFCBOOLEAN(.F.),$);
#1449=IFCWALL('3EXKWzsjz2kAlMsgMuJh_3',$,'Fasadpanel \X2\00F6\X0\stra gaveln',$,$,#1473,#1462,$,$);
#1450=IFCPROPERTYSET('1a5gL4nqnAGRTn3pqGDlLc',$,'Stroo_Carport',$,(#1452,#1453));
#1451=IFCRELDEFINESBYPROPERTIES('3vRw7yOwP10e23OaDkki9I',$,$,$,(#1449),#1450);
#1452=IFCPROPERTYSINGLEVALUE('Bekl\X2\00E4\X0\dnad',$,IFCLABEL('S\X2\00E5\X0\gad ek. Oljas in.'),$);
#1453=IFCPROPERTYSINGLEVALUE('H\X2\00F6\X0\jd',$,IFCLABEL('440 mm'),$);
#1454=IFCCARTESIANPOINT((0.0105,1.59));
#1455=IFCAXIS2PLACEMENT2D(#1454,$);
#1456=IFCRECTANGLEPROFILEDEF(.AREA.,$,#1455,0.021,3.18);
#1457=IFCCARTESIANPOINT((0.,0.,0.));
#1458=IFCAXIS2PLACEMENT3D(#1457,$,$);
#1459=IFCDIRECTION((0.,0.,1.));
#1460=IFCEXTRUDEDAREASOLID(#1456,#1458,#1459,0.44);
#1461=IFCSHAPEREPRESENTATION(#11,'Body','SweptSolid',(#1460));
#1462=IFCPRODUCTDEFINITIONSHAPE($,$,(#1461));
#1463=IFCSTYLEDITEM(#1460,(#25),'Ek, oljad');
#1469=IFCCARTESIANPOINT((5.077,0.021,2.674568565548588));
#1470=IFCDIRECTION((0.,0.,1.));
#1471=IFCDIRECTION((1.,0.,0.));
#1472=IFCAXIS2PLACEMENT3D(#1469,#1470,#1471);
#1473=IFCLOCALPLACEMENT($,#1472);
#1474=IFCPROPERTYSET('0gCitEbBn99PF5uTgaTH5I',$,'Pset_WallCommon',$,(#1476,#1477));
#1475=IFCRELDEFINESBYPROPERTIES('1Q_ZUzaFDE$QoqV4VTCTHW',$,$,$,(#1449),#1474);
#1476=IFCPROPERTYSINGLEVALUE('IsExternal',$,IFCBOOLEAN(.T.),$);
#1477=IFCPROPERTYSINGLEVALUE('LoadBearing',$,IFCBOOLEAN(.F.),$);
#1478=IFCPIPESEGMENT('2idWib7n9688MxzC6nRhcX',$,'Integrerat stupr\X2\00F6\X0\r',$,$,#1503,#1492,$,.RIGIDSEGMENT.);
#1479=IFCMATERIAL('Pl\X2\00E5\X0\t',$,$);
#1480=IFCRELASSOCIATESMATERIAL('08W$fbWTvCLQVNUR_8cnqI',$,$,$,(#1478),#1479);
#1481=IFCPROPERTYSET('0KGzsOz2H0V8MN4kzVSpwm',$,'Stroo_Carport',$,(#1483));
#1482=IFCRELDEFINESBYPROPERTIES('1U8uGcY7f1IAELe_chqGot',$,$,$,(#1478),#1481);
#1483=IFCPROPERTYSINGLEVALUE('Placering',$,IFCLABEL('Dolt bakom pelare, dr\X2\00E4\X0\nering mot stenkista'),$);
#1484=IFCCARTESIANPOINT((0.,0.));
#1485=IFCAXIS2PLACEMENT2D(#1484,$);
#1486=IFCCIRCLEPROFILEDEF(.AREA.,$,#1485,0.03);
#1487=IFCCARTESIANPOINT((0.,0.,0.));
#1488=IFCAXIS2PLACEMENT3D(#1487,$,$);
#1489=IFCDIRECTION((0.,0.,1.));
#1490=IFCEXTRUDEDAREASOLID(#1486,#1488,#1489,2.4);
#1491=IFCSHAPEREPRESENTATION(#11,'Body','SweptSolid',(#1490));
#1492=IFCPRODUCTDEFINITIONSHAPE($,$,(#1491));
#1493=IFCSTYLEDITEM(#1490,(#43),'Pl\X2\00E5\X0\t');
#1499=IFCCARTESIANPOINT((0.479,0.166,0.03769811756899223));
#1500=IFCDIRECTION((0.,0.,1.));
#1501=IFCDIRECTION((1.,0.,0.));
#1502=IFCAXIS2PLACEMENT3D(#1499,#1500,#1501);
#1503=IFCLOCALPLACEMENT($,#1502);
#1504=IFCSLAB('2SUeYZ3sT2qRMX3M9UhXSC',$,'Stenkista',$,$,#1530,#1519,$,.BASESLAB.);
#1505=IFCMATERIAL('Makadam',$,$);
#1506=IFCRELASSOCIATESMATERIAL('2ufFSwNi18XRF628f4FQkp',$,$,$,(#1504),#1505);
#1507=IFCPROPERTYSET('2vcGtAnBj5zRVVBmGHIrIO',$,'Stroo_Carport',$,(#1509,#1510));
#1508=IFCRELDEFINESBYPROPERTIES('0gJfd4qTj4gPGHlWxssxL3',$,$,$,(#1504),#1507);
#1509=IFCPROPERTYSINGLEVALUE('Bredd',$,IFCLABEL('600 mm (A-40-1-100)'),$);
#1510=IFCPROPERTYSINGLEVALUE('L\X2\00E4\X0\ngd och djup',$,IFCLABEL('1000 x 600 mm, antagna'),$);
#1511=IFCCARTESIANPOINT((0.3,0.5));
#1512=IFCAXIS2PLACEMENT2D(#1511,$);
#1513=IFCRECTANGLEPROFILEDEF(.AREA.,$,#1512,0.6,1.);
#1514=IFCCARTESIANPOINT((0.,0.,0.));
#1515=IFCAXIS2PLACEMENT3D(#1514,$,$);
#1516=IFCDIRECTION((0.,0.,1.));
#1517=IFCEXTRUDEDAREASOLID(#1513,#1515,#1516,0.6);
#1518=IFCSHAPEREPRESENTATION(#11,'Body','SweptSolid',(#1517));
#1519=IFCPRODUCTDEFINITIONSHAPE($,$,(#1518));
#1520=IFCSTYLEDITEM(#1517,(#34),'Makadam');
#1526=IFCCARTESIANPOINT((0.,-0.9,-0.5763894879526145));
#1527=IFCDIRECTION((0.,0.,1.));
#1528=IFCDIRECTION((1.,0.,0.));
#1529=IFCAXIS2PLACEMENT3D(#1526,#1527,#1528);
#1530=IFCLOCALPLACEMENT($,#1529);
#1531=IFCCARTESIANPOINT((0.3,0.5));
#1532=IFCAXIS2PLACEMENT2D(#1531,$);
#1533=IFCRECTANGLEPROFILEDEF(.AREA.,$,#1532,0.6,1.);
#1534=IFCCARTESIANPOINT((0.,-0.9,-0.5763894879526145));
#1535=IFCAXIS2PLACEMENT3D(#1534,$,$);
#1536=IFCDIRECTION((0.,0.,1.));
#1537=IFCEXTRUDEDAREASOLID(#1533,#1535,#1536,0.6);
#1538=IFCSLAB('1IzZ8oUVv9QuFnqNlBCN1f',$,'Mark, plan',$,$,#1563,#1552,$,.BASESLAB.);
#1539=IFCMATERIAL('Jord',$,$);
#1540=IFCRELASSOCIATESMATERIAL('3aYmklAXr24RLj04Qu9PgH',$,$,$,(#1538,#1564),#1539);
#1541=IFCPROPERTYSET('2CWpHU$FLAWuVPYtoylwlp',$,'Stroo_Mark',$,(#1543));
#1542=IFCRELDEFINESBYPROPERTIES('3JahiZcX52Ih$NtRSK52hl',$,$,$,(#1538),#1541);
#1543=IFCPROPERTYSINGLEVALUE('Not',$,IFCLABEL('Plan mark runt huset (z=0)'),$);
#1544=IFCCARTESIANPOINT((6.5,11.));
#1545=IFCAXIS2PLACEMENT2D(#1544,$);
#1546=IFCRECTANGLEPROFILEDEF(.AREA.,$,#1545,13.,22.);
#1547=IFCCARTESIANPOINT((-13.,-10.,-1.));
#1548=IFCAXIS2PLACEMENT3D(#1547,$,$);
#1549=IFCDIRECTION((0.,0.,1.));
#1550=IFCEXTRUDEDAREASOLID(#1546,#1548,#1549,1.);
#1551=IFCSHAPEREPRESENTATION(#11,'Body','SweptSolid',(#1550));
#1552=IFCPRODUCTDEFINITIONSHAPE($,$,(#1551));
#1553=IFCSTYLEDITEM(#1550,(#37),'Jord');
#1559=IFCCARTESIANPOINT((0.,0.,0.));
#1560=IFCDIRECTION((0.,0.,1.));
#1561=IFCDIRECTION((1.,0.,0.));
#1562=IFCAXIS2PLACEMENT3D(#1559,#1560,#1561);
#1563=IFCLOCALPLACEMENT($,#1562);
#1564=IFCSLAB('1TVn9AvB95M8FEPc8eUkN9',$,'Mark, ramp',$,$,#1604,#1593,$,.BASESLAB.);
#1565=IFCPROPERTYSET('1h0vAzK0jBkh3HHzQKOSzf',$,'Stroo_Mark',$,(#1567,#1568));
#1566=IFCRELDEFINESBYPROPERTIES('30ZeUifTj1_Q2qCimTM_ga',$,$,$,(#1564),#1565);
#1567=IFCPROPERTYSINGLEVALUE('Fall',$,IFCLABEL('4,5 grader stigande \X2\00F6\X0\sterut (ramp mot k\X2\00E4\X0\llard\X2\00F6\X0\rr)'),$);
#1568=IFCPROPERTYSINGLEVALUE('Urgr\X2\00F6\X0\pningar',$,IFCLABEL('Betongplintar och stenkista (boolesk differens)'),$);
#1569=IFCCARTESIANPOINT((2.9565,11.));
#1570=IFCAXIS2PLACEMENT2D(#1569,$);
#1571=IFCRECTANGLEPROFILEDEF(.AREA.,$,#1570,5.913,22.);
#1572=IFCCARTESIANPOINT((0.,-10.,-1.));
#1573=IFCAXIS2PLACEMENT3D(#1572,$,$);
#1574=IFCDIRECTION((0.,0.,1.));
#1575=IFCEXTRUDEDAREASOLID(#1571,#1573,#1574,1.5653631924539688);
#1576=IFCCARTESIANPOINT((0.,0.,0.));
#1577=IFCDIRECTION((-0.07845909572784494,0.,0.996917333733128));
#1578=IFCDIRECTION((0.996917333733128,0.,0.07845909572784494));
#1579=IFCAXIS2PLACEMENT3D(#1576,#1577,#1578);
#1580=IFCPLANE(#1579);
#1581=IFCHALFSPACESOLID(#1580,.F.);
#1582=IFCBOOLEANCLIPPINGRESULT(.DIFFERENCE.,#1575,#1581);
#1583=IFCBOOLEANRESULT(.DIFFERENCE.,#1582,#91);
#1584=IFCBOOLEANRESULT(.DIFFERENCE.,#1583,#98);
#1585=IFCBOOLEANRESULT(.DIFFERENCE.,#1584,#214);
#1586=IFCBOOLEANRESULT(.DIFFERENCE.,#1585,#221);
#1587=IFCBOOLEANRESULT(.DIFFERENCE.,#1586,#333);
#1588=IFCBOOLEANRESULT(.DIFFERENCE.,#1587,#340);
#1589=IFCBOOLEANRESULT(.DIFFERENCE.,#1588,#452);
#1590=IFCBOOLEANRESULT(.DIFFERENCE.,#1589,#459);
#1591=IFCBOOLEANRESULT(.DIFFERENCE.,#1590,#1537);
#1592=IFCSHAPEREPRESENTATION(#11,'Body','CSG',(#1591));
#1593=IFCPRODUCTDEFINITIONSHAPE($,$,(#1592));
#1594=IFCSTYLEDITEM(#1591,(#37),'Jord');
#1600=IFCCARTESIANPOINT((0.,0.,0.));
#1601=IFCDIRECTION((0.,0.,1.));
#1602=IFCDIRECTION((1.,0.,0.));
#1603=IFCAXIS2PLACEMENT3D(#1600,#1601,#1602);
#1604=IFCLOCALPLACEMENT($,#1603);
#1605=IFCWALL('2BIunKuzH4DxeXgVYzZy5w',$,'Befintlig \X2\00F6\X0\stfasad',$,$,#1630,#1619,$,$);
#1606=IFCMATERIAL('Puts p\X2\00E5\X0\ b\X2\00E4\X0\rande v\X2\00E4\X0\gg (f\X2\00F6\X0\renklad)',$,$);
#1607=IFCRELASSOCIATESMATERIAL('3QJ4exw297RAK5F$cVPAgG',$,$,$,(#1605,#1635,#1663,#1691,#1719,#1747),#1606);
#1608=IFCPROPERTYSET('3f$pR3senEwBWAPgcG_Izq',$,'Stroo_Befintlig',$,(#1610));
#1609=IFCRELDEFINESBYPROPERTIES('2a5C67oAH84wWonue9Y0Bj',$,$,$,(#1605),#1608);
#1610=IFCPROPERTYSINGLEVALUE('Status',$,IFCLABEL('Befintlig, f\X2\00F6\X0\renklad (inga \X2\00F6\X0\ppningar/tak). H\X2\00F6\X0\jd antagen.'),$);
#1611=IFCCARTESIANPOINT((0.175,6.615));
#1612=IFCAXIS2PLACEMENT2D(#1611,$);
#1613=IFCRECTANGLEPROFILEDEF(.AREA.,$,#1612,0.35,13.23);
#1614=IFCCARTESIANPOINT((0.,0.,0.));
#1615=IFCAXIS2PLACEMENT3D(#1614,$,$);
#1616=IFCDIRECTION((0.,0.,1.));
#1617=IFCEXTRUDEDAREASOLID(#1613,#1615,#1616,5.);
#1618=IFCSHAPEREPRESENTATION(#11,'Body','SweptSolid',(#1617));
#1619=IFCPRODUCTDEFINITIONSHAPE($,$,(#1618));
#1620=IFCSTYLEDITEM(#1617,(#40),'Puts');
#1626=IFCCARTESIANPOINT((-0.35,-3.79,0.));
#1627=IFCDIRECTION((0.,0.,1.));
#1628=IFCDIRECTION((1.,0.,0.));
#1629=IFCAXIS2PLACEMENT3D(#1626,#1627,#1628);
#1630=IFCLOCALPLACEMENT($,#1629);
#1631=IFCPROPERTYSET('1LjTUDGOX8qf17gEVGAISK',$,'Pset_WallCommon',$,(#1633,#1634));
#1632=IFCRELDEFINESBYPROPERTIES('2h6aNdLtz94PLYIl2g8W85',$,$,$,(#1605),#1631);
#1633=IFCPROPERTYSINGLEVALUE('IsExternal',$,IFCBOOLEAN(.T.),$);
#1634=IFCPROPERTYSINGLEVALUE('LoadBearing',$,IFCBOOLEAN(.T.),$);
#1635=IFCWALL('2OjAwIXN1EhOBv6_IXdatc',$,'Befintlig sydfasad',$,$,#1658,#1647,$,$);
#1636=IFCPROPERTYSET('32$lpJpyfE$gOGVYeo7Ggz',$,'Stroo_Befintlig',$,(#1638));
#1637=IFCRELDEFINESBYPROPERTIES('0Po6u6Yun2BeI4nLS6UWHs',$,$,$,(#1635),#1636);
#1638=IFCPROPERTYSINGLEVALUE('Status',$,IFCLABEL('Befintlig, f\X2\00F6\X0\renklad (inga \X2\00F6\X0\ppningar/tak). H\X2\00F6\X0\jd antagen.'),$);
#1639=IFCCARTESIANPOINT((5.305000000000001,0.17500000000000004));
#1640=IFCAXIS2PLACEMENT2D(#1639,$);
#1641=IFCRECTANGLEPROFILEDEF(.AREA.,$,#1640,10.610000000000001,0.3500000000000001);
#1642=IFCCARTESIANPOINT((0.,0.,0.));
#1643=IFCAXIS2PLACEMENT3D(#1642,$,$);
#1644=IFCDIRECTION((0.,0.,1.));
#1645=IFCEXTRUDEDAREASOLID(#1641,#1643,#1644,5.);
#1646=IFCSHAPEREPRESENTATION(#11,'Body','SweptSolid',(#1645));
#1647=IFCPRODUCTDEFINITIONSHAPE($,$,(#1646));
#1648=IFCSTYLEDITEM(#1645,(#40),'Puts');
#1654=IFCCARTESIANPOINT((-10.96,-3.79,0.));
#1655=IFCDIRECTION((0.,0.,1.));
#1656=IFCDIRECTION((1.,0.,0.));
#1657=IFCAXIS2PLACEMENT3D(#1654,#1655,#1656);
#1658=IFCLOCALPLACEMENT($,#1657);
#1659=IFCPROPERTYSET('1JATryp3PDHfe8RZhCCHqY',$,'Pset_WallCommon',$,(#1661,#1662));
#1660=IFCRELDEFINESBYPROPERTIES('29$1dH0_b9Y9Lqrh$GaZza',$,$,$,(#1635),#1659);
#1661=IFCPROPERTYSINGLEVALUE('IsExternal',$,IFCBOOLEAN(.T.),$);
#1662=IFCPROPERTYSINGLEVALUE('LoadBearing',$,IFCBOOLEAN(.T.),$);
#1663=IFCWALL('3A1jdnKbLDmQ9FMOtIl0KZ',$,'Befintlig v\X2\00E4\X0\stfasad',$,$,#1686,#1675,$,$);
#1664=IFCPROPERTYSET('30kI__KdzEN83oWIw7ia_o',$,'Stroo_Befintlig',$,(#1666));
#1665=IFCRELDEFINESBYPROPERTIES('3Qp7PM2ej0dfEC5hK4sWGn',$,$,$,(#1663),#1664);
#1666=IFCPROPERTYSINGLEVALUE('Status',$,IFCLABEL('Befintlig, f\X2\00F6\X0\renklad (inga \X2\00F6\X0\ppningar/tak). H\X2\00F6\X0\jd antagen.'),$);
#1667=IFCCARTESIANPOINT((0.17499999999999982,3.615));
#1668=IFCAXIS2PLACEMENT2D(#1667,$);
#1669=IFCRECTANGLEPROFILEDEF(.AREA.,$,#1668,0.34999999999999964,7.23);
#1670=IFCCARTESIANPOINT((0.,0.,0.));
#1671=IFCAXIS2PLACEMENT3D(#1670,$,$);
#1672=IFCDIRECTION((0.,0.,1.));
#1673=IFCEXTRUDEDAREASOLID(#1669,#1671,#1672,5.);
#1674=IFCSHAPEREPRESENTATION(#11,'Body','SweptSolid',(#1673));
#1675=IFCPRODUCTDEFINITIONSHAPE($,$,(#1674));
#1676=IFCSTYLEDITEM(#1673,(#40),'Puts');
#1682=IFCCARTESIANPOINT((-10.96,-3.44,0.));
#1683=IFCDIRECTION((0.,0.,1.));
#1684=IFCDIRECTION((1.,0.,0.));
#1685=IFCAXIS2PLACEMENT3D(#1682,#1683,#1684);
#1686=IFCLOCALPLACEMENT($,#1685);
#1687=IFCPROPERTYSET('0YEMGJi1T3PxnQyVYhx$0r',$,'Pset_WallCommon',$,(#1689,#1690));
#1688=IFCRELDEFINESBYPROPERTIES('23MVq2Vnj2Gx_xxNxPvCu8',$,$,$,(#1663),#1687);
#1689=IFCPROPERTYSINGLEVALUE('IsExternal',$,IFCBOOLEAN(.T.),$);
#1690=IFCPROPERTYSINGLEVALUE('LoadBearing',$,IFCBOOLEAN(.T.),$);
#1691=IFCWALL('3NTfWbSGvErempUyPvD9YK',$,'Befintlig nordv\X2\00E4\X0\gg, v\X2\00E4\X0\stra delen',$,$,#1714,#1703,$,$);
#1692=IFCPROPERTYSET('0UYFfQQ8z3JODHOmfosepP',$,'Stroo_Befintlig',$,(#1694));
#1693=IFCRELDEFINESBYPROPERTIES('0xUzQruCf6P8UpI1bNWy4f',$,$,$,(#1691),#1692);
#1694=IFCPROPERTYSINGLEVALUE('Status',$,IFCLABEL('Befintlig, f\X2\00F6\X0\renklad (inga \X2\00F6\X0\ppningar/tak). H\X2\00F6\X0\jd antagen.'),$);
#1695=IFCCARTESIANPOINT((2.6800000000000006,0.17500000000000004));
#1696=IFCAXIS2PLACEMENT2D(#1695,$);
#1697=IFCRECTANGLEPROFILEDEF(.AREA.,$,#1696,5.360000000000001,0.3500000000000001);
#1698=IFCCARTESIANPOINT((0.,0.,0.));
#1699=IFCAXIS2PLACEMENT3D(#1698,$,$);
#1700=IFCDIRECTION((0.,0.,1.));
#1701=IFCEXTRUDEDAREASOLID(#1697,#1699,#1700,5.);
#1702=IFCSHAPEREPRESENTATION(#11,'Body','SweptSolid',(#1701));
#1703=IFCPRODUCTDEFINITIONSHAPE($,$,(#1702));
#1704=IFCSTYLEDITEM(#1701,(#40),'Puts');
#1710=IFCCARTESIANPOINT((-10.610000000000001,3.44,0.));
#1711=IFCDIRECTION((0.,0.,1.));
#1712=IFCDIRECTION((1.,0.,0.));
#1713=IFCAXIS2PLACEMENT3D(#1710,#1711,#1712);
#1714=IFCLOCALPLACEMENT($,#1713);
#1715=IFCPROPERTYSET('3MTzVig7D5FQr9SeUbm8vM',$,'Pset_WallCommon',$,(#1717,#1718));
#1716=IFCRELDEFINESBYPROPERTIES('1lziaoSc1FkAfMlOmQPAZG',$,$,$,(#1691),#1715);
#1717=IFCPROPERTYSINGLEVALUE('IsExternal',$,IFCBOOLEAN(.T.),$);
#1718=IFCPROPERTYSINGLEVALUE('LoadBearing',$,IFCBOOLEAN(.T.),$);
#1719=IFCWALL('1K8YPdHoj4_9brTJONrpp0',$,'Befintlig v\X2\00E4\X0\stv\X2\00E4\X0\gg, \X2\00F6\X0\stra flygeln',$,$,#1742,#1731,$,$);
#1720=IFCPROPERTYSET('3W3XvWqQPBXw8OiSqaD$26',$,'Stroo_Befintlig',$,(#1722));
#1721=IFCRELDEFINESBYPROPERTIES('2Z$pAKGqX0h8xgtXDiSBfM',$,$,$,(#1719),#1720);
#1722=IFCPROPERTYSINGLEVALUE('Status',$,IFCLABEL('Befintlig, f\X2\00F6\X0\renklad (inga \X2\00F6\X0\ppningar/tak). H\X2\00F6\X0\jd antagen.'),$);
#1723=IFCCARTESIANPOINT((0.17499999999999982,2.65));
#1724=IFCAXIS2PLACEMENT2D(#1723,$);
#1725=IFCRECTANGLEPROFILEDEF(.AREA.,$,#1724,0.34999999999999964,5.3);
#1726=IFCCARTESIANPOINT((0.,0.,0.));
#1727=IFCAXIS2PLACEMENT3D(#1726,$,$);
#1728=IFCDIRECTION((0.,0.,1.));
#1729=IFCEXTRUDEDAREASOLID(#1725,#1727,#1728,5.);
#1730=IFCSHAPEREPRESENTATION(#11,'Body','SweptSolid',(#1729));
#1731=IFCPRODUCTDEFINITIONSHAPE($,$,(#1730));
#1732=IFCSTYLEDITEM(#1729,(#40),'Puts');
#1738=IFCCARTESIANPOINT((-5.6,3.79,0.));
#1739=IFCDIRECTION((0.,0.,1.));
#1740=IFCDIRECTION((1.,0.,0.));
#1741=IFCAXIS2PLACEMENT3D(#1738,#1739,#1740);
#1742=IFCLOCALPLACEMENT($,#1741);
#1743=IFCPROPERTYSET('0tq1u2yoj1kxwWFez5rXoT',$,'Pset_WallCommon',$,(#1745,#1746));
#1744=IFCRELDEFINESBYPROPERTIES('1poJ22fIf5EBqkhKeJuO1p',$,$,$,(#1719),#1743);
#1745=IFCPROPERTYSINGLEVALUE('IsExternal',$,IFCBOOLEAN(.T.),$);
#1746=IFCPROPERTYSINGLEVALUE('LoadBearing',$,IFCBOOLEAN(.T.),$);
#1747=IFCWALL('1oRXQcyfT4uwXRUmftMIoi',$,'Befintlig nordfasad',$,$,#1770,#1759,$,$);
#1748=IFCPROPERTYSET('1H8RObqXn8lgAssKIkmfJ5',$,'Stroo_Befintlig',$,(#1750));
#1749=IFCRELDEFINESBYPROPERTIES('2LK1OWyN57TwdMx_pIYV3V',$,$,$,(#1747),#1748);
#1750=IFCPROPERTYSINGLEVALUE('Status',$,IFCLABEL('Befintlig, f\X2\00F6\X0\renklad (inga \X2\00F6\X0\ppningar/tak). H\X2\00F6\X0\jd antagen.'),$);
#1751=IFCCARTESIANPOINT((2.625,0.17499999999999982));
#1752=IFCAXIS2PLACEMENT2D(#1751,$);
#1753=IFCRECTANGLEPROFILEDEF(.AREA.,$,#1752,5.25,0.34999999999999964);
#1754=IFCCARTESIANPOINT((0.,0.,0.));
#1755=IFCAXIS2PLACEMENT3D(#1754,$,$);
#1756=IFCDIRECTION((0.,0.,1.));
#1757=IFCEXTRUDEDAREASOLID(#1753,#1755,#1756,5.);
#1758=IFCSHAPEREPRESENTATION(#11,'Body','SweptSolid',(#1757));
#1759=IFCPRODUCTDEFINITIONSHAPE($,$,(#1758));
#1760=IFCSTYLEDITEM(#1757,(#40),'Puts');
#1766=IFCCARTESIANPOINT((-5.6,9.09,0.));
#1767=IFCDIRECTION((0.,0.,1.));
#1768=IFCDIRECTION((1.,0.,0.));
#1769=IFCAXIS2PLACEMENT3D(#1766,#1767,#1768);
#1770=IFCLOCALPLACEMENT($,#1769);
#1771=IFCPROPERTYSET('2kocjV47H6pBBaUhS9JaAj',$,'Pset_WallCommon',$,(#1773,#1774));
#1772=IFCRELDEFINESBYPROPERTIES('0ZGiTjApX6SgF6PTGtpK8$',$,$,$,(#1747),#1771);
#1773=IFCPROPERTYSINGLEVALUE('IsExternal',$,IFCBOOLEAN(.T.),$);
#1774=IFCPROPERTYSINGLEVALUE('LoadBearing',$,IFCBOOLEAN(.T.),$);
#1775=IFCSLAB('0$nxZ$_Qn9YPJtOv2J$t7j',$,'Entr\X2\00E9\X0\plan, gjuten betongplatta',$,$,#1799,#1788,$,.LANDING.);
#1776=IFCPROPERTYSET('1vld3OqCb5BfHJT49QYKjW',$,'Stroo_Entre',$,(#1778,#1779));
#1777=IFCRELDEFINESBYPROPERTIES('2i1YU45PX8fRP$eSEeTQ4K',$,$,$,(#1775),#1776);
#1778=IFCPROPERTYSINGLEVALUE('\X2\00D6\X0\verkant',$,IFCLABEL('1800 mm \X2\00F6\X0\ver mark (antagen)'),$);
#1779=IFCPROPERTYSINGLEVALUE('Tjocklek',$,IFCLABEL('390 mm (1410 fri h\X2\00F6\X0\jd)'),$);
#1780=IFCCARTESIANPOINT((1.075,0.6));
#1781=IFCAXIS2PLACEMENT2D(#1780,$);
#1782=IFCRECTANGLEPROFILEDEF(.AREA.,$,#1781,2.15,1.2);
#1783=IFCCARTESIANPOINT((0.,0.,0.));
#1784=IFCAXIS2PLACEMENT3D(#1783,$,$);
#1785=IFCDIRECTION((0.,0.,1.));
#1786=IFCEXTRUDEDAREASOLID(#1782,#1784,#1785,0.39);
#1787=IFCSHAPEREPRESENTATION(#11,'Body','SweptSolid',(#1786));
#1788=IFCPRODUCTDEFINITIONSHAPE($,$,(#1787));
#1789=IFCSTYLEDITEM(#1786,(#28),'Betong');
#1795=IFCCARTESIANPOINT((-6.5680000000000005,-4.99,1.4100000000000001));
#1796=IFCDIRECTION((0.,0.,1.));
#1797=IFCDIRECTION((1.,0.,0.));
#1798=IFCAXIS2PLACEMENT3D(#1795,#1796,#1797);
#1799=IFCLOCALPLACEMENT($,#1798);
#1800=IFCSTAIR('2Aoy$GGwv2uQEYWDv6hqm8',$,'Entr\X2\00E9\X0\trappa',$,$,$,$,$,.STRAIGHT_RUN_STAIR.);
#1801=IFCSTAIRFLIGHT('0p9d8cqUrBZO3bRN6JUXqS',$,'Trapplopp, gjuten',$,$,#1854,#1832,$,9,8,0.2,0.32375,.STRAIGHT.);
#1802=IFCPROPERTYSET('1e9MihJXH1OeoxFLG6AVB5',$,'Stroo_Entre',$,(#1804,#1805,#1806));
#1803=IFCRELDEFINESBYPROPERTIES('3hVqo64Mj5Dh1HWHNgl5f0',$,$,$,(#1801),#1802);
#1804=IFCPROPERTYSINGLEVALUE('Bredd',$,IFCLABEL('2150 mm'),$);
#1805=IFCPROPERTYSINGLEVALUE('Antal stigningar',$,IFCLABEL('9 (antagen)'),$);
#1806=IFCPROPERTYSINGLEVALUE('Material',$,IFCLABEL('Gjuten/prefab betong, stenplattor granit/r\X2\00E5\X0\betong'),$);
#1807=IFCCARTESIANPOINT((0.,0.));
#1808=IFCCARTESIANPOINT((0.,1.6));
#1809=IFCCARTESIANPOINT((0.32375,1.6));
#1810=IFCCARTESIANPOINT((0.32375,1.4));
#1811=IFCCARTESIANPOINT((0.6475,1.4));
#1812=IFCCARTESIANPOINT((0.6475,1.2));
#1813=IFCCARTESIANPOINT((0.97125,1.2));
#1814=IFCCARTESIANPOINT((0.97125,1.));
#1815=IFCCARTESIANPOINT((1.295,1.));
#1816=IFCCARTESIANPOINT((1.295,0.8));
#1817=IFCCARTESIANPOINT((1.61875,0.8));
#1818=IFCCARTESIANPOINT((1.61875,0.5999999999999999));
#1819=IFCCARTESIANPOINT((1.9425,0.5999999999999999));
#1820=IFCCARTESIANPOINT((1.9425,0.3999999999999999));
#1821=IFCCARTESIANPOINT((2.26625,0.3999999999999999));
#1822=IFCCARTESIANPOINT((2.26625,0.19999999999999996));
#1823=IFCCARTESIANPOINT((2.59,0.19999999999999996));
#1824=IFCCARTESIANPOINT((2.59,0.));
#1825=IFCPOLYLINE((#1807,#1808,#1809,#1810,#1811,#1812,#1813,#1814,#1815,#1816,#1817,#1818,#1819,#1820,#1821,#1822,#1823,#1824,#1807));
#1826=IFCARBITRARYCLOSEDPROFILEDEF(.AREA.,$,#1825);
#1827=IFCCARTESIANPOINT((0.,0.,0.));
#1828=IFCAXIS2PLACEMENT3D(#1827,$,$);
#1829=IFCDIRECTION((0.,0.,1.));
#1830=IFCEXTRUDEDAREASOLID(#1826,#1828,#1829,2.15);
#1831=IFCSHAPEREPRESENTATION(#11,'Body','SweptSolid',(#1830));
#1832=IFCPRODUCTDEFINITIONSHAPE($,$,(#1831));
#1833=IFCSTYLEDITEM(#1830,(#28),'Betong');
#1849=IFCRELAGGREGATES('3WsvM7Oxr4o8d1kCKoy6Vn',$,$,$,#1800,(#1801));
#1850=IFCCARTESIANPOINT((-4.418,-4.99,0.));
#1851=IFCDIRECTION((-1.,0.,0.));
#1852=IFCDIRECTION((0.,-1.,0.));
#1853=IFCAXIS2PLACEMENT3D(#1850,#1851,#1852);
#1854=IFCLOCALPLACEMENT($,#1853);
#1855=IFCCOLUMN('3RYpVEMnHBkwpjl1dv5AJ5',$,'Takpelare rund D150 1',$,$,#1880,#1869,$,$);
#1856=IFCMATERIAL('Betong, platsgjuten',$,$);
#1857=IFCRELASSOCIATESMATERIAL('38o0ZX4xn8XeEnP82KfI4P',$,$,$,(#1905,#1855,#1929,#1881),#1856);
#1858=IFCPROPERTYSET('1AVEzEvUv1Cx6XhAK90LUC',$,'Stroo_Entre',$,(#1860));
#1859=IFCRELDEFINESBYPROPERTIES('28k$HjWrvC6AKefsq6x_iH',$,$,$,(#1855),#1858);
#1860=IFCPROPERTYSINGLEVALUE('Diameter',$,IFCLABEL('150 mm'),$);
#1861=IFCCARTESIANPOINT((0.,0.));
#1862=IFCAXIS2PLACEMENT2D(#1861,$);
#1863=IFCCIRCLEPROFILEDEF(.AREA.,$,#1862,0.075);
#1864=IFCCARTESIANPOINT((0.,0.,0.));
#1865=IFCAXIS2PLACEMENT3D(#1864,$,$);
#1866=IFCDIRECTION((0.,0.,1.));
#1867=IFCEXTRUDEDAREASOLID(#1863,#1865,#1866,2.4);
#1868=IFCSHAPEREPRESENTATION(#11,'Body','SweptSolid',(#1867));
#1869=IFCPRODUCTDEFINITIONSHAPE($,$,(#1868));
#1870=IFCSTYLEDITEM(#1867,(#28),'Betong');
#1876=IFCCARTESIANPOINT((-6.4430000000000005,-3.89,1.8));
#1877=IFCDIRECTION((0.,0.,1.));
#1878=IFCDIRECTION((1.,0.,0.));
#1879=IFCAXIS2PLACEMENT3D(#1876,#1877,#1878);
#1880=IFCLOCALPLACEMENT($,#1879);
#1881=IFCCOLUMN('34U5zoobPFJQ6W8l$LbC4w',$,'Takpelare rund D150 2',$,$,#1904,#1893,$,$);
#1882=IFCPROPERTYSET('2lGLr8c51FDeNcp2ykrF6e',$,'Stroo_Entre',$,(#1884));
#1883=IFCRELDEFINESBYPROPERTIES('2rBXkOTerB8egOn4C0bQu5',$,$,$,(#1881),#1882);
#1884=IFCPROPERTYSINGLEVALUE('Diameter',$,IFCLABEL('150 mm'),$);
#1885=IFCCARTESIANPOINT((0.,0.));
#1886=IFCAXIS2PLACEMENT2D(#1885,$);
#1887=IFCCIRCLEPROFILEDEF(.AREA.,$,#1886,0.075);
#1888=IFCCARTESIANPOINT((0.,0.,0.));
#1889=IFCAXIS2PLACEMENT3D(#1888,$,$);
#1890=IFCDIRECTION((0.,0.,1.));
#1891=IFCEXTRUDEDAREASOLID(#1887,#1889,#1890,2.4);
#1892=IFCSHAPEREPRESENTATION(#11,'Body','SweptSolid',(#1891));
#1893=IFCPRODUCTDEFINITIONSHAPE($,$,(#1892));
#1894=IFCSTYLEDITEM(#1891,(#28),'Betong');
#1900=IFCCARTESIANPOINT((-6.4430000000000005,-4.890000000000001,1.8));
#1901=IFCDIRECTION((0.,0.,1.));
#1902=IFCDIRECTION((1.,0.,0.));
#1903=IFCAXIS2PLACEMENT3D(#1900,#1901,#1902);
#1904=IFCLOCALPLACEMENT($,#1903);
#1905=IFCCOLUMN('23IpZOXun9SPzG$EFe84cs',$,'Takpelare rund D150 3',$,$,#1928,#1917,$,$);
#1906=IFCPROPERTYSET('0TFoOyukzBCBSlgk$Q6IaF',$,'Stroo_Entre',$,(#1908));
#1907=IFCRELDEFINESBYPROPERTIES('2QVDQxrALD4AxOamLZyaU3',$,$,$,(#1905),#1906);
#1908=IFCPROPERTYSINGLEVALUE('Diameter',$,IFCLABEL('150 mm'),$);
#1909=IFCCARTESIANPOINT((0.,0.));
#1910=IFCAXIS2PLACEMENT2D(#1909,$);
#1911=IFCCIRCLEPROFILEDEF(.AREA.,$,#1910,0.075);
#1912=IFCCARTESIANPOINT((0.,0.,0.));
#1913=IFCAXIS2PLACEMENT3D(#1912,$,$);
#1914=IFCDIRECTION((0.,0.,1.));
#1915=IFCEXTRUDEDAREASOLID(#1911,#1913,#1914,2.4);
#1916=IFCSHAPEREPRESENTATION(#11,'Body','SweptSolid',(#1915));
#1917=IFCPRODUCTDEFINITIONSHAPE($,$,(#1916));
#1918=IFCSTYLEDITEM(#1915,(#28),'Betong');
#1924=IFCCARTESIANPOINT((-4.543,-3.89,1.8));
#1925=IFCDIRECTION((0.,0.,1.));
#1926=IFCDIRECTION((1.,0.,0.));
#1927=IFCAXIS2PLACEMENT3D(#1924,#1925,#1926);
#1928=IFCLOCALPLACEMENT($,#1927);
#1929=IFCCOLUMN('3C39OQilT6xRKF7jEiy_g2',$,'Takpelare rund D150 4',$,$,#1952,#1941,$,$);
#1930=IFCPROPERTYSET('29mUrxgXz1CuYM4bQNq_IP',$,'Stroo_Entre',$,(#1932));
#1931=IFCRELDEFINESBYPROPERTIES('0UrTp8qc510xZYcIVcId$K',$,$,$,(#1929),#1930);
#1932=IFCPROPERTYSINGLEVALUE('Diameter',$,IFCLABEL('150 mm'),$);
#1933=IFCCARTESIANPOINT((0.,0.));
#1934=IFCAXIS2PLACEMENT2D(#1933,$);
#1935=IFCCIRCLEPROFILEDEF(.AREA.,$,#1934,0.075);
#1936=IFCCARTESIANPOINT((0.,0.,0.));
#1937=IFCAXIS2PLACEMENT3D(#1936,$,$);
#1938=IFCDIRECTION((0.,0.,1.));
#1939=IFCEXTRUDEDAREASOLID(#1935,#1937,#1938,2.4);
#1940=IFCSHAPEREPRESENTATION(#11,'Body','SweptSolid',(#1939));
#1941=IFCPRODUCTDEFINITIONSHAPE($,$,(#1940));
#1942=IFCSTYLEDITEM(#1939,(#28),'Betong');
#1948=IFCCARTESIANPOINT((-4.543,-4.890000000000001,1.8));
#1949=IFCDIRECTION((0.,0.,1.));
#1950=IFCDIRECTION((1.,0.,0.));
#1951=IFCAXIS2PLACEMENT3D(#1948,#1949,#1950);
#1952=IFCLOCALPLACEMENT($,#1951);
#1953=IFCROOF('3Sdoutpoz3LvoCVcVoXoh4',$,'Entr\X2\00E9\X0\tak',$,$,$,$,$,.GABLE_ROOF.);
#1954=IFCSLAB('3VSTHzgA137eVATOPIbO3o',$,'Entr\X2\00E9\X0\tak v\X2\00E4\X0\',$,$,#1986,#1969,$,.ROOF.);
#1955=IFCMATERIAL('Tv\X2\00E5\X0\kupiga tegelpannor',$,$);
#1956=IFCRELASSOCIATESMATERIAL('21LpOYdhfAH9l1ISmvk5BC',$,$,$,(#1987,#1954),#1955);
#1957=IFCPROPERTYSET('27V$adVlj2Veea_EtCnXC7',$,'Stroo_Entre',$,(#1959,#1960));
#1958=IFCRELDEFINESBYPROPERTIES('3T7JQML59CjAPH5SuwMpQx',$,$,$,(#1954),#1957);
#1959=IFCPROPERTYSINGLEVALUE('Taklutning',$,IFCLABEL('15 grader'),$);
#1960=IFCPROPERTYSINGLEVALUE('Tjocklek',$,IFCLABEL('100 mm (antagen)'),$);
#1961=IFCCARTESIANPOINT((0.5823428514806717,0.6775));
#1962=IFCAXIS2PLACEMENT2D(#1961,$);
#1963=IFCRECTANGLEPROFILEDEF(.AREA.,$,#1962,1.1646857029613433,1.355);
#1964=IFCCARTESIANPOINT((0.,0.,0.));
#1965=IFCAXIS2PLACEMENT3D(#1964,$,$);
#1966=IFCDIRECTION((0.,0.,1.));
#1967=IFCEXTRUDEDAREASOLID(#1963,#1965,#1966,0.1);
#1968=IFCSHAPEREPRESENTATION(#11,'Body','SweptSolid',(#1967));
#1969=IFCPRODUCTDEFINITIONSHAPE($,$,(#1968));
#1970=IFCSTYLEDITEM(#1967,(#46),'Tegel');
#1981=IFCRELAGGREGATES('0o5IMhenH8hQnvBRpPZ6ww',$,$,$,#1953,(#1987,#1954));
#1982=IFCCARTESIANPOINT((-6.618,-5.145,4.2));
#1983=IFCDIRECTION((-0.25881904510252074,0.,0.9659258262890683));
#1984=IFCDIRECTION((0.9659258262890683,0.,0.25881904510252074));
#1985=IFCAXIS2PLACEMENT3D(#1982,#1983,#1984);
#1986=IFCLOCALPLACEMENT($,#1985);
#1987=IFCSLAB('2NOnGmR_H9r82BnDtjKM0R',$,'Entr\X2\00E9\X0\tak h\X2\00F6\X0\',$,$,#2016,#2000,$,.ROOF.);
#1988=IFCPROPERTYSET('2anYGGDA96YvAKI9Oq0pg1',$,'Stroo_Entre',$,(#1990,#1991));
#1989=IFCRELDEFINESBYPROPERTIES('0DgAd8FHjD2O_cEshI2kDB',$,$,$,(#1987),#1988);
#1990=IFCPROPERTYSINGLEVALUE('Taklutning',$,IFCLABEL('15 grader'),$);
#1991=IFCPROPERTYSINGLEVALUE('Tjocklek',$,IFCLABEL('100 mm (antagen)'),$);
#1992=IFCCARTESIANPOINT((0.5823428514806717,0.6775));
#1993=IFCAXIS2PLACEMENT2D(#1992,$);
#1994=IFCRECTANGLEPROFILEDEF(.AREA.,$,#1993,1.1646857029613433,1.355);
#1995=IFCCARTESIANPOINT((0.,0.,0.));
#1996=IFCAXIS2PLACEMENT3D(#1995,$,$);
#1997=IFCDIRECTION((0.,0.,1.));
#1998=IFCEXTRUDEDAREASOLID(#1994,#1996,#1997,0.1);
#1999=IFCSHAPEREPRESENTATION(#11,'Body','SweptSolid',(#1998));
#2000=IFCPRODUCTDEFINITIONSHAPE($,$,(#1999));
#2001=IFCSTYLEDITEM(#1998,(#46),'Tegel');
#2012=IFCCARTESIANPOINT((-5.493,-5.145,4.501442841485013));
#2013=IFCDIRECTION((0.25881904510252074,0.,0.9659258262890683));
#2014=IFCDIRECTION((0.9659258262890683,0.,-0.25881904510252074));
#2015=IFCAXIS2PLACEMENT3D(#2012,#2013,#2014);
#2016=IFCLOCALPLACEMENT($,#2015);
#2017=IFCCOLUMNTYPE('39y_EMhf5CkRaAP0VtcdMb',$,'Pelare 90x90',$,$,$,$,$,$,.COLUMN.);
#2018=IFCRELDEFINESBYTYPE('3AwSIW$s989xRkRB9WLIY4',$,$,$,(#222,#341,#460,#99),#2017);
#2019=IFCCOLUMNTYPE('3TrZikEF9C8Rsw9oWnyv0l',$,'Takpelare rund D150',$,$,$,$,$,$,.COLUMN.);
#2020=IFCRELDEFINESBYTYPE('2x527yHgPE_gBhxloLj7Ee',$,$,$,(#1905,#1855,#1929,#1881),#2019);
#2021=IFCBEAMTYPE('0Iz9JgTHH7KxSfEb1VcCJz',$,'B\X2\00E4\X0\rlina GL30c 90x360',$,$,$,$,$,$,.BEAM.);
#2022=IFCRELDEFINESBYTYPE('0Dmf9$jhLFsRPGXY0D24Kt',$,$,$,(#559,#532),#2021);
#2023=IFCBEAMTYPE('37HYM0lAv6EO$w57ZT1iNO',$,'Bj\X2\00E4\X0\lke 45x220 C30',$,$,$,$,$,$,.JOIST.);
#2024=IFCRELDEFINESBYTYPE('2FHqDgFtzBo8$cOgXTBDFs',$,$,$,(#1036,#736,#961,#661,#1186,#886,#584,#1111,#811),#2023);
#2025=IFCFOOTINGTYPE('0C4S8kxHz1_AYG0BT9FRWg',$,'Betongplint KP 500',$,$,$,$,$,$,.PAD_FOOTING.);
#2026=IFCRELDEFINESBYTYPE('3TPq2tDfX4tfhBsECafJvZ',$,$,$,(#294,#413,#49,#175),#2025);
#2027=IFCWALLTYPE('1zQAg6blv6Jx8VA1$$$yGJ',$,'Pelarbekl\X2\00E4\X0\dnad 22x220',$,$,$,$,$,$,.STANDARD.);
#2028=IFCRELDEFINESBYTYPE('0FA2racOb4KhXZg10KX_4U',$,$,$,(#508,#125,#246,#365,#484,#151,#270,#389),#2027);
#2029=IFCWALLTYPE('0CQlCXWkH3yv_gIm7pQ9yA',$,'Fasadpanel ek 440',$,$,$,$,$,$,.STANDARD.);
#2030=IFCRELDEFINESBYTYPE('11UABLUy19EwWBPuVmDgC6',$,$,$,(#1449,#1420,#1377,#1332),#2029);
#2031=IFCWALLTYPE('0$ObOsJw1EXeOWUz5lquDI',$,'Befintlig ytterv\X2\00E4\X0\gg',$,$,$,$,$,$,.STANDARD.);
#2032=IFCRELDEFINESBYTYPE('08Dbkzn8n32OVvFUbDS13r',$,$,$,(#1605,#1635,#1663,#1691,#1719,#1747),#2031);
#2033=IFCPROPERTYSET('33Ig3uyB1AEukXSK1KK5g1',$,'Stroo_Projekt',$,(#2035,#2036,#2037));
#2034=IFCRELDEFINESBYPROPERTIES('3OxGYGOEjAgg3XenJoBpoX',$,$,$,(#1),#2033);
#2035=IFCPROPERTYSINGLEVALUE('Fastighet',$,IFCLABEL('Andreas 12'),$);
#2036=IFCPROPERTYSINGLEVALUE('Adress',$,IFCLABEL('Gryningsv\X2\00E4\X0\gen 14, 163 51 Sp\X2\00E5\X0\nga'),$);
#2037=IFCPROPERTYSINGLEVALUE('Ritningar',$,IFCLABEL('A-01-1-001 A, A-40-1-100 B, A-40-1-101 A, A-40-1-102, A-40-1-103'),$);
ENDSEC;
END-ISO-10303-21;
