ISO-10303-21;
HEADER;
FILE_DESCRIPTION(('ViewDefinition[DesignTransferView]'),'2;1');
FILE_NAME('/dev/null','2026-10-07T08:05:13+00:00',(''),(''),'IfcOpenShell 0.9.0','IfcOpenShell 0.9.0','Nobody');
FILE_SCHEMA(('IFC2X3'));
ENDSEC;
DATA;
#1=IFCPERSON('gl','Lundstr\X2\00F6\X0\m','Gustav',$,$,$,$,$);
#2=IFCORGANIZATION('stroo','Str\X2\00F600F6\X0\ arkitektbyr\X2\00E5\X0\ ab',$,$,$);
#3=IFCPERSONANDORGANIZATION(#1,#2,$);
#4=IFCACTORROLE(.USERDEFINED.,'CONTRIBUTOR',$);
#5=IFCORGANIZATION('IfcOpenShell','IfcOpenShell','IfcOpenShell is an open source software library that helps users and software developers to work with IFC data.',(#4),(#6));
#6=IFCTELECOMADDRESS(.USERDEFINED.,$,'WEBPAGE',$,$,$,$,'https://ifcopenshell.org');
#7=IFCAPPLICATION(#5,'0.9.0','IfcOpenShell','IfcOpenShell');
#8=IFCOWNERHISTORY(#3,#7,.READWRITE.,.ADDED.,1791360313,#3,#7,1791360313);
#9=IFCPROJECT('0Gvk10xxr0pOrTyC9cEcKU',#8,'Carport Gryningsv\X2\00E4\X0\gen 14',$,$,$,$,(#18),#13);
#10=IFCSIUNIT(*,.LENGTHUNIT.,$,.METRE.);
#11=IFCSIUNIT(*,.AREAUNIT.,$,.SQUARE_METRE.);
#12=IFCSIUNIT(*,.VOLUMEUNIT.,$,.CUBIC_METRE.);
#13=IFCUNITASSIGNMENT((#10,#11,#12));
#14=IFCCARTESIANPOINT((0.,0.,0.));
#15=IFCDIRECTION((0.,0.,1.));
#16=IFCDIRECTION((1.,0.,0.));
#17=IFCAXIS2PLACEMENT3D(#14,#15,#16);
#18=IFCGEOMETRICREPRESENTATIONCONTEXT($,'Model',3,1.E-05,#17,$);
#19=IFCGEOMETRICREPRESENTATIONSUBCONTEXT('Body','Model',*,*,*,*,#18,$,.MODEL_VIEW.,$);
#20=IFCOWNERHISTORY(#3,#7,.READWRITE.,.ADDED.,1791360313,#3,#7,1791360313);
#21=IFCSITE('0OOmksDxj7KwQHqJ_8ZAMJ',#20,'Andreas 12',$,$,$,$,$,.ELEMENT.,$,$,$,$,#32);
#22=IFCOWNERHISTORY(#3,#7,.READWRITE.,.ADDED.,1791360313,#3,#7,1791360313);
#23=IFCBUILDING('3QIz7UluDB_9c9hzfzqCiN',#22,'Frist\X2\00E5\X0\ende carport',$,$,$,$,$,.ELEMENT.,$,$,$);
#24=IFCOWNERHISTORY(#3,#7,.READWRITE.,.ADDED.,1791360313,#3,#7,1791360313);
#25=IFCBUILDINGSTOREY('1YeTA9aDf0VO_KilM4$uNG',#24,'Markniv\X2\00E5\X0\',$,$,$,$,$,.ELEMENT.,0.);
#26=IFCOWNERHISTORY(#3,#7,.READWRITE.,.ADDED.,1791360313,#3,#7,1791360313);
#27=IFCRELAGGREGATES('1xitjIyxL7mufureQ9VqsV',#26,$,$,#9,(#21));
#28=IFCOWNERHISTORY(#3,#7,.READWRITE.,.ADDED.,1791360313,#3,#7,1791360313);
#29=IFCRELAGGREGATES('2w6mq8vZX41vlR6HawI2US',#28,$,$,#21,(#23));
#30=IFCOWNERHISTORY(#3,#7,.READWRITE.,.ADDED.,1791360313,#3,#7,1791360313);
#31=IFCRELAGGREGATES('26zeMuWeD2DBDu5BQn7$ZI',#30,$,$,#23,(#25));
#32=IFCPOSTALADDRESS($,$,$,$,('Gryningsv\X2\00E4\X0\gen 14'),$,'Sp\X2\00E5\X0\nga',$,'163 51','SE');
#33=IFCSURFACESTYLE('Tr\X2\00E4\X0\',.BOTH.,(#34));
#34=IFCSURFACESTYLESHADING(#35);
#35=IFCCOLOURRGB('Tr\X2\00E4\X0\',0.82,0.68,0.46);
#36=IFCSURFACESTYLE('Limtr\X2\00E4\X0\',.BOTH.,(#37));
#37=IFCSURFACESTYLESHADING(#38);
#38=IFCCOLOURRGB('Limtr\X2\00E4\X0\',0.76,0.6,0.38);
#39=IFCSURFACESTYLE('Ek, oljad',.BOTH.,(#40));
#40=IFCSURFACESTYLESHADING(#41);
#41=IFCCOLOURRGB('Ek, oljad',0.55,0.4,0.24);
#42=IFCSURFACESTYLE('Betong',.BOTH.,(#43));
#43=IFCSURFACESTYLESHADING(#44);
#44=IFCCOLOURRGB('Betong',0.65,0.65,0.65);
#45=IFCSURFACESTYLE('Sedumtak',.BOTH.,(#46));
#46=IFCSURFACESTYLESHADING(#47);
#47=IFCCOLOURRGB('Sedumtak',0.38,0.55,0.28);
#48=IFCSURFACESTYLE('Makadam',.BOTH.,(#49));
#49=IFCSURFACESTYLESHADING(#50);
#50=IFCCOLOURRGB('Makadam',0.55,0.53,0.5);
#51=IFCSURFACESTYLE('Pl\X2\00E5\X0\t',.BOTH.,(#52));
#52=IFCSURFACESTYLESHADING(#53);
#53=IFCCOLOURRGB('Pl\X2\00E5\X0\t',0.55,0.58,0.6);
#54=IFCOWNERHISTORY(#3,#7,.READWRITE.,.MODIFIED.,1791360313,#3,#7,1791360313);
#55=IFCFOOTING('2OJFqDwFT1Vu_iR1DZV5tc',#54,'Betongplint 1',$,$,#87,#73,$,$);
#56=IFCMATERIAL('Betong');
#57=IFCOWNERHISTORY(#3,#7,.READWRITE.,.MODIFIED.,1791360313,#3,#7,1791360313);
#58=IFCRELASSOCIATESMATERIAL('0GA_C0eNb0FPva8__3N80t',#57,$,$,(#55,#234,#177,#120),#56);
#59=IFCOWNERHISTORY(#3,#7,.READWRITE.,.ADDED.,1791360313,#3,#7,1791360313);
#60=IFCPROPERTYSET('1PVHZ5W5HDoO9FfxMUZ6RI',#59,'Stroo_Carport',$,(#63,#64));
#61=IFCOWNERHISTORY(#3,#7,.READWRITE.,.ADDED.,1791360313,#3,#7,1791360313);
#62=IFCRELDEFINESBYPROPERTIES('3$hgazsQfEPQ_D63NtZK3W',#61,$,$,(#55),#60);
#63=IFCPROPERTYSINGLEVALUE('Typ',$,IFCLABEL('Ledbruket Betongplint KP 500 eller likv\X2\00E4\X0\rdigt (m\X2\00E5\X0\tt antagna)'),$);
#64=IFCPROPERTYSINGLEVALUE('Stolpsko',$,IFCLABEL('Justerbar, isolerad'),$);
#65=IFCCARTESIANPOINT((0.,0.));
#66=IFCAXIS2PLACEMENT2D(#65,$);
#67=IFCRECTANGLEPROFILEDEF(.AREA.,$,#66,0.25,0.25);
#68=IFCCARTESIANPOINT((0.,0.,0.));
#69=IFCAXIS2PLACEMENT3D(#68,$,$);
#70=IFCDIRECTION((0.,0.,1.));
#71=IFCEXTRUDEDAREASOLID(#67,#69,#70,0.5);
#72=IFCSHAPEREPRESENTATION(#19,'Body','SweptSolid',(#71));
#73=IFCPRODUCTDEFINITIONSHAPE($,$,(#72));
#74=IFCPRESENTATIONSTYLEASSIGNMENT((#42));
#75=IFCSTYLEDITEM(#71,(#74),'Betong');
#81=IFCOWNERHISTORY(#3,#7,.READWRITE.,.MODIFIED.,1791360313,#3,#7,1791360313);
#82=IFCRELCONTAINEDINSPATIALSTRUCTURE('2taIaWJlzFWfpY9$i9G5de',#81,$,$,(#291,#234,#177,#120,#565,#352,#681,#739,#415,#475,#535,#263,#89,#149,#206,#323,#710,#649,#770,#385,#445,#55,#614,#505),#25);
#83=IFCCARTESIANPOINT((0.589,0.16599999999999993,-0.5));
#84=IFCDIRECTION((0.,0.,1.));
#85=IFCDIRECTION((1.,0.,0.));
#86=IFCAXIS2PLACEMENT3D(#83,#84,#85);
#87=IFCLOCALPLACEMENT($,#86);
#88=IFCOWNERHISTORY(#3,#7,.READWRITE.,.MODIFIED.,1791360313,#3,#7,1791360313);
#89=IFCCOLUMN('3eJ$dA97rCZw_7XS449ytH',#88,'Tr\X2\00E4\X0\pelare 90x90 1',$,$,#118,#106,$);
#90=IFCMATERIAL('Tr\X2\00E4\X0\, 90x90');
#91=IFCOWNERHISTORY(#3,#7,.READWRITE.,.MODIFIED.,1791360313,#3,#7,1791360313);
#92=IFCRELASSOCIATESMATERIAL('2CX0ro94LD7OQsUGmyTgfy',#91,$,$,(#263,#89,#206,#149),#90);
#93=IFCOWNERHISTORY(#3,#7,.READWRITE.,.ADDED.,1791360313,#3,#7,1791360313);
#94=IFCPROPERTYSET('0U1gppgvb1Kg4QFvD5NnC$',#93,'Stroo_Carport',$,(#97));
#95=IFCOWNERHISTORY(#3,#7,.READWRITE.,.ADDED.,1791360313,#3,#7,1791360313);
#96=IFCRELDEFINESBYPROPERTIES('10PGWtTO50iOzO2nihQUcv',#95,$,$,(#89),#94);
#97=IFCPROPERTYSINGLEVALUE('Dimension',$,IFCLABEL('90x90 mm'),$);
#98=IFCCARTESIANPOINT((0.,0.));
#99=IFCAXIS2PLACEMENT2D(#98,$);
#100=IFCRECTANGLEPROFILEDEF(.AREA.,$,#99,0.09,0.09);
#101=IFCCARTESIANPOINT((0.,0.,0.));
#102=IFCAXIS2PLACEMENT3D(#101,$,$);
#103=IFCDIRECTION((0.,0.,1.));
#104=IFCEXTRUDEDAREASOLID(#100,#102,#103,1.5985532984092536);
#105=IFCSHAPEREPRESENTATION(#19,'Body','SweptSolid',(#104));
#106=IFCPRODUCTDEFINITIONSHAPE($,$,(#105));
#107=IFCPRESENTATIONSTYLEASSIGNMENT((#33));
#108=IFCSTYLEDITEM(#104,(#107),'Tr\X2\00E4\X0\');
#114=IFCCARTESIANPOINT((0.589,0.16599999999999993,0.));
#115=IFCDIRECTION((0.,0.,1.));
#116=IFCDIRECTION((1.,0.,0.));
#117=IFCAXIS2PLACEMENT3D(#114,#115,#116);
#118=IFCLOCALPLACEMENT($,#117);
#119=IFCOWNERHISTORY(#3,#7,.READWRITE.,.MODIFIED.,1791360313,#3,#7,1791360313);
#120=IFCFOOTING('3_NVDGWHH1Qw1xlbIjOL2W',#119,'Betongplint 2',$,$,#147,#135,$,$);
#121=IFCOWNERHISTORY(#3,#7,.READWRITE.,.ADDED.,1791360313,#3,#7,1791360313);
#122=IFCPROPERTYSET('2HTeBpc1b65eSrfed7Z0Ex',#121,'Stroo_Carport',$,(#125,#126));
#123=IFCOWNERHISTORY(#3,#7,.READWRITE.,.ADDED.,1791360313,#3,#7,1791360313);
#124=IFCRELDEFINESBYPROPERTIES('07py9D3qrDWBoi_tO55lBL',#123,$,$,(#120),#122);
#125=IFCPROPERTYSINGLEVALUE('Typ',$,IFCLABEL('Ledbruket Betongplint KP 500 eller likv\X2\00E4\X0\rdigt (m\X2\00E5\X0\tt antagna)'),$);
#126=IFCPROPERTYSINGLEVALUE('Stolpsko',$,IFCLABEL('Justerbar, isolerad'),$);
#127=IFCCARTESIANPOINT((0.,0.));
#128=IFCAXIS2PLACEMENT2D(#127,$);
#129=IFCRECTANGLEPROFILEDEF(.AREA.,$,#128,0.25,0.25);
#130=IFCCARTESIANPOINT((0.,0.,0.));
#131=IFCAXIS2PLACEMENT3D(#130,$,$);
#132=IFCDIRECTION((0.,0.,1.));
#133=IFCEXTRUDEDAREASOLID(#129,#131,#132,0.5);
#134=IFCSHAPEREPRESENTATION(#19,'Body','SweptSolid',(#133));
#135=IFCPRODUCTDEFINITIONSHAPE($,$,(#134));
#136=IFCPRESENTATIONSTYLEASSIGNMENT((#42));
#137=IFCSTYLEDITEM(#133,(#136),'Betong');
#143=IFCCARTESIANPOINT((0.589,3.5,-0.5));
#144=IFCDIRECTION((0.,0.,1.));
#145=IFCDIRECTION((1.,0.,0.));
#146=IFCAXIS2PLACEMENT3D(#143,#144,#145);
#147=IFCLOCALPLACEMENT($,#146);
#148=IFCOWNERHISTORY(#3,#7,.READWRITE.,.MODIFIED.,1791360313,#3,#7,1791360313);
#149=IFCCOLUMN('3Er8rkkUDF5vheP3$7oA3K',#148,'Tr\X2\00E4\X0\pelare 90x90 2',$,$,#175,#163,$);
#150=IFCOWNERHISTORY(#3,#7,.READWRITE.,.ADDED.,1791360313,#3,#7,1791360313);
#151=IFCPROPERTYSET('06IQxiQLr2Nf0HzbC$3fj3',#150,'Stroo_Carport',$,(#154));
#152=IFCOWNERHISTORY(#3,#7,.READWRITE.,.ADDED.,1791360313,#3,#7,1791360313);
#153=IFCRELDEFINESBYPROPERTIES('2YaK_7P$1AxPl6KhfImOXa',#152,$,$,(#149),#151);
#154=IFCPROPERTYSINGLEVALUE('Dimension',$,IFCLABEL('90x90 mm'),$);
#155=IFCCARTESIANPOINT((0.,0.));
#156=IFCAXIS2PLACEMENT2D(#155,$);
#157=IFCRECTANGLEPROFILEDEF(.AREA.,$,#156,0.09,0.09);
#158=IFCCARTESIANPOINT((0.,0.,0.));
#159=IFCAXIS2PLACEMENT3D(#158,$,$);
#160=IFCDIRECTION((0.,0.,1.));
#161=IFCEXTRUDEDAREASOLID(#157,#159,#160,1.5985532984092536);
#162=IFCSHAPEREPRESENTATION(#19,'Body','SweptSolid',(#161));
#163=IFCPRODUCTDEFINITIONSHAPE($,$,(#162));
#164=IFCPRESENTATIONSTYLEASSIGNMENT((#33));
#165=IFCSTYLEDITEM(#161,(#164),'Tr\X2\00E4\X0\');
#171=IFCCARTESIANPOINT((0.589,3.5,0.));
#172=IFCDIRECTION((0.,0.,1.));
#173=IFCDIRECTION((1.,0.,0.));
#174=IFCAXIS2PLACEMENT3D(#171,#172,#173);
#175=IFCLOCALPLACEMENT($,#174);
#176=IFCOWNERHISTORY(#3,#7,.READWRITE.,.MODIFIED.,1791360313,#3,#7,1791360313);
#177=IFCFOOTING('3e$UR$vyf7BfZ1wtbiQYvw',#176,'Betongplint 3',$,$,#204,#192,$,$);
#178=IFCOWNERHISTORY(#3,#7,.READWRITE.,.ADDED.,1791360313,#3,#7,1791360313);
#179=IFCPROPERTYSET('1nCR97zq9978DujsoYZYrZ',#178,'Stroo_Carport',$,(#182,#183));
#180=IFCOWNERHISTORY(#3,#7,.READWRITE.,.ADDED.,1791360313,#3,#7,1791360313);
#181=IFCRELDEFINESBYPROPERTIES('07CAonTN52PulyLKhxdcOF',#180,$,$,(#177),#179);
#182=IFCPROPERTYSINGLEVALUE('Typ',$,IFCLABEL('Ledbruket Betongplint KP 500 eller likv\X2\00E4\X0\rdigt (m\X2\00E5\X0\tt antagna)'),$);
#183=IFCPROPERTYSINGLEVALUE('Stolpsko',$,IFCLABEL('Justerbar, isolerad'),$);
#184=IFCCARTESIANPOINT((0.,0.));
#185=IFCAXIS2PLACEMENT2D(#184,$);
#186=IFCRECTANGLEPROFILEDEF(.AREA.,$,#185,0.25,0.25);
#187=IFCCARTESIANPOINT((0.,0.,0.));
#188=IFCAXIS2PLACEMENT3D(#187,$,$);
#189=IFCDIRECTION((0.,0.,1.));
#190=IFCEXTRUDEDAREASOLID(#186,#188,#189,0.5);
#191=IFCSHAPEREPRESENTATION(#19,'Body','SweptSolid',(#190));
#192=IFCPRODUCTDEFINITIONSHAPE($,$,(#191));
#193=IFCPRESENTATIONSTYLEASSIGNMENT((#42));
#194=IFCSTYLEDITEM(#190,(#193),'Betong');
#200=IFCCARTESIANPOINT((3.368,0.16599999999999993,-0.5));
#201=IFCDIRECTION((0.,0.,1.));
#202=IFCDIRECTION((1.,0.,0.));
#203=IFCAXIS2PLACEMENT3D(#200,#201,#202);
#204=IFCLOCALPLACEMENT($,#203);
#205=IFCOWNERHISTORY(#3,#7,.READWRITE.,.MODIFIED.,1791360313,#3,#7,1791360313);
#206=IFCCOLUMN('1ikgHUjc91w8SNwsdO1XQa',#205,'Tr\X2\00E4\X0\pelare 90x90 3',$,$,#232,#220,$);
#207=IFCOWNERHISTORY(#3,#7,.READWRITE.,.ADDED.,1791360313,#3,#7,1791360313);
#208=IFCPROPERTYSET('3BdKRXjhr4y8rjEBswOe46',#207,'Stroo_Carport',$,(#211));
#209=IFCOWNERHISTORY(#3,#7,.READWRITE.,.ADDED.,1791360313,#3,#7,1791360313);
#210=IFCRELDEFINESBYPROPERTIES('37$_SkXIX839XwiZ10mCY2',#209,$,$,(#206),#208);
#211=IFCPROPERTYSINGLEVALUE('Dimension',$,IFCLABEL('90x90 mm'),$);
#212=IFCCARTESIANPOINT((0.,0.));
#213=IFCAXIS2PLACEMENT2D(#212,$);
#214=IFCRECTANGLEPROFILEDEF(.AREA.,$,#213,0.09,0.09);
#215=IFCCARTESIANPOINT((0.,0.,0.));
#216=IFCAXIS2PLACEMENT3D(#215,$,$);
#217=IFCDIRECTION((0.,0.,1.));
#218=IFCEXTRUDEDAREASOLID(#214,#216,#217,1.7928799088002694);
#219=IFCSHAPEREPRESENTATION(#19,'Body','SweptSolid',(#218));
#220=IFCPRODUCTDEFINITIONSHAPE($,$,(#219));
#221=IFCPRESENTATIONSTYLEASSIGNMENT((#33));
#222=IFCSTYLEDITEM(#218,(#221),'Tr\X2\00E4\X0\');
#228=IFCCARTESIANPOINT((3.368,0.16599999999999993,0.));
#229=IFCDIRECTION((0.,0.,1.));
#230=IFCDIRECTION((1.,0.,0.));
#231=IFCAXIS2PLACEMENT3D(#228,#229,#230);
#232=IFCLOCALPLACEMENT($,#231);
#233=IFCOWNERHISTORY(#3,#7,.READWRITE.,.MODIFIED.,1791360313,#3,#7,1791360313);
#234=IFCFOOTING('0Q19K8_6zFIA9XfHIPrk5C',#233,'Betongplint 4',$,$,#261,#249,$,$);
#235=IFCOWNERHISTORY(#3,#7,.READWRITE.,.ADDED.,1791360313,#3,#7,1791360313);
#236=IFCPROPERTYSET('0Upin69iv2IunL9h5kPxG8',#235,'Stroo_Carport',$,(#239,#240));
#237=IFCOWNERHISTORY(#3,#7,.READWRITE.,.ADDED.,1791360313,#3,#7,1791360313);
#238=IFCRELDEFINESBYPROPERTIES('3G4jglH09FzvNeP2ojwpAu',#237,$,$,(#234),#236);
#239=IFCPROPERTYSINGLEVALUE('Typ',$,IFCLABEL('Ledbruket Betongplint KP 500 eller likv\X2\00E4\X0\rdigt (m\X2\00E5\X0\tt antagna)'),$);
#240=IFCPROPERTYSINGLEVALUE('Stolpsko',$,IFCLABEL('Justerbar, isolerad'),$);
#241=IFCCARTESIANPOINT((0.,0.));
#242=IFCAXIS2PLACEMENT2D(#241,$);
#243=IFCRECTANGLEPROFILEDEF(.AREA.,$,#242,0.25,0.25);
#244=IFCCARTESIANPOINT((0.,0.,0.));
#245=IFCAXIS2PLACEMENT3D(#244,$,$);
#246=IFCDIRECTION((0.,0.,1.));
#247=IFCEXTRUDEDAREASOLID(#243,#245,#246,0.5);
#248=IFCSHAPEREPRESENTATION(#19,'Body','SweptSolid',(#247));
#249=IFCPRODUCTDEFINITIONSHAPE($,$,(#248));
#250=IFCPRESENTATIONSTYLEASSIGNMENT((#42));
#251=IFCSTYLEDITEM(#247,(#250),'Betong');
#257=IFCCARTESIANPOINT((3.368,3.5,-0.5));
#258=IFCDIRECTION((0.,0.,1.));
#259=IFCDIRECTION((1.,0.,0.));
#260=IFCAXIS2PLACEMENT3D(#257,#258,#259);
#261=IFCLOCALPLACEMENT($,#260);
#262=IFCOWNERHISTORY(#3,#7,.READWRITE.,.MODIFIED.,1791360313,#3,#7,1791360313);
#263=IFCCOLUMN('3XS4LFWvDE_AT3kEK85GdL',#262,'Tr\X2\00E4\X0\pelare 90x90 4',$,$,#289,#277,$);
#264=IFCOWNERHISTORY(#3,#7,.READWRITE.,.ADDED.,1791360313,#3,#7,1791360313);
#265=IFCPROPERTYSET('1r$4I4CE5569Bht5Us6djS',#264,'Stroo_Carport',$,(#268));
#266=IFCOWNERHISTORY(#3,#7,.READWRITE.,.ADDED.,1791360313,#3,#7,1791360313);
#267=IFCRELDEFINESBYPROPERTIES('3wTJFDiYrFwhu5v90srodp',#266,$,$,(#263),#265);
#268=IFCPROPERTYSINGLEVALUE('Dimension',$,IFCLABEL('90x90 mm'),$);
#269=IFCCARTESIANPOINT((0.,0.));
#270=IFCAXIS2PLACEMENT2D(#269,$);
#271=IFCRECTANGLEPROFILEDEF(.AREA.,$,#270,0.09,0.09);
#272=IFCCARTESIANPOINT((0.,0.,0.));
#273=IFCAXIS2PLACEMENT3D(#272,$,$);
#274=IFCDIRECTION((0.,0.,1.));
#275=IFCEXTRUDEDAREASOLID(#271,#273,#274,1.7928799088002694);
#276=IFCSHAPEREPRESENTATION(#19,'Body','SweptSolid',(#275));
#277=IFCPRODUCTDEFINITIONSHAPE($,$,(#276));
#278=IFCPRESENTATIONSTYLEASSIGNMENT((#33));
#279=IFCSTYLEDITEM(#275,(#278),'Tr\X2\00E4\X0\');
#285=IFCCARTESIANPOINT((3.368,3.5,0.));
#286=IFCDIRECTION((0.,0.,1.));
#287=IFCDIRECTION((1.,0.,0.));
#288=IFCAXIS2PLACEMENT3D(#285,#286,#287);
#289=IFCLOCALPLACEMENT($,#288);
#290=IFCOWNERHISTORY(#3,#7,.READWRITE.,.MODIFIED.,1791360313,#3,#7,1791360313);
#291=IFCBEAM('3pxKKU_mXCGg2xery_496m',#290,'B\X2\00E4\X0\rlina GL30c 360x90 1',$,$,#321,#309,$);
#292=IFCMATERIAL('Limtr\X2\00E4\X0\ GL30c');
#293=IFCOWNERHISTORY(#3,#7,.READWRITE.,.MODIFIED.,1791360313,#3,#7,1791360313);
#294=IFCRELASSOCIATESMATERIAL('181P_sSGf1VRvV6DFzmK38',#293,$,$,(#291,#323),#292);
#295=IFCOWNERHISTORY(#3,#7,.READWRITE.,.ADDED.,1791360313,#3,#7,1791360313);
#296=IFCPROPERTYSET('0epkCaLsD9wRIorI322vWm',#295,'Stroo_Carport',$,(#299,#300));
#297=IFCOWNERHISTORY(#3,#7,.READWRITE.,.ADDED.,1791360313,#3,#7,1791360313);
#298=IFCRELDEFINESBYPROPERTIES('1jIyx2Z1bCGgn8dkFqDbJj',#297,$,$,(#291),#296);
#299=IFCPROPERTYSINGLEVALUE('Dimension',$,IFCLABEL('360x90 mm'),$);
#300=IFCPROPERTYSINGLEVALUE('H\X2\00E5\X0\llfasthetsklass',$,IFCLABEL('GL30c'),$);
#301=IFCCARTESIANPOINT((0.,0.));
#302=IFCAXIS2PLACEMENT2D(#301,$);
#303=IFCRECTANGLEPROFILEDEF(.AREA.,$,#302,0.09,0.36);
#304=IFCCARTESIANPOINT((0.,0.,0.));
#305=IFCAXIS2PLACEMENT3D(#304,$,$);
#306=IFCDIRECTION((0.,0.,1.));
#307=IFCEXTRUDEDAREASOLID(#303,#305,#306,3.666);
#308=IFCSHAPEREPRESENTATION(#19,'Body','SweptSolid',(#307));
#309=IFCPRODUCTDEFINITIONSHAPE($,$,(#308));
#310=IFCPRESENTATIONSTYLEASSIGNMENT((#36));
#311=IFCSTYLEDITEM(#307,(#310),'Limtr\X2\00E4\X0\');
#317=IFCCARTESIANPOINT((0.589,0.,1.7785532984092538));
#318=IFCDIRECTION((0.,1.,0.));
#319=IFCDIRECTION((1.,0.,0.));
#320=IFCAXIS2PLACEMENT3D(#317,#318,#319);
#321=IFCLOCALPLACEMENT($,#320);
#322=IFCOWNERHISTORY(#3,#7,.READWRITE.,.MODIFIED.,1791360313,#3,#7,1791360313);
#323=IFCBEAM('0rBkLO44n71hjpeiNDJFZc',#322,'B\X2\00E4\X0\rlina GL30c 360x90 2',$,$,#350,#338,$);
#324=IFCOWNERHISTORY(#3,#7,.READWRITE.,.ADDED.,1791360313,#3,#7,1791360313);
#325=IFCPROPERTYSET('2NgvVXHzjBzuQGaFWJxFoj',#324,'Stroo_Carport',$,(#328,#329));
#326=IFCOWNERHISTORY(#3,#7,.READWRITE.,.ADDED.,1791360313,#3,#7,1791360313);
#327=IFCRELDEFINESBYPROPERTIES('3ggu3BpKn33v_MNy28zO$j',#326,$,$,(#323),#325);
#328=IFCPROPERTYSINGLEVALUE('Dimension',$,IFCLABEL('360x90 mm'),$);
#329=IFCPROPERTYSINGLEVALUE('H\X2\00E5\X0\llfasthetsklass',$,IFCLABEL('GL30c'),$);
#330=IFCCARTESIANPOINT((0.,0.));
#331=IFCAXIS2PLACEMENT2D(#330,$);
#332=IFCRECTANGLEPROFILEDEF(.AREA.,$,#331,0.09,0.36);
#333=IFCCARTESIANPOINT((0.,0.,0.));
#334=IFCAXIS2PLACEMENT3D(#333,$,$);
#335=IFCDIRECTION((0.,0.,1.));
#336=IFCEXTRUDEDAREASOLID(#332,#334,#335,3.666);
#337=IFCSHAPEREPRESENTATION(#19,'Body','SweptSolid',(#336));
#338=IFCPRODUCTDEFINITIONSHAPE($,$,(#337));
#339=IFCPRESENTATIONSTYLEASSIGNMENT((#36));
#340=IFCSTYLEDITEM(#336,(#339),'Limtr\X2\00E4\X0\');
#346=IFCCARTESIANPOINT((3.368,0.,1.9728799088002693));
#347=IFCDIRECTION((0.,1.,0.));
#348=IFCDIRECTION((1.,0.,0.));
#349=IFCAXIS2PLACEMENT3D(#346,#347,#348);
#350=IFCLOCALPLACEMENT($,#349);
#351=IFCOWNERHISTORY(#3,#7,.READWRITE.,.MODIFIED.,1791360313,#3,#7,1791360313);
#352=IFCMEMBER('2uJ7h8vvn3ph7gJ8I2RSTe',#351,'Bj\X2\00E4\X0\lke 220x45 c600 #1',$,$,#383,#371,$);
#353=IFCMATERIAL('Konstruktionsvirke C30');
#354=IFCOWNERHISTORY(#3,#7,.READWRITE.,.MODIFIED.,1791360313,#3,#7,1791360313);
#355=IFCRELASSOCIATESMATERIAL('2cx86e2O5EIx9_G7WTG8mX',#354,$,$,(#505,#415,#535,#445,#352,#475,#385),#353);
#356=IFCOWNERHISTORY(#3,#7,.READWRITE.,.ADDED.,1791360313,#3,#7,1791360313);
#357=IFCPROPERTYSET('0SY_66S6rCxuX7hR8ra4cy',#356,'Stroo_Carport',$,(#360,#361,#362));
#358=IFCOWNERHISTORY(#3,#7,.READWRITE.,.ADDED.,1791360313,#3,#7,1791360313);
#359=IFCRELDEFINESBYPROPERTIES('3hd7jskAHB2PmZctewlHgo',#358,$,$,(#352),#357);
#360=IFCPROPERTYSINGLEVALUE('Dimension',$,IFCLABEL('220x45 mm'),$);
#361=IFCPROPERTYSINGLEVALUE('H\X2\00E5\X0\llfasthetsklass',$,IFCLABEL('C30'),$);
#362=IFCPROPERTYSINGLEVALUE('Centrumavst\X2\00E5\X0\nd',$,IFCLABEL('600 mm'),$);
#363=IFCCARTESIANPOINT((0.,0.));
#364=IFCAXIS2PLACEMENT2D(#363,$);
#365=IFCRECTANGLEPROFILEDEF(.AREA.,$,#364,0.045,0.22);
#366=IFCCARTESIANPOINT((0.,0.,0.));
#367=IFCAXIS2PLACEMENT3D(#366,$,$);
#368=IFCDIRECTION((0.,0.,1.));
#369=IFCEXTRUDEDAREASOLID(#365,#367,#368,4.909960416801581);
#370=IFCSHAPEREPRESENTATION(#19,'Body','SweptSolid',(#369));
#371=IFCPRODUCTDEFINITIONSHAPE($,$,(#370));
#372=IFCPRESENTATIONSTYLEASSIGNMENT((#33));
#373=IFCSTYLEDITEM(#369,(#372),'Tr\X2\00E4\X0\');
#379=IFCCARTESIANPOINT((0.2,0.0225,2.044767083889615));
#380=IFCDIRECTION((0.9975640502598243,0.,0.06975647374412532));
#381=IFCDIRECTION((0.,1.,0.));
#382=IFCAXIS2PLACEMENT3D(#379,#380,#381);
#383=IFCLOCALPLACEMENT($,#382);
#384=IFCOWNERHISTORY(#3,#7,.READWRITE.,.MODIFIED.,1791360313,#3,#7,1791360313);
#385=IFCMEMBER('0Q0Rta1$D7dAFzXNizq3xZ',#384,'Bj\X2\00E4\X0\lke 220x45 c600 #2',$,$,#413,#401,$);
#386=IFCOWNERHISTORY(#3,#7,.READWRITE.,.ADDED.,1791360313,#3,#7,1791360313);
#387=IFCPROPERTYSET('3w07C3089Aw8S1hTRCl16k',#386,'Stroo_Carport',$,(#390,#391,#392));
#388=IFCOWNERHISTORY(#3,#7,.READWRITE.,.ADDED.,1791360313,#3,#7,1791360313);
#389=IFCRELDEFINESBYPROPERTIES('0$Tdo8hqjAcQU8n9wy$g1f',#388,$,$,(#385),#387);
#390=IFCPROPERTYSINGLEVALUE('Dimension',$,IFCLABEL('220x45 mm'),$);
#391=IFCPROPERTYSINGLEVALUE('H\X2\00E5\X0\llfasthetsklass',$,IFCLABEL('C30'),$);
#392=IFCPROPERTYSINGLEVALUE('Centrumavst\X2\00E5\X0\nd',$,IFCLABEL('600 mm'),$);
#393=IFCCARTESIANPOINT((0.,0.));
#394=IFCAXIS2PLACEMENT2D(#393,$);
#395=IFCRECTANGLEPROFILEDEF(.AREA.,$,#394,0.045,0.22);
#396=IFCCARTESIANPOINT((0.,0.,0.));
#397=IFCAXIS2PLACEMENT3D(#396,$,$);
#398=IFCDIRECTION((0.,0.,1.));
#399=IFCEXTRUDEDAREASOLID(#395,#397,#398,4.909960416801581);
#400=IFCSHAPEREPRESENTATION(#19,'Body','SweptSolid',(#399));
#401=IFCPRODUCTDEFINITIONSHAPE($,$,(#400));
#402=IFCPRESENTATIONSTYLEASSIGNMENT((#33));
#403=IFCSTYLEDITEM(#399,(#402),'Tr\X2\00E4\X0\');
#409=IFCCARTESIANPOINT((0.2,0.6224999999999999,2.044767083889615));
#410=IFCDIRECTION((0.9975640502598243,0.,0.06975647374412532));
#411=IFCDIRECTION((0.,1.,0.));
#412=IFCAXIS2PLACEMENT3D(#409,#410,#411);
#413=IFCLOCALPLACEMENT($,#412);
#414=IFCOWNERHISTORY(#3,#7,.READWRITE.,.MODIFIED.,1791360313,#3,#7,1791360313);
#415=IFCMEMBER('2WXCitllL1ivm1ydKPY7ZV',#414,'Bj\X2\00E4\X0\lke 220x45 c600 #3',$,$,#443,#431,$);
#416=IFCOWNERHISTORY(#3,#7,.READWRITE.,.ADDED.,1791360313,#3,#7,1791360313);
#417=IFCPROPERTYSET('3gtX$rJkn1cRqxMmI3nNTs',#416,'Stroo_Carport',$,(#420,#421,#422));
#418=IFCOWNERHISTORY(#3,#7,.READWRITE.,.ADDED.,1791360313,#3,#7,1791360313);
#419=IFCRELDEFINESBYPROPERTIES('2pgseA3xb0twNUQv_spTeU',#418,$,$,(#415),#417);
#420=IFCPROPERTYSINGLEVALUE('Dimension',$,IFCLABEL('220x45 mm'),$);
#421=IFCPROPERTYSINGLEVALUE('H\X2\00E5\X0\llfasthetsklass',$,IFCLABEL('C30'),$);
#422=IFCPROPERTYSINGLEVALUE('Centrumavst\X2\00E5\X0\nd',$,IFCLABEL('600 mm'),$);
#423=IFCCARTESIANPOINT((0.,0.));
#424=IFCAXIS2PLACEMENT2D(#423,$);
#425=IFCRECTANGLEPROFILEDEF(.AREA.,$,#424,0.045,0.22);
#426=IFCCARTESIANPOINT((0.,0.,0.));
#427=IFCAXIS2PLACEMENT3D(#426,$,$);
#428=IFCDIRECTION((0.,0.,1.));
#429=IFCEXTRUDEDAREASOLID(#425,#427,#428,4.909960416801581);
#430=IFCSHAPEREPRESENTATION(#19,'Body','SweptSolid',(#429));
#431=IFCPRODUCTDEFINITIONSHAPE($,$,(#430));
#432=IFCPRESENTATIONSTYLEASSIGNMENT((#33));
#433=IFCSTYLEDITEM(#429,(#432),'Tr\X2\00E4\X0\');
#439=IFCCARTESIANPOINT((0.2,1.2225,2.044767083889615));
#440=IFCDIRECTION((0.9975640502598243,0.,0.06975647374412532));
#441=IFCDIRECTION((0.,1.,0.));
#442=IFCAXIS2PLACEMENT3D(#439,#440,#441);
#443=IFCLOCALPLACEMENT($,#442);
#444=IFCOWNERHISTORY(#3,#7,.READWRITE.,.MODIFIED.,1791360313,#3,#7,1791360313);
#445=IFCMEMBER('2vOkZZVjr9jvYWppdOOezl',#444,'Bj\X2\00E4\X0\lke 220x45 c600 #4',$,$,#473,#461,$);
#446=IFCOWNERHISTORY(#3,#7,.READWRITE.,.ADDED.,1791360313,#3,#7,1791360313);
#447=IFCPROPERTYSET('1s8zqkANb2lPnVJhoV2l9y',#446,'Stroo_Carport',$,(#450,#451,#452));
#448=IFCOWNERHISTORY(#3,#7,.READWRITE.,.ADDED.,1791360313,#3,#7,1791360313);
#449=IFCRELDEFINESBYPROPERTIES('2OoERYsFL3YeIK$NN2cIXj',#448,$,$,(#445),#447);
#450=IFCPROPERTYSINGLEVALUE('Dimension',$,IFCLABEL('220x45 mm'),$);
#451=IFCPROPERTYSINGLEVALUE('H\X2\00E5\X0\llfasthetsklass',$,IFCLABEL('C30'),$);
#452=IFCPROPERTYSINGLEVALUE('Centrumavst\X2\00E5\X0\nd',$,IFCLABEL('600 mm'),$);
#453=IFCCARTESIANPOINT((0.,0.));
#454=IFCAXIS2PLACEMENT2D(#453,$);
#455=IFCRECTANGLEPROFILEDEF(.AREA.,$,#454,0.045,0.22);
#456=IFCCARTESIANPOINT((0.,0.,0.));
#457=IFCAXIS2PLACEMENT3D(#456,$,$);
#458=IFCDIRECTION((0.,0.,1.));
#459=IFCEXTRUDEDAREASOLID(#455,#457,#458,4.909960416801581);
#460=IFCSHAPEREPRESENTATION(#19,'Body','SweptSolid',(#459));
#461=IFCPRODUCTDEFINITIONSHAPE($,$,(#460));
#462=IFCPRESENTATIONSTYLEASSIGNMENT((#33));
#463=IFCSTYLEDITEM(#459,(#462),'Tr\X2\00E4\X0\');
#469=IFCCARTESIANPOINT((0.2,1.8224999999999998,2.044767083889615));
#470=IFCDIRECTION((0.9975640502598243,0.,0.06975647374412532));
#471=IFCDIRECTION((0.,1.,0.));
#472=IFCAXIS2PLACEMENT3D(#469,#470,#471);
#473=IFCLOCALPLACEMENT($,#472);
#474=IFCOWNERHISTORY(#3,#7,.READWRITE.,.MODIFIED.,1791360313,#3,#7,1791360313);
#475=IFCMEMBER('2A8UqvNhb11uxaoKUt8SfX',#474,'Bj\X2\00E4\X0\lke 220x45 c600 #5',$,$,#503,#491,$);
#476=IFCOWNERHISTORY(#3,#7,.READWRITE.,.ADDED.,1791360313,#3,#7,1791360313);
#477=IFCPROPERTYSET('1jbHurIEnFmRZSOr2hVsTi',#476,'Stroo_Carport',$,(#480,#481,#482));
#478=IFCOWNERHISTORY(#3,#7,.READWRITE.,.ADDED.,1791360313,#3,#7,1791360313);
#479=IFCRELDEFINESBYPROPERTIES('1NTAd6OBP7JPy5aWcUz9do',#478,$,$,(#475),#477);
#480=IFCPROPERTYSINGLEVALUE('Dimension',$,IFCLABEL('220x45 mm'),$);
#481=IFCPROPERTYSINGLEVALUE('H\X2\00E5\X0\llfasthetsklass',$,IFCLABEL('C30'),$);
#482=IFCPROPERTYSINGLEVALUE('Centrumavst\X2\00E5\X0\nd',$,IFCLABEL('600 mm'),$);
#483=IFCCARTESIANPOINT((0.,0.));
#484=IFCAXIS2PLACEMENT2D(#483,$);
#485=IFCRECTANGLEPROFILEDEF(.AREA.,$,#484,0.045,0.22);
#486=IFCCARTESIANPOINT((0.,0.,0.));
#487=IFCAXIS2PLACEMENT3D(#486,$,$);
#488=IFCDIRECTION((0.,0.,1.));
#489=IFCEXTRUDEDAREASOLID(#485,#487,#488,4.909960416801581);
#490=IFCSHAPEREPRESENTATION(#19,'Body','SweptSolid',(#489));
#491=IFCPRODUCTDEFINITIONSHAPE($,$,(#490));
#492=IFCPRESENTATIONSTYLEASSIGNMENT((#33));
#493=IFCSTYLEDITEM(#489,(#492),'Tr\X2\00E4\X0\');
#499=IFCCARTESIANPOINT((0.2,2.4225,2.044767083889615));
#500=IFCDIRECTION((0.9975640502598243,0.,0.06975647374412532));
#501=IFCDIRECTION((0.,1.,0.));
#502=IFCAXIS2PLACEMENT3D(#499,#500,#501);
#503=IFCLOCALPLACEMENT($,#502);
#504=IFCOWNERHISTORY(#3,#7,.READWRITE.,.MODIFIED.,1791360313,#3,#7,1791360313);
#505=IFCMEMBER('0eONBVP5jDku2CQUH9KePQ',#504,'Bj\X2\00E4\X0\lke 220x45 c600 #6',$,$,#533,#521,$);
#506=IFCOWNERHISTORY(#3,#7,.READWRITE.,.ADDED.,1791360313,#3,#7,1791360313);
#507=IFCPROPERTYSET('2BIFGpc4bE7Q2$w7p_XOSL',#506,'Stroo_Carport',$,(#510,#511,#512));
#508=IFCOWNERHISTORY(#3,#7,.READWRITE.,.ADDED.,1791360313,#3,#7,1791360313);
#509=IFCRELDEFINESBYPROPERTIES('1ilUSOHljBpuPXrmX$4lfg',#508,$,$,(#505),#507);
#510=IFCPROPERTYSINGLEVALUE('Dimension',$,IFCLABEL('220x45 mm'),$);
#511=IFCPROPERTYSINGLEVALUE('H\X2\00E5\X0\llfasthetsklass',$,IFCLABEL('C30'),$);
#512=IFCPROPERTYSINGLEVALUE('Centrumavst\X2\00E5\X0\nd',$,IFCLABEL('600 mm'),$);
#513=IFCCARTESIANPOINT((0.,0.));
#514=IFCAXIS2PLACEMENT2D(#513,$);
#515=IFCRECTANGLEPROFILEDEF(.AREA.,$,#514,0.045,0.22);
#516=IFCCARTESIANPOINT((0.,0.,0.));
#517=IFCAXIS2PLACEMENT3D(#516,$,$);
#518=IFCDIRECTION((0.,0.,1.));
#519=IFCEXTRUDEDAREASOLID(#515,#517,#518,4.909960416801581);
#520=IFCSHAPEREPRESENTATION(#19,'Body','SweptSolid',(#519));
#521=IFCPRODUCTDEFINITIONSHAPE($,$,(#520));
#522=IFCPRESENTATIONSTYLEASSIGNMENT((#33));
#523=IFCSTYLEDITEM(#519,(#522),'Tr\X2\00E4\X0\');
#529=IFCCARTESIANPOINT((0.2,3.0225,2.044767083889615));
#530=IFCDIRECTION((0.9975640502598243,0.,0.06975647374412532));
#531=IFCDIRECTION((0.,1.,0.));
#532=IFCAXIS2PLACEMENT3D(#529,#530,#531);
#533=IFCLOCALPLACEMENT($,#532);
#534=IFCOWNERHISTORY(#3,#7,.READWRITE.,.MODIFIED.,1791360313,#3,#7,1791360313);
#535=IFCMEMBER('0STxrvGVD9iOinFO9DwVB_',#534,'Bj\X2\00E4\X0\lke 220x45 c600 #7',$,$,#563,#551,$);
#536=IFCOWNERHISTORY(#3,#7,.READWRITE.,.ADDED.,1791360313,#3,#7,1791360313);
#537=IFCPROPERTYSET('0Zgux8hqbBxAZZKL2G6QyC',#536,'Stroo_Carport',$,(#540,#541,#542));
#538=IFCOWNERHISTORY(#3,#7,.READWRITE.,.ADDED.,1791360313,#3,#7,1791360313);
#539=IFCRELDEFINESBYPROPERTIES('0igyl9mQTCbA$IbXo0hKOu',#538,$,$,(#535),#537);
#540=IFCPROPERTYSINGLEVALUE('Dimension',$,IFCLABEL('220x45 mm'),$);
#541=IFCPROPERTYSINGLEVALUE('H\X2\00E5\X0\llfasthetsklass',$,IFCLABEL('C30'),$);
#542=IFCPROPERTYSINGLEVALUE('Centrumavst\X2\00E5\X0\nd',$,IFCLABEL('600 mm'),$);
#543=IFCCARTESIANPOINT((0.,0.));
#544=IFCAXIS2PLACEMENT2D(#543,$);
#545=IFCRECTANGLEPROFILEDEF(.AREA.,$,#544,0.045,0.22);
#546=IFCCARTESIANPOINT((0.,0.,0.));
#547=IFCAXIS2PLACEMENT3D(#546,$,$);
#548=IFCDIRECTION((0.,0.,1.));
#549=IFCEXTRUDEDAREASOLID(#545,#547,#548,4.909960416801581);
#550=IFCSHAPEREPRESENTATION(#19,'Body','SweptSolid',(#549));
#551=IFCPRODUCTDEFINITIONSHAPE($,$,(#550));
#552=IFCPRESENTATIONSTYLEASSIGNMENT((#33));
#553=IFCSTYLEDITEM(#549,(#552),'Tr\X2\00E4\X0\');
#559=IFCCARTESIANPOINT((0.2,3.6224999999999996,2.044767083889615));
#560=IFCDIRECTION((0.9975640502598243,0.,0.06975647374412532));
#561=IFCDIRECTION((0.,1.,0.));
#562=IFCAXIS2PLACEMENT3D(#559,#560,#561);
#563=IFCLOCALPLACEMENT($,#562);
#564=IFCOWNERHISTORY(#3,#7,.READWRITE.,.ADDED.,1791360313,#3,#7,1791360313);
#565=IFCROOF('30qv7A3DPEoAs_zJ6D7pJu',#564,'Sedumtak',$,$,$,$,$,.FLAT_ROOF.);
#566=IFCOWNERHISTORY(#3,#7,.READWRITE.,.MODIFIED.,1791360313,#3,#7,1791360313);
#567=IFCSLAB('3utpqMaDLDHfGiPRvEZEgF',#566,'Sedumtak, uppbyggnad',$,$,#612,#593,$,$);
#568=IFCOWNERHISTORY(#3,#7,.READWRITE.,.ADDED.,1791360313,#3,#7,1791360313);
#569=IFCPROPERTYSET('1YWaX9ZcDBeQ$Y7ATabAmm',#568,'Stroo_Carport',$,(#572,#573,#574));
#570=IFCOWNERHISTORY(#3,#7,.READWRITE.,.ADDED.,1791360313,#3,#7,1791360313);
#571=IFCRELDEFINESBYPROPERTIES('2R1SNsFyL6qevpoK2bvWIx',#570,$,$,(#567),#569);
#572=IFCPROPERTYSINGLEVALUE('Utf\X2\00F6\X0\rande',$,IFCLABEL('Sedumtak 4,5x3,25 m enl. leverant\X2\00F6\X0\rens anvisning'),$);
#573=IFCPROPERTYSINGLEVALUE('Fall',$,IFCLABEL('ca 4\X2\00B0\X0\ (antaget) mot stupr\X2\00F6\X0\r'),$);
#574=IFCPROPERTYSINGLEVALUE('Bj\X2\00E4\X0\lklag',$,IFCLABEL('f\X2\00E4\X0\st mot b\X2\00E4\X0\rlina med balksko'),$);
#575=IFCMATERIALLAYERSET((#577,#579,#581),'Sedumtak');
#576=IFCMATERIAL('R\X2\00E5\X0\spont/underlagsskiva');
#577=IFCMATERIALLAYER(#576,0.02,$);
#578=IFCMATERIAL('T\X2\00E4\X0\tskikt och dr\X2\00E4\X0\nerande skikt');
#579=IFCMATERIALLAYER(#578,0.04,$);
#580=IFCMATERIAL('V\X2\00E4\X0\xtsubstrat med sedum');
#581=IFCMATERIALLAYER(#580,0.15892818211432266,$);
#582=IFCMATERIALLAYERSETUSAGE(#575,.AXIS3.,.POSITIVE.,0.);
#583=IFCOWNERHISTORY(#3,#7,.READWRITE.,.ADDED.,1791360313,#3,#7,1791360313);
#584=IFCRELASSOCIATESMATERIAL('3n5EJUMIDCjfqeZNdzqf3k',#583,$,$,(#567),#582);
#585=IFCCARTESIANPOINT((2.4549802084007903,1.833));
#586=IFCAXIS2PLACEMENT2D(#585,$);
#587=IFCRECTANGLEPROFILEDEF(.AREA.,$,#586,4.909960416801581,3.666);
#588=IFCCARTESIANPOINT((0.,0.,0.));
#589=IFCAXIS2PLACEMENT3D(#588,$,$);
#590=IFCDIRECTION((0.,0.,1.));
#591=IFCEXTRUDEDAREASOLID(#587,#589,#590,0.21892818211432266);
#592=IFCSHAPEREPRESENTATION(#19,'Body','SweptSolid',(#591));
#593=IFCPRODUCTDEFINITIONSHAPE($,$,(#592));
#594=IFCPRESENTATIONSTYLEASSIGNMENT((#45));
#595=IFCSTYLEDITEM(#591,(#594),'Sedumtak');
#606=IFCOWNERHISTORY(#3,#7,.READWRITE.,.ADDED.,1791360313,#3,#7,1791360313);
#607=IFCRELAGGREGATES('0SUTE$ZS93nu39uKqiocEn',#606,$,$,#565,(#567));
#608=IFCCARTESIANPOINT((0.2,0.,2.155035692678544));
#609=IFCDIRECTION((-0.06975647374412532,0.,0.9975640502598243));
#610=IFCDIRECTION((0.9975640502598243,0.,0.06975647374412532));
#611=IFCAXIS2PLACEMENT3D(#608,#609,#610);
#612=IFCLOCALPLACEMENT($,#611);
#613=IFCOWNERHISTORY(#3,#7,.READWRITE.,.MODIFIED.,1791360313,#3,#7,1791360313);
#614=IFCCOVERING('1HVjSnE9v16AJvQtE4ueJj',#613,'Fascia s\X2\00F6\X0\der',$,$,#647,#635,$,$);
#615=IFCMATERIAL('S\X2\00E5\X0\gad ek, oljad');
#616=IFCOWNERHISTORY(#3,#7,.READWRITE.,.MODIFIED.,1791360313,#3,#7,1791360313);
#617=IFCRELASSOCIATESMATERIAL('2PCHgMGFrF3BUumfVW$I9v',#616,$,$,(#681,#710,#649,#614),#615);
#618=IFCOWNERHISTORY(#3,#7,.READWRITE.,.ADDED.,1791360313,#3,#7,1791360313);
#619=IFCPROPERTYSET('16XZ5IpvL0m8_5aEb8xz8P',#618,'Stroo_Carport',$,(#622,#623));
#620=IFCOWNERHISTORY(#3,#7,.READWRITE.,.ADDED.,1791360313,#3,#7,1791360313);
#621=IFCRELDEFINESBYPROPERTIES('1ns4xKPDf7qBMgDO0GGvSq',#620,$,$,(#614),#619);
#622=IFCPROPERTYSINGLEVALUE('Bekl\X2\00E4\X0\dnad',$,IFCLABEL('S\X2\00E5\X0\gad ek. Oljas in.'),$);
#623=IFCPROPERTYSINGLEVALUE('H\X2\00F6\X0\jd',$,IFCLABEL('440 mm'),$);
#624=IFCCARTESIANPOINT((0.,0.));
#625=IFCCARTESIANPOINT((4.898,0.34250152489931396));
#626=IFCCARTESIANPOINT((4.898,0.7825015248993139));
#627=IFCCARTESIANPOINT((0.,0.44));
#628=IFCPOLYLINE((#624,#625,#626,#627,#624));
#629=IFCARBITRARYCLOSEDPROFILEDEF(.AREA.,$,#628);
#630=IFCCARTESIANPOINT((0.,0.,0.));
#631=IFCAXIS2PLACEMENT3D(#630,$,$);
#632=IFCDIRECTION((0.,0.,1.));
#633=IFCEXTRUDEDAREASOLID(#629,#631,#632,0.025);
#634=IFCSHAPEREPRESENTATION(#19,'Body','SweptSolid',(#633));
#635=IFCPRODUCTDEFINITIONSHAPE($,$,(#634));
#636=IFCPRESENTATIONSTYLEASSIGNMENT((#39));
#637=IFCSTYLEDITEM(#633,(#636),'Ek, oljad');
#643=IFCCARTESIANPOINT((0.2,0.025,1.9344984751006862));
#644=IFCDIRECTION((0.,-1.,0.));
#645=IFCDIRECTION((1.,0.,0.));
#646=IFCAXIS2PLACEMENT3D(#643,#644,#645);
#647=IFCLOCALPLACEMENT($,#646);
#648=IFCOWNERHISTORY(#3,#7,.READWRITE.,.MODIFIED.,1791360313,#3,#7,1791360313);
#649=IFCCOVERING('1hOwCx5Fn6dADp_K8Q07nS',#648,'Fascia norr',$,$,#679,#667,$,$);
#650=IFCOWNERHISTORY(#3,#7,.READWRITE.,.ADDED.,1791360313,#3,#7,1791360313);
#651=IFCPROPERTYSET('36MTGAONPDRgr_iDfzS39h',#650,'Stroo_Carport',$,(#654,#655));
#652=IFCOWNERHISTORY(#3,#7,.READWRITE.,.ADDED.,1791360313,#3,#7,1791360313);
#653=IFCRELDEFINESBYPROPERTIES('3tvA37YI5EZQcaZfufc$_n',#652,$,$,(#649),#651);
#654=IFCPROPERTYSINGLEVALUE('Bekl\X2\00E4\X0\dnad',$,IFCLABEL('S\X2\00E5\X0\gad ek. Oljas in.'),$);
#655=IFCPROPERTYSINGLEVALUE('H\X2\00F6\X0\jd',$,IFCLABEL('440 mm'),$);
#656=IFCCARTESIANPOINT((0.,0.));
#657=IFCCARTESIANPOINT((4.898,0.34250152489931396));
#658=IFCCARTESIANPOINT((4.898,0.7825015248993139));
#659=IFCCARTESIANPOINT((0.,0.44));
#660=IFCPOLYLINE((#656,#657,#658,#659,#656));
#661=IFCARBITRARYCLOSEDPROFILEDEF(.AREA.,$,#660);
#662=IFCCARTESIANPOINT((0.,0.,0.));
#663=IFCAXIS2PLACEMENT3D(#662,$,$);
#664=IFCDIRECTION((0.,0.,1.));
#665=IFCEXTRUDEDAREASOLID(#661,#663,#664,0.025);
#666=IFCSHAPEREPRESENTATION(#19,'Body','SweptSolid',(#665));
#667=IFCPRODUCTDEFINITIONSHAPE($,$,(#666));
#668=IFCPRESENTATIONSTYLEASSIGNMENT((#39));
#669=IFCSTYLEDITEM(#665,(#668),'Ek, oljad');
#675=IFCCARTESIANPOINT((0.2,3.666,1.9344984751006862));
#676=IFCDIRECTION((0.,-1.,0.));
#677=IFCDIRECTION((1.,0.,0.));
#678=IFCAXIS2PLACEMENT3D(#675,#676,#677);
#679=IFCLOCALPLACEMENT($,#678);
#680=IFCOWNERHISTORY(#3,#7,.READWRITE.,.MODIFIED.,1791360313,#3,#7,1791360313);
#681=IFCCOVERING('2$T3Lerrn8ohsZfru0p$rP',#680,'Fascia v\X2\00E4\X0\nster gavel',$,$,#708,#696,$,$);
#682=IFCOWNERHISTORY(#3,#7,.READWRITE.,.ADDED.,1791360313,#3,#7,1791360313);
#683=IFCPROPERTYSET('3YyIydzEj0h8GcE0cVD4T1',#682,'Stroo_Carport',$,(#686,#687));
#684=IFCOWNERHISTORY(#3,#7,.READWRITE.,.ADDED.,1791360313,#3,#7,1791360313);
#685=IFCRELDEFINESBYPROPERTIES('2RBxh$lw1Bu9fQZ9h7z6MY',#684,$,$,(#681),#683);
#686=IFCPROPERTYSINGLEVALUE('Bekl\X2\00E4\X0\dnad',$,IFCLABEL('S\X2\00E5\X0\gad ek. Oljas in.'),$);
#687=IFCPROPERTYSINGLEVALUE('H\X2\00F6\X0\jd',$,IFCLABEL('440 mm'),$);
#688=IFCCARTESIANPOINT((0.0125,1.833));
#689=IFCAXIS2PLACEMENT2D(#688,$);
#690=IFCRECTANGLEPROFILEDEF(.AREA.,$,#689,0.025,3.666);
#691=IFCCARTESIANPOINT((0.,0.,0.));
#692=IFCAXIS2PLACEMENT3D(#691,$,$);
#693=IFCDIRECTION((0.,0.,1.));
#694=IFCEXTRUDEDAREASOLID(#690,#692,#693,0.44);
#695=IFCSHAPEREPRESENTATION(#19,'Body','SweptSolid',(#694));
#696=IFCPRODUCTDEFINITIONSHAPE($,$,(#695));
#697=IFCPRESENTATIONSTYLEASSIGNMENT((#39));
#698=IFCSTYLEDITEM(#694,(#697),'Ek, oljad');
#704=IFCCARTESIANPOINT((0.2,0.,1.93537256024998));
#705=IFCDIRECTION((0.,0.,1.));
#706=IFCDIRECTION((1.,0.,0.));
#707=IFCAXIS2PLACEMENT3D(#704,#705,#706);
#708=IFCLOCALPLACEMENT($,#707);
#709=IFCOWNERHISTORY(#3,#7,.READWRITE.,.MODIFIED.,1791360313,#3,#7,1791360313);
#710=IFCCOVERING('24qI37_pPASubfRRKRenhn',#709,'Fascia h\X2\00F6\X0\ger gavel',$,$,#737,#725,$,$);
#711=IFCOWNERHISTORY(#3,#7,.READWRITE.,.ADDED.,1791360313,#3,#7,1791360313);
#712=IFCPROPERTYSET('381FlBXoL83xO6tJmVL1_k',#711,'Stroo_Carport',$,(#715,#716));
#713=IFCOWNERHISTORY(#3,#7,.READWRITE.,.ADDED.,1791360313,#3,#7,1791360313);
#714=IFCRELDEFINESBYPROPERTIES('0pb3U5hB5E4hL474_f7njB',#713,$,$,(#710),#712);
#715=IFCPROPERTYSINGLEVALUE('Bekl\X2\00E4\X0\dnad',$,IFCLABEL('S\X2\00E5\X0\gad ek. Oljas in.'),$);
#716=IFCPROPERTYSINGLEVALUE('H\X2\00F6\X0\jd',$,IFCLABEL('440 mm'),$);
#717=IFCCARTESIANPOINT((0.0125,1.833));
#718=IFCAXIS2PLACEMENT2D(#717,$);
#719=IFCRECTANGLEPROFILEDEF(.AREA.,$,#718,0.025,3.666);
#720=IFCCARTESIANPOINT((0.,0.,0.));
#721=IFCAXIS2PLACEMENT3D(#720,$,$);
#722=IFCDIRECTION((0.,0.,1.));
#723=IFCEXTRUDEDAREASOLID(#719,#721,#722,0.44);
#724=IFCSHAPEREPRESENTATION(#19,'Body','SweptSolid',(#723));
#725=IFCPRODUCTDEFINITIONSHAPE($,$,(#724));
#726=IFCPRESENTATIONSTYLEASSIGNMENT((#39));
#727=IFCSTYLEDITEM(#723,(#726),'Ek, oljad');
#733=IFCCARTESIANPOINT((5.0729999999999995,0.,2.2761259148507063));
#734=IFCDIRECTION((0.,0.,1.));
#735=IFCDIRECTION((1.,0.,0.));
#736=IFCAXIS2PLACEMENT3D(#733,#734,#735);
#737=IFCLOCALPLACEMENT($,#736);
#738=IFCOWNERHISTORY(#3,#7,.READWRITE.,.MODIFIED.,1791360313,#3,#7,1791360313);
#739=IFCFLOWSEGMENT('0w1DYqLUr7qA2JnCwcW8M$',#738,'Integrerat stupr\X2\00F6\X0\r',$,$,#768,#756,$);
#740=IFCMATERIAL('Pl\X2\00E5\X0\t');
#741=IFCOWNERHISTORY(#3,#7,.READWRITE.,.ADDED.,1791360313,#3,#7,1791360313);
#742=IFCRELASSOCIATESMATERIAL('2WIgcvliv7dfIoBV$AK18L',#741,$,$,(#739),#740);
#743=IFCOWNERHISTORY(#3,#7,.READWRITE.,.ADDED.,1791360313,#3,#7,1791360313);
#744=IFCPROPERTYSET('3tINYhW4z3RQJupBzAL5mm',#743,'Stroo_Carport',$,(#747));
#745=IFCOWNERHISTORY(#3,#7,.READWRITE.,.ADDED.,1791360313,#3,#7,1791360313);
#746=IFCRELDEFINESBYPROPERTIES('3Rkhv1vfnAhgXvrfpPA6Pu',#745,$,$,(#739),#744);
#747=IFCPROPERTYSINGLEVALUE('Placering',$,IFCLABEL('Dolt bakom pelare (sett fr\X2\00E5\X0\n v\X2\00E4\X0\gen), dr\X2\00E4\X0\nering mot stenkista'),$);
#748=IFCCARTESIANPOINT((0.,0.));
#749=IFCAXIS2PLACEMENT2D(#748,$);
#750=IFCCIRCLEPROFILEDEF(.AREA.,$,#749,0.03);
#751=IFCCARTESIANPOINT((0.,0.,0.));
#752=IFCAXIS2PLACEMENT3D(#751,$,$);
#753=IFCDIRECTION((0.,0.,1.));
#754=IFCEXTRUDEDAREASOLID(#750,#752,#753,1.9543576896926431);
#755=IFCSHAPEREPRESENTATION(#19,'Body','SweptSolid',(#754));
#756=IFCPRODUCTDEFINITIONSHAPE($,$,(#755));
#757=IFCPRESENTATIONSTYLEASSIGNMENT((#51));
#758=IFCSTYLEDITEM(#754,(#757),'Pl\X2\00E5\X0\t');
#764=IFCCARTESIANPOINT((0.5139999999999999,0.16599999999999993,0.));
#765=IFCDIRECTION((0.,0.,1.));
#766=IFCDIRECTION((1.,0.,0.));
#767=IFCAXIS2PLACEMENT3D(#764,#765,#766);
#768=IFCLOCALPLACEMENT($,#767);
#769=IFCOWNERHISTORY(#3,#7,.READWRITE.,.MODIFIED.,1791360313,#3,#7,1791360313);
#770=IFCBUILDINGELEMENTPROXY('1S$hcZdVL2pPtE6nl7fuaV',#769,'Stenkista',$,$,#800,#788,$,$);
#771=IFCMATERIAL('Makadam');
#772=IFCOWNERHISTORY(#3,#7,.READWRITE.,.ADDED.,1791360313,#3,#7,1791360313);
#773=IFCRELASSOCIATESMATERIAL('3wv9PSnF558RjOHimvrQ2j',#772,$,$,(#770),#771);
#774=IFCOWNERHISTORY(#3,#7,.READWRITE.,.ADDED.,1791360313,#3,#7,1791360313);
#775=IFCPROPERTYSET('3Ex9luf4z2OeoVtC42Cq26',#774,'Stroo_Carport',$,(#778,#779));
#776=IFCOWNERHISTORY(#3,#7,.READWRITE.,.ADDED.,1791360313,#3,#7,1791360313);
#777=IFCRELDEFINESBYPROPERTIES('1fdhEZNbH47R8iwuhN8OzC',#776,$,$,(#770),#775);
#778=IFCPROPERTYSINGLEVALUE('Bredd',$,IFCLABEL('600 mm (A-40-1-100)'),$);
#779=IFCPROPERTYSINGLEVALUE('L\X2\00E4\X0\ngd/djup',$,IFCLABEL('antagna 800 x 600 mm - verifiera'),$);
#780=IFCCARTESIANPOINT((0.3,0.4));
#781=IFCAXIS2PLACEMENT2D(#780,$);
#782=IFCRECTANGLEPROFILEDEF(.AREA.,$,#781,0.6,0.8);
#783=IFCCARTESIANPOINT((0.,0.,0.));
#784=IFCAXIS2PLACEMENT3D(#783,$,$);
#785=IFCDIRECTION((0.,0.,1.));
#786=IFCEXTRUDEDAREASOLID(#782,#784,#785,0.6);
#787=IFCSHAPEREPRESENTATION(#19,'Body','SweptSolid',(#786));
#788=IFCPRODUCTDEFINITIONSHAPE($,$,(#787));
#789=IFCPRESENTATIONSTYLEASSIGNMENT((#48));
#790=IFCSTYLEDITEM(#786,(#789),'Makadam');
#796=IFCCARTESIANPOINT((0.,-0.8,-0.6));
#797=IFCDIRECTION((0.,0.,1.));
#798=IFCDIRECTION((1.,0.,0.));
#799=IFCAXIS2PLACEMENT3D(#796,#797,#798);
#800=IFCLOCALPLACEMENT($,#799);
#801=IFCOWNERHISTORY(#3,#7,.READWRITE.,.ADDED.,1791360313,#3,#7,1791360313);
#802=IFCPROPERTYSET('0jGXANKVf5Vhc4lmlER0hk',#801,'Stroo_Carport',$,(#805,#806,#807,#808,#809));
#803=IFCOWNERHISTORY(#3,#7,.READWRITE.,.ADDED.,1791360313,#3,#7,1791360313);
#804=IFCRELDEFINESBYPROPERTIES('0ZwTK6$AL6NgwNcgLHn5wp',#803,$,$,(#9),#802);
#805=IFCPROPERTYSINGLEVALUE('Fastighet',$,IFCLABEL('Andreas 12'),$);
#806=IFCPROPERTYSINGLEVALUE('Adress',$,IFCLABEL('Gryningsv\X2\00E4\X0\gen 14, 163 51 Sp\X2\00E5\X0\nga'),$);
#807=IFCPROPERTYSINGLEVALUE('Ritningar',$,IFCLABEL('A-01-1-001 rev A, A-40-1-100 rev B'),$);
#808=IFCPROPERTYSINGLEVALUE('Arkitekt',$,IFCLABEL('Str\X2\00F600F6\X0\ arkitektbyr\X2\00E5\X0\ ab'),$);
#809=IFCPROPERTYSINGLEVALUE('Takdjup',$,IFCLABEL('3666 mm enl. A-40-1-100 (A-01-1-001 visar 3222 mm)'),$);
ENDSEC;
END-ISO-10303-21;
