ISO-10303-21;
HEADER;
FILE_DESCRIPTION(('ViewDefinition[DesignTransferView]'),'2;1');
FILE_NAME('/dev/null','2026-10-07T08:05:12+00:00',(''),(''),'IfcOpenShell 0.9.0','IfcOpenShell 0.9.0','Nobody');
FILE_SCHEMA(('IFC4'));
ENDSEC;
DATA;
#1=IFCPROJECT('3434ELkIPAnO44ABu$sxWa',$,'Carport Gryningsv\X2\00E4\X0\gen 14',$,$,$,$,(#10),#5);
#2=IFCSIUNIT(*,.LENGTHUNIT.,$,.METRE.);
#3=IFCSIUNIT(*,.AREAUNIT.,$,.SQUARE_METRE.);
#4=IFCSIUNIT(*,.VOLUMEUNIT.,$,.CUBIC_METRE.);
#5=IFCUNITASSIGNMENT((#2,#3,#4));
#6=IFCCARTESIANPOINT((0.,0.,0.));
#7=IFCDIRECTION((0.,0.,1.));
#8=IFCDIRECTION((1.,0.,0.));
#9=IFCAXIS2PLACEMENT3D(#6,#7,#8);
#10=IFCGEOMETRICREPRESENTATIONCONTEXT($,'Model',3,1.E-05,#9,$);
#11=IFCGEOMETRICREPRESENTATIONSUBCONTEXT('Body','Model',*,*,*,*,#10,$,.MODEL_VIEW.,$);
#12=IFCSITE('38yRB2q31DXuebl8NxkRxd',$,'Andreas 12',$,$,$,$,$,$,$,$,$,$,#18);
#13=IFCBUILDING('1ATwrlQZP6MBGG$gYXIJyt',$,'Frist\X2\00E5\X0\ende carport',$,$,$,$,$,$,$,$,$);
#14=IFCBUILDINGSTOREY('214Dn70cf3nQHVOvOyo4CE',$,'Markniv\X2\00E5\X0\',$,$,$,$,$,$,0.);
#15=IFCRELAGGREGATES('0jyH2j8Yz1mfSQpbEPsFy3',$,$,$,#1,(#12));
#16=IFCRELAGGREGATES('0lnkq4cYH5G9vNp0IEu4Dn',$,$,$,#12,(#13));
#17=IFCRELAGGREGATES('1CZ9ULRPv3PAI9mElA6Z6w',$,$,$,#13,(#14));
#18=IFCPOSTALADDRESS($,$,$,$,('Gryningsv\X2\00E4\X0\gen 14'),$,'Sp\X2\00E5\X0\nga',$,'163 51','SE');
#19=IFCSURFACESTYLE('Tr\X2\00E4\X0\',.BOTH.,(#20));
#20=IFCSURFACESTYLESHADING(#21,0.);
#21=IFCCOLOURRGB('Tr\X2\00E4\X0\',0.82,0.68,0.46);
#22=IFCSURFACESTYLE('Limtr\X2\00E4\X0\',.BOTH.,(#23));
#23=IFCSURFACESTYLESHADING(#24,0.);
#24=IFCCOLOURRGB('Limtr\X2\00E4\X0\',0.76,0.6,0.38);
#25=IFCSURFACESTYLE('Ek, oljad',.BOTH.,(#26));
#26=IFCSURFACESTYLESHADING(#27,0.);
#27=IFCCOLOURRGB('Ek, oljad',0.55,0.4,0.24);
#28=IFCSURFACESTYLE('Betong',.BOTH.,(#29));
#29=IFCSURFACESTYLESHADING(#30,0.);
#30=IFCCOLOURRGB('Betong',0.65,0.65,0.65);
#31=IFCSURFACESTYLE('Sedumtak',.BOTH.,(#32));
#32=IFCSURFACESTYLESHADING(#33,0.);
#33=IFCCOLOURRGB('Sedumtak',0.38,0.55,0.28);
#34=IFCSURFACESTYLE('Makadam',.BOTH.,(#35));
#35=IFCSURFACESTYLESHADING(#36,0.);
#36=IFCCOLOURRGB('Makadam',0.55,0.53,0.5);
#37=IFCSURFACESTYLE('Pl\X2\00E5\X0\t',.BOTH.,(#38));
#38=IFCSURFACESTYLESHADING(#39,0.);
#39=IFCCOLOURRGB('Pl\X2\00E5\X0\t',0.55,0.58,0.6);
#40=IFCFOOTING('13vuz0rEf2i9KKlpX99kkZ',$,'Betongplint 1',$,$,#67,#55,$,.PAD_FOOTING.);
#41=IFCMATERIAL('Betong',$,$);
#42=IFCRELASSOCIATESMATERIAL('1aTP1wlTb7ru2IkuiyiHKi',$,$,$,(#192,#143,#94,#40),#41);
#43=IFCPROPERTYSET('1eaEOzgOX4tRAlTeArqDhG',$,'Stroo_Carport',$,(#45,#46));
#44=IFCRELDEFINESBYPROPERTIES('2oQj5T9ZX0cxWUYX5L17GO',$,$,$,(#40),#43);
#45=IFCPROPERTYSINGLEVALUE('Typ',$,IFCLABEL('Ledbruket Betongplint KP 500 eller likv\X2\00E4\X0\rdigt (m\X2\00E5\X0\tt antagna)'),$);
#46=IFCPROPERTYSINGLEVALUE('Stolpsko',$,IFCLABEL('Justerbar, isolerad'),$);
#47=IFCCARTESIANPOINT((0.,0.));
#48=IFCAXIS2PLACEMENT2D(#47,$);
#49=IFCRECTANGLEPROFILEDEF(.AREA.,$,#48,0.25,0.25);
#50=IFCCARTESIANPOINT((0.,0.,0.));
#51=IFCAXIS2PLACEMENT3D(#50,$,$);
#52=IFCDIRECTION((0.,0.,1.));
#53=IFCEXTRUDEDAREASOLID(#49,#51,#52,0.5);
#54=IFCSHAPEREPRESENTATION(#11,'Body','SweptSolid',(#53));
#55=IFCPRODUCTDEFINITIONSHAPE($,$,(#54));
#56=IFCSTYLEDITEM(#53,(#28),'Betong');
#62=IFCRELCONTAINEDINSPATIALSTRUCTURE('3wnCG3$ILFH9YSjswwirZe',$,$,$,(#94,#477,#373,#268,#425,#321,#217,#653,#602,#168,#549,#119,#293,#399,#68,#347,#451,#241,#40,#192,#627,#519,#577,#143),#14);
#63=IFCCARTESIANPOINT((0.589,0.16599999999999993,-0.5));
#64=IFCDIRECTION((0.,0.,1.));
#65=IFCDIRECTION((1.,0.,0.));
#66=IFCAXIS2PLACEMENT3D(#63,#64,#65);
#67=IFCLOCALPLACEMENT($,#66);
#68=IFCCOLUMN('0_rPSSEif1WxotAkbpnv0k',$,'Tr\X2\00E4\X0\pelare 90x90 1',$,$,#93,#82,$,.COLUMN.);
#69=IFCMATERIAL('Tr\X2\00E4\X0\, 90x90',$,$);
#70=IFCRELASSOCIATESMATERIAL('0_y0SCPZL0QgYKAO70lZBh',$,$,$,(#68,#217,#168,#119),#69);
#71=IFCPROPERTYSET('2rZSFKRuz71OzOMyuvz7_h',$,'Stroo_Carport',$,(#73));
#72=IFCRELDEFINESBYPROPERTIES('2zn0Ue1HPAqAyw3p8pcggG',$,$,$,(#68),#71);
#73=IFCPROPERTYSINGLEVALUE('Dimension',$,IFCLABEL('90x90 mm'),$);
#74=IFCCARTESIANPOINT((0.,0.));
#75=IFCAXIS2PLACEMENT2D(#74,$);
#76=IFCRECTANGLEPROFILEDEF(.AREA.,$,#75,0.09,0.09);
#77=IFCCARTESIANPOINT((0.,0.,0.));
#78=IFCAXIS2PLACEMENT3D(#77,$,$);
#79=IFCDIRECTION((0.,0.,1.));
#80=IFCEXTRUDEDAREASOLID(#76,#78,#79,1.5985532984092536);
#81=IFCSHAPEREPRESENTATION(#11,'Body','SweptSolid',(#80));
#82=IFCPRODUCTDEFINITIONSHAPE($,$,(#81));
#83=IFCSTYLEDITEM(#80,(#19),'Tr\X2\00E4\X0\');
#89=IFCCARTESIANPOINT((0.589,0.16599999999999993,0.));
#90=IFCDIRECTION((0.,0.,1.));
#91=IFCDIRECTION((1.,0.,0.));
#92=IFCAXIS2PLACEMENT3D(#89,#90,#91);
#93=IFCLOCALPLACEMENT($,#92);
#94=IFCFOOTING('2DuKgbmXPByfnHXbOagxDv',$,'Betongplint 2',$,$,#118,#107,$,.PAD_FOOTING.);
#95=IFCPROPERTYSET('0IYPNWEkDBdvP2vaEofvq0',$,'Stroo_Carport',$,(#97,#98));
#96=IFCRELDEFINESBYPROPERTIES('2pic79HB150Bot_gC8EcC2',$,$,$,(#94),#95);
#97=IFCPROPERTYSINGLEVALUE('Typ',$,IFCLABEL('Ledbruket Betongplint KP 500 eller likv\X2\00E4\X0\rdigt (m\X2\00E5\X0\tt antagna)'),$);
#98=IFCPROPERTYSINGLEVALUE('Stolpsko',$,IFCLABEL('Justerbar, isolerad'),$);
#99=IFCCARTESIANPOINT((0.,0.));
#100=IFCAXIS2PLACEMENT2D(#99,$);
#101=IFCRECTANGLEPROFILEDEF(.AREA.,$,#100,0.25,0.25);
#102=IFCCARTESIANPOINT((0.,0.,0.));
#103=IFCAXIS2PLACEMENT3D(#102,$,$);
#104=IFCDIRECTION((0.,0.,1.));
#105=IFCEXTRUDEDAREASOLID(#101,#103,#104,0.5);
#106=IFCSHAPEREPRESENTATION(#11,'Body','SweptSolid',(#105));
#107=IFCPRODUCTDEFINITIONSHAPE($,$,(#106));
#108=IFCSTYLEDITEM(#105,(#28),'Betong');
#114=IFCCARTESIANPOINT((0.589,3.5,-0.5));
#115=IFCDIRECTION((0.,0.,1.));
#116=IFCDIRECTION((1.,0.,0.));
#117=IFCAXIS2PLACEMENT3D(#114,#115,#116);
#118=IFCLOCALPLACEMENT($,#117);
#119=IFCCOLUMN('1DpFslB6z5MgqIn7h5T7yA',$,'Tr\X2\00E4\X0\pelare 90x90 2',$,$,#142,#131,$,.COLUMN.);
#120=IFCPROPERTYSET('2rXOPV9u9B5xW_JLjwv2z1',$,'Stroo_Carport',$,(#122));
#121=IFCRELDEFINESBYPROPERTIES('2_sddhrx9C2xlKdftvZ$1r',$,$,$,(#119),#120);
#122=IFCPROPERTYSINGLEVALUE('Dimension',$,IFCLABEL('90x90 mm'),$);
#123=IFCCARTESIANPOINT((0.,0.));
#124=IFCAXIS2PLACEMENT2D(#123,$);
#125=IFCRECTANGLEPROFILEDEF(.AREA.,$,#124,0.09,0.09);
#126=IFCCARTESIANPOINT((0.,0.,0.));
#127=IFCAXIS2PLACEMENT3D(#126,$,$);
#128=IFCDIRECTION((0.,0.,1.));
#129=IFCEXTRUDEDAREASOLID(#125,#127,#128,1.5985532984092536);
#130=IFCSHAPEREPRESENTATION(#11,'Body','SweptSolid',(#129));
#131=IFCPRODUCTDEFINITIONSHAPE($,$,(#130));
#132=IFCSTYLEDITEM(#129,(#19),'Tr\X2\00E4\X0\');
#138=IFCCARTESIANPOINT((0.589,3.5,0.));
#139=IFCDIRECTION((0.,0.,1.));
#140=IFCDIRECTION((1.,0.,0.));
#141=IFCAXIS2PLACEMENT3D(#138,#139,#140);
#142=IFCLOCALPLACEMENT($,#141);
#143=IFCFOOTING('1AtE_KLM13ZvmUlzAPzKFa',$,'Betongplint 3',$,$,#167,#156,$,.PAD_FOOTING.);
#144=IFCPROPERTYSET('0LUrnyooX5TuTDGKeXMYhE',$,'Stroo_Carport',$,(#146,#147));
#145=IFCRELDEFINESBYPROPERTIES('3_BKZzRhD3iBbajzqkG5R0',$,$,$,(#143),#144);
#146=IFCPROPERTYSINGLEVALUE('Typ',$,IFCLABEL('Ledbruket Betongplint KP 500 eller likv\X2\00E4\X0\rdigt (m\X2\00E5\X0\tt antagna)'),$);
#147=IFCPROPERTYSINGLEVALUE('Stolpsko',$,IFCLABEL('Justerbar, isolerad'),$);
#148=IFCCARTESIANPOINT((0.,0.));
#149=IFCAXIS2PLACEMENT2D(#148,$);
#150=IFCRECTANGLEPROFILEDEF(.AREA.,$,#149,0.25,0.25);
#151=IFCCARTESIANPOINT((0.,0.,0.));
#152=IFCAXIS2PLACEMENT3D(#151,$,$);
#153=IFCDIRECTION((0.,0.,1.));
#154=IFCEXTRUDEDAREASOLID(#150,#152,#153,0.5);
#155=IFCSHAPEREPRESENTATION(#11,'Body','SweptSolid',(#154));
#156=IFCPRODUCTDEFINITIONSHAPE($,$,(#155));
#157=IFCSTYLEDITEM(#154,(#28),'Betong');
#163=IFCCARTESIANPOINT((3.368,0.16599999999999993,-0.5));
#164=IFCDIRECTION((0.,0.,1.));
#165=IFCDIRECTION((1.,0.,0.));
#166=IFCAXIS2PLACEMENT3D(#163,#164,#165);
#167=IFCLOCALPLACEMENT($,#166);
#168=IFCCOLUMN('1dMMW1YqXF6gjs_qzneH2w',$,'Tr\X2\00E4\X0\pelare 90x90 3',$,$,#191,#180,$,.COLUMN.);
#169=IFCPROPERTYSET('39BAugLEH5dhe6g0FvHRPh',$,'Stroo_Carport',$,(#171));
#170=IFCRELDEFINESBYPROPERTIES('1KswmiCp1BuxEiDJNmg4zQ',$,$,$,(#168),#169);
#171=IFCPROPERTYSINGLEVALUE('Dimension',$,IFCLABEL('90x90 mm'),$);
#172=IFCCARTESIANPOINT((0.,0.));
#173=IFCAXIS2PLACEMENT2D(#172,$);
#174=IFCRECTANGLEPROFILEDEF(.AREA.,$,#173,0.09,0.09);
#175=IFCCARTESIANPOINT((0.,0.,0.));
#176=IFCAXIS2PLACEMENT3D(#175,$,$);
#177=IFCDIRECTION((0.,0.,1.));
#178=IFCEXTRUDEDAREASOLID(#174,#176,#177,1.7928799088002694);
#179=IFCSHAPEREPRESENTATION(#11,'Body','SweptSolid',(#178));
#180=IFCPRODUCTDEFINITIONSHAPE($,$,(#179));
#181=IFCSTYLEDITEM(#178,(#19),'Tr\X2\00E4\X0\');
#187=IFCCARTESIANPOINT((3.368,0.16599999999999993,0.));
#188=IFCDIRECTION((0.,0.,1.));
#189=IFCDIRECTION((1.,0.,0.));
#190=IFCAXIS2PLACEMENT3D(#187,#188,#189);
#191=IFCLOCALPLACEMENT($,#190);
#192=IFCFOOTING('0D_TjgVn1FvwLdq5rPq2C4',$,'Betongplint 4',$,$,#216,#205,$,.PAD_FOOTING.);
#193=IFCPROPERTYSET('35G1jXXVrB$OdJIfdVSh6Y',$,'Stroo_Carport',$,(#195,#196));
#194=IFCRELDEFINESBYPROPERTIES('1RS6WjSJDDreaQ9FvixFiW',$,$,$,(#192),#193);
#195=IFCPROPERTYSINGLEVALUE('Typ',$,IFCLABEL('Ledbruket Betongplint KP 500 eller likv\X2\00E4\X0\rdigt (m\X2\00E5\X0\tt antagna)'),$);
#196=IFCPROPERTYSINGLEVALUE('Stolpsko',$,IFCLABEL('Justerbar, isolerad'),$);
#197=IFCCARTESIANPOINT((0.,0.));
#198=IFCAXIS2PLACEMENT2D(#197,$);
#199=IFCRECTANGLEPROFILEDEF(.AREA.,$,#198,0.25,0.25);
#200=IFCCARTESIANPOINT((0.,0.,0.));
#201=IFCAXIS2PLACEMENT3D(#200,$,$);
#202=IFCDIRECTION((0.,0.,1.));
#203=IFCEXTRUDEDAREASOLID(#199,#201,#202,0.5);
#204=IFCSHAPEREPRESENTATION(#11,'Body','SweptSolid',(#203));
#205=IFCPRODUCTDEFINITIONSHAPE($,$,(#204));
#206=IFCSTYLEDITEM(#203,(#28),'Betong');
#212=IFCCARTESIANPOINT((3.368,3.5,-0.5));
#213=IFCDIRECTION((0.,0.,1.));
#214=IFCDIRECTION((1.,0.,0.));
#215=IFCAXIS2PLACEMENT3D(#212,#213,#214);
#216=IFCLOCALPLACEMENT($,#215);
#217=IFCCOLUMN('2WA3ta1Gj208vLESWaJZdd',$,'Tr\X2\00E4\X0\pelare 90x90 4',$,$,#240,#229,$,.COLUMN.);
#218=IFCPROPERTYSET('2wMObzCdv4MA7zNePbyrjw',$,'Stroo_Carport',$,(#220));
#219=IFCRELDEFINESBYPROPERTIES('1m9XSUqVP0z8VNgWEFZJjx',$,$,$,(#217),#218);
#220=IFCPROPERTYSINGLEVALUE('Dimension',$,IFCLABEL('90x90 mm'),$);
#221=IFCCARTESIANPOINT((0.,0.));
#222=IFCAXIS2PLACEMENT2D(#221,$);
#223=IFCRECTANGLEPROFILEDEF(.AREA.,$,#222,0.09,0.09);
#224=IFCCARTESIANPOINT((0.,0.,0.));
#225=IFCAXIS2PLACEMENT3D(#224,$,$);
#226=IFCDIRECTION((0.,0.,1.));
#227=IFCEXTRUDEDAREASOLID(#223,#225,#226,1.7928799088002694);
#228=IFCSHAPEREPRESENTATION(#11,'Body','SweptSolid',(#227));
#229=IFCPRODUCTDEFINITIONSHAPE($,$,(#228));
#230=IFCSTYLEDITEM(#227,(#19),'Tr\X2\00E4\X0\');
#236=IFCCARTESIANPOINT((3.368,3.5,0.));
#237=IFCDIRECTION((0.,0.,1.));
#238=IFCDIRECTION((1.,0.,0.));
#239=IFCAXIS2PLACEMENT3D(#236,#237,#238);
#240=IFCLOCALPLACEMENT($,#239);
#241=IFCBEAM('28rEbugtjABPcuXLXeyAfm',$,'B\X2\00E4\X0\rlina GL30c 360x90 1',$,$,#267,#256,$,.BEAM.);
#242=IFCMATERIAL('Limtr\X2\00E4\X0\ GL30c',$,$);
#243=IFCRELASSOCIATESMATERIAL('3j5$6JhYL6HxPXuqgrW6A1',$,$,$,(#268,#241),#242);
#244=IFCPROPERTYSET('0BUYEs$mr7ZfkXsb3Brn1p',$,'Stroo_Carport',$,(#246,#247));
#245=IFCRELDEFINESBYPROPERTIES('0bFa451ZDAzhnRTjGyTpWF',$,$,$,(#241),#244);
#246=IFCPROPERTYSINGLEVALUE('Dimension',$,IFCLABEL('360x90 mm'),$);
#247=IFCPROPERTYSINGLEVALUE('H\X2\00E5\X0\llfasthetsklass',$,IFCLABEL('GL30c'),$);
#248=IFCCARTESIANPOINT((0.,0.));
#249=IFCAXIS2PLACEMENT2D(#248,$);
#250=IFCRECTANGLEPROFILEDEF(.AREA.,$,#249,0.09,0.36);
#251=IFCCARTESIANPOINT((0.,0.,0.));
#252=IFCAXIS2PLACEMENT3D(#251,$,$);
#253=IFCDIRECTION((0.,0.,1.));
#254=IFCEXTRUDEDAREASOLID(#250,#252,#253,3.666);
#255=IFCSHAPEREPRESENTATION(#11,'Body','SweptSolid',(#254));
#256=IFCPRODUCTDEFINITIONSHAPE($,$,(#255));
#257=IFCSTYLEDITEM(#254,(#22),'Limtr\X2\00E4\X0\');
#263=IFCCARTESIANPOINT((0.589,0.,1.7785532984092538));
#264=IFCDIRECTION((0.,1.,0.));
#265=IFCDIRECTION((1.,0.,0.));
#266=IFCAXIS2PLACEMENT3D(#263,#264,#265);
#267=IFCLOCALPLACEMENT($,#266);
#268=IFCBEAM('0XmOyvPZ5EP8_uyIDswQ03',$,'B\X2\00E4\X0\rlina GL30c 360x90 2',$,$,#292,#281,$,.BEAM.);
#269=IFCPROPERTYSET('38vsj6UfP2keG1_O7Sy1yM',$,'Stroo_Carport',$,(#271,#272));
#270=IFCRELDEFINESBYPROPERTIES('3cnP0qFQzEOANokbth$qof',$,$,$,(#268),#269);
#271=IFCPROPERTYSINGLEVALUE('Dimension',$,IFCLABEL('360x90 mm'),$);
#272=IFCPROPERTYSINGLEVALUE('H\X2\00E5\X0\llfasthetsklass',$,IFCLABEL('GL30c'),$);
#273=IFCCARTESIANPOINT((0.,0.));
#274=IFCAXIS2PLACEMENT2D(#273,$);
#275=IFCRECTANGLEPROFILEDEF(.AREA.,$,#274,0.09,0.36);
#276=IFCCARTESIANPOINT((0.,0.,0.));
#277=IFCAXIS2PLACEMENT3D(#276,$,$);
#278=IFCDIRECTION((0.,0.,1.));
#279=IFCEXTRUDEDAREASOLID(#275,#277,#278,3.666);
#280=IFCSHAPEREPRESENTATION(#11,'Body','SweptSolid',(#279));
#281=IFCPRODUCTDEFINITIONSHAPE($,$,(#280));
#282=IFCSTYLEDITEM(#279,(#22),'Limtr\X2\00E4\X0\');
#288=IFCCARTESIANPOINT((3.368,0.,1.9728799088002693));
#289=IFCDIRECTION((0.,1.,0.));
#290=IFCDIRECTION((1.,0.,0.));
#291=IFCAXIS2PLACEMENT3D(#288,#289,#290);
#292=IFCLOCALPLACEMENT($,#291);
#293=IFCMEMBER('0UAyhQe7X4Vw$lqxeNYnK4',$,'Bj\X2\00E4\X0\lke 220x45 c600 #1',$,$,#320,#309,$,.MEMBER.);
#294=IFCMATERIAL('Konstruktionsvirke C30',$,$);
#295=IFCRELASSOCIATESMATERIAL('0Astzm1PD7ZOaoyylnHQbo',$,$,$,(#293,#399,#373,#321,#347,#425,#451),#294);
#296=IFCPROPERTYSET('0ekITTFNH89ukSTVxenJdS',$,'Stroo_Carport',$,(#298,#299,#300));
#297=IFCRELDEFINESBYPROPERTIES('18rsegAT51geBdSrbbVPWK',$,$,$,(#293),#296);
#298=IFCPROPERTYSINGLEVALUE('Dimension',$,IFCLABEL('220x45 mm'),$);
#299=IFCPROPERTYSINGLEVALUE('H\X2\00E5\X0\llfasthetsklass',$,IFCLABEL('C30'),$);
#300=IFCPROPERTYSINGLEVALUE('Centrumavst\X2\00E5\X0\nd',$,IFCLABEL('600 mm'),$);
#301=IFCCARTESIANPOINT((0.,0.));
#302=IFCAXIS2PLACEMENT2D(#301,$);
#303=IFCRECTANGLEPROFILEDEF(.AREA.,$,#302,0.045,0.22);
#304=IFCCARTESIANPOINT((0.,0.,0.));
#305=IFCAXIS2PLACEMENT3D(#304,$,$);
#306=IFCDIRECTION((0.,0.,1.));
#307=IFCEXTRUDEDAREASOLID(#303,#305,#306,4.909960416801581);
#308=IFCSHAPEREPRESENTATION(#11,'Body','SweptSolid',(#307));
#309=IFCPRODUCTDEFINITIONSHAPE($,$,(#308));
#310=IFCSTYLEDITEM(#307,(#19),'Tr\X2\00E4\X0\');
#316=IFCCARTESIANPOINT((0.2,0.0225,2.044767083889615));
#317=IFCDIRECTION((0.9975640502598243,0.,0.06975647374412532));
#318=IFCDIRECTION((0.,1.,0.));
#319=IFCAXIS2PLACEMENT3D(#316,#317,#318);
#320=IFCLOCALPLACEMENT($,#319);
#321=IFCMEMBER('1ivWM_LKn1PeMxIuMBTDj$',$,'Bj\X2\00E4\X0\lke 220x45 c600 #2',$,$,#346,#335,$,.MEMBER.);
#322=IFCPROPERTYSET('1Q8yelzPXBZfEkV$6FnO8T',$,'Stroo_Carport',$,(#324,#325,#326));
#323=IFCRELDEFINESBYPROPERTIES('2jQQxQkVXAOQWxy33VtjXW',$,$,$,(#321),#322);
#324=IFCPROPERTYSINGLEVALUE('Dimension',$,IFCLABEL('220x45 mm'),$);
#325=IFCPROPERTYSINGLEVALUE('H\X2\00E5\X0\llfasthetsklass',$,IFCLABEL('C30'),$);
#326=IFCPROPERTYSINGLEVALUE('Centrumavst\X2\00E5\X0\nd',$,IFCLABEL('600 mm'),$);
#327=IFCCARTESIANPOINT((0.,0.));
#328=IFCAXIS2PLACEMENT2D(#327,$);
#329=IFCRECTANGLEPROFILEDEF(.AREA.,$,#328,0.045,0.22);
#330=IFCCARTESIANPOINT((0.,0.,0.));
#331=IFCAXIS2PLACEMENT3D(#330,$,$);
#332=IFCDIRECTION((0.,0.,1.));
#333=IFCEXTRUDEDAREASOLID(#329,#331,#332,4.909960416801581);
#334=IFCSHAPEREPRESENTATION(#11,'Body','SweptSolid',(#333));
#335=IFCPRODUCTDEFINITIONSHAPE($,$,(#334));
#336=IFCSTYLEDITEM(#333,(#19),'Tr\X2\00E4\X0\');
#342=IFCCARTESIANPOINT((0.2,0.6224999999999999,2.044767083889615));
#343=IFCDIRECTION((0.9975640502598243,0.,0.06975647374412532));
#344=IFCDIRECTION((0.,1.,0.));
#345=IFCAXIS2PLACEMENT3D(#342,#343,#344);
#346=IFCLOCALPLACEMENT($,#345);
#347=IFCMEMBER('11Rlfwx$j6WQJjkG7u0lgE',$,'Bj\X2\00E4\X0\lke 220x45 c600 #3',$,$,#372,#361,$,.MEMBER.);
#348=IFCPROPERTYSET('0CPKxNEnL4H9bpOvhx7hnZ',$,'Stroo_Carport',$,(#350,#351,#352));
#349=IFCRELDEFINESBYPROPERTIES('3ocOTFDhvBNAyUOp18ErMu',$,$,$,(#347),#348);
#350=IFCPROPERTYSINGLEVALUE('Dimension',$,IFCLABEL('220x45 mm'),$);
#351=IFCPROPERTYSINGLEVALUE('H\X2\00E5\X0\llfasthetsklass',$,IFCLABEL('C30'),$);
#352=IFCPROPERTYSINGLEVALUE('Centrumavst\X2\00E5\X0\nd',$,IFCLABEL('600 mm'),$);
#353=IFCCARTESIANPOINT((0.,0.));
#354=IFCAXIS2PLACEMENT2D(#353,$);
#355=IFCRECTANGLEPROFILEDEF(.AREA.,$,#354,0.045,0.22);
#356=IFCCARTESIANPOINT((0.,0.,0.));
#357=IFCAXIS2PLACEMENT3D(#356,$,$);
#358=IFCDIRECTION((0.,0.,1.));
#359=IFCEXTRUDEDAREASOLID(#355,#357,#358,4.909960416801581);
#360=IFCSHAPEREPRESENTATION(#11,'Body','SweptSolid',(#359));
#361=IFCPRODUCTDEFINITIONSHAPE($,$,(#360));
#362=IFCSTYLEDITEM(#359,(#19),'Tr\X2\00E4\X0\');
#368=IFCCARTESIANPOINT((0.2,1.2225,2.044767083889615));
#369=IFCDIRECTION((0.9975640502598243,0.,0.06975647374412532));
#370=IFCDIRECTION((0.,1.,0.));
#371=IFCAXIS2PLACEMENT3D(#368,#369,#370);
#372=IFCLOCALPLACEMENT($,#371);
#373=IFCMEMBER('1xqNgwc$5CtgRRXDanGr1D',$,'Bj\X2\00E4\X0\lke 220x45 c600 #4',$,$,#398,#387,$,.MEMBER.);
#374=IFCPROPERTYSET('0_QONc8UPAKf0$2SZdRk5X',$,'Stroo_Carport',$,(#376,#377,#378));
#375=IFCRELDEFINESBYPROPERTIES('3Jm1X6LDzAAeuKr0QMm2mC',$,$,$,(#373),#374);
#376=IFCPROPERTYSINGLEVALUE('Dimension',$,IFCLABEL('220x45 mm'),$);
#377=IFCPROPERTYSINGLEVALUE('H\X2\00E5\X0\llfasthetsklass',$,IFCLABEL('C30'),$);
#378=IFCPROPERTYSINGLEVALUE('Centrumavst\X2\00E5\X0\nd',$,IFCLABEL('600 mm'),$);
#379=IFCCARTESIANPOINT((0.,0.));
#380=IFCAXIS2PLACEMENT2D(#379,$);
#381=IFCRECTANGLEPROFILEDEF(.AREA.,$,#380,0.045,0.22);
#382=IFCCARTESIANPOINT((0.,0.,0.));
#383=IFCAXIS2PLACEMENT3D(#382,$,$);
#384=IFCDIRECTION((0.,0.,1.));
#385=IFCEXTRUDEDAREASOLID(#381,#383,#384,4.909960416801581);
#386=IFCSHAPEREPRESENTATION(#11,'Body','SweptSolid',(#385));
#387=IFCPRODUCTDEFINITIONSHAPE($,$,(#386));
#388=IFCSTYLEDITEM(#385,(#19),'Tr\X2\00E4\X0\');
#394=IFCCARTESIANPOINT((0.2,1.8224999999999998,2.044767083889615));
#395=IFCDIRECTION((0.9975640502598243,0.,0.06975647374412532));
#396=IFCDIRECTION((0.,1.,0.));
#397=IFCAXIS2PLACEMENT3D(#394,#395,#396);
#398=IFCLOCALPLACEMENT($,#397);
#399=IFCMEMBER('3lEkrdfULEP9kvgPGQpyq1',$,'Bj\X2\00E4\X0\lke 220x45 c600 #5',$,$,#424,#413,$,.MEMBER.);
#400=IFCPROPERTYSET('3xWMv_vzb6OgYJZQ5o3ZCB',$,'Stroo_Carport',$,(#402,#403,#404));
#401=IFCRELDEFINESBYPROPERTIES('156i9iuor26AgzzDtBf7rK',$,$,$,(#399),#400);
#402=IFCPROPERTYSINGLEVALUE('Dimension',$,IFCLABEL('220x45 mm'),$);
#403=IFCPROPERTYSINGLEVALUE('H\X2\00E5\X0\llfasthetsklass',$,IFCLABEL('C30'),$);
#404=IFCPROPERTYSINGLEVALUE('Centrumavst\X2\00E5\X0\nd',$,IFCLABEL('600 mm'),$);
#405=IFCCARTESIANPOINT((0.,0.));
#406=IFCAXIS2PLACEMENT2D(#405,$);
#407=IFCRECTANGLEPROFILEDEF(.AREA.,$,#406,0.045,0.22);
#408=IFCCARTESIANPOINT((0.,0.,0.));
#409=IFCAXIS2PLACEMENT3D(#408,$,$);
#410=IFCDIRECTION((0.,0.,1.));
#411=IFCEXTRUDEDAREASOLID(#407,#409,#410,4.909960416801581);
#412=IFCSHAPEREPRESENTATION(#11,'Body','SweptSolid',(#411));
#413=IFCPRODUCTDEFINITIONSHAPE($,$,(#412));
#414=IFCSTYLEDITEM(#411,(#19),'Tr\X2\00E4\X0\');
#420=IFCCARTESIANPOINT((0.2,2.4225,2.044767083889615));
#421=IFCDIRECTION((0.9975640502598243,0.,0.06975647374412532));
#422=IFCDIRECTION((0.,1.,0.));
#423=IFCAXIS2PLACEMENT3D(#420,#421,#422);
#424=IFCLOCALPLACEMENT($,#423);
#425=IFCMEMBER('0M54PBp3D84gz0xcX0nDTI',$,'Bj\X2\00E4\X0\lke 220x45 c600 #6',$,$,#450,#439,$,.MEMBER.);
#426=IFCPROPERTYSET('2B9M4N0IfFGu9sNPd120tJ',$,'Stroo_Carport',$,(#428,#429,#430));
#427=IFCRELDEFINESBYPROPERTIES('2H2hqJsQrA2PStZFw9LXbP',$,$,$,(#425),#426);
#428=IFCPROPERTYSINGLEVALUE('Dimension',$,IFCLABEL('220x45 mm'),$);
#429=IFCPROPERTYSINGLEVALUE('H\X2\00E5\X0\llfasthetsklass',$,IFCLABEL('C30'),$);
#430=IFCPROPERTYSINGLEVALUE('Centrumavst\X2\00E5\X0\nd',$,IFCLABEL('600 mm'),$);
#431=IFCCARTESIANPOINT((0.,0.));
#432=IFCAXIS2PLACEMENT2D(#431,$);
#433=IFCRECTANGLEPROFILEDEF(.AREA.,$,#432,0.045,0.22);
#434=IFCCARTESIANPOINT((0.,0.,0.));
#435=IFCAXIS2PLACEMENT3D(#434,$,$);
#436=IFCDIRECTION((0.,0.,1.));
#437=IFCEXTRUDEDAREASOLID(#433,#435,#436,4.909960416801581);
#438=IFCSHAPEREPRESENTATION(#11,'Body','SweptSolid',(#437));
#439=IFCPRODUCTDEFINITIONSHAPE($,$,(#438));
#440=IFCSTYLEDITEM(#437,(#19),'Tr\X2\00E4\X0\');
#446=IFCCARTESIANPOINT((0.2,3.0225,2.044767083889615));
#447=IFCDIRECTION((0.9975640502598243,0.,0.06975647374412532));
#448=IFCDIRECTION((0.,1.,0.));
#449=IFCAXIS2PLACEMENT3D(#446,#447,#448);
#450=IFCLOCALPLACEMENT($,#449);
#451=IFCMEMBER('1kEcqA9G5DBxdkVuBH5SNz',$,'Bj\X2\00E4\X0\lke 220x45 c600 #7',$,$,#476,#465,$,.MEMBER.);
#452=IFCPROPERTYSET('3Qt_w4ByPFqBspAgSCkMOP',$,'Stroo_Carport',$,(#454,#455,#456));
#453=IFCRELDEFINESBYPROPERTIES('1Gm5FEad9C$vnUMtT7XDdH',$,$,$,(#451),#452);
#454=IFCPROPERTYSINGLEVALUE('Dimension',$,IFCLABEL('220x45 mm'),$);
#455=IFCPROPERTYSINGLEVALUE('H\X2\00E5\X0\llfasthetsklass',$,IFCLABEL('C30'),$);
#456=IFCPROPERTYSINGLEVALUE('Centrumavst\X2\00E5\X0\nd',$,IFCLABEL('600 mm'),$);
#457=IFCCARTESIANPOINT((0.,0.));
#458=IFCAXIS2PLACEMENT2D(#457,$);
#459=IFCRECTANGLEPROFILEDEF(.AREA.,$,#458,0.045,0.22);
#460=IFCCARTESIANPOINT((0.,0.,0.));
#461=IFCAXIS2PLACEMENT3D(#460,$,$);
#462=IFCDIRECTION((0.,0.,1.));
#463=IFCEXTRUDEDAREASOLID(#459,#461,#462,4.909960416801581);
#464=IFCSHAPEREPRESENTATION(#11,'Body','SweptSolid',(#463));
#465=IFCPRODUCTDEFINITIONSHAPE($,$,(#464));
#466=IFCSTYLEDITEM(#463,(#19),'Tr\X2\00E4\X0\');
#472=IFCCARTESIANPOINT((0.2,3.6224999999999996,2.044767083889615));
#473=IFCDIRECTION((0.9975640502598243,0.,0.06975647374412532));
#474=IFCDIRECTION((0.,1.,0.));
#475=IFCAXIS2PLACEMENT3D(#472,#473,#474);
#476=IFCLOCALPLACEMENT($,#475);
#477=IFCROOF('2EqeZOxI16k9I29xSmtfN_',$,'Sedumtak',$,$,$,$,$,.FLAT_ROOF.);
#478=IFCSLAB('0bcubCR153j9_obcaC84_w',$,'Sedumtak, uppbyggnad',$,$,#518,#501,$,.ROOF.);
#479=IFCPROPERTYSET('1ftuyOaGH0VOISMpVRxJYQ',$,'Stroo_Carport',$,(#481,#482,#483));
#480=IFCRELDEFINESBYPROPERTIES('0BmAEJNDn4q9hFP4CXYJ28',$,$,$,(#478),#479);
#481=IFCPROPERTYSINGLEVALUE('Utf\X2\00F6\X0\rande',$,IFCLABEL('Sedumtak 4,5x3,25 m enl. leverant\X2\00F6\X0\rens anvisning'),$);
#482=IFCPROPERTYSINGLEVALUE('Fall',$,IFCLABEL('ca 4\X2\00B0\X0\ (antaget) mot stupr\X2\00F6\X0\r'),$);
#483=IFCPROPERTYSINGLEVALUE('Bj\X2\00E4\X0\lklag',$,IFCLABEL('f\X2\00E4\X0\st mot b\X2\00E4\X0\rlina med balksko'),$);
#484=IFCMATERIALLAYERSET((#486,#488,#490),'Sedumtak',$);
#485=IFCMATERIAL('R\X2\00E5\X0\spont/underlagsskiva',$,$);
#486=IFCMATERIALLAYER(#485,0.02,$,$,$,$,$);
#487=IFCMATERIAL('T\X2\00E4\X0\tskikt och dr\X2\00E4\X0\nerande skikt',$,$);
#488=IFCMATERIALLAYER(#487,0.04,$,$,$,$,$);
#489=IFCMATERIAL('V\X2\00E4\X0\xtsubstrat med sedum',$,$);
#490=IFCMATERIALLAYER(#489,0.15892818211432266,$,$,$,$,$);
#491=IFCMATERIALLAYERSETUSAGE(#484,.AXIS3.,.POSITIVE.,0.,$);
#492=IFCRELASSOCIATESMATERIAL('1t$erAavj89QSD$3Kf8xqQ',$,$,$,(#478),#491);
#493=IFCCARTESIANPOINT((2.4549802084007903,1.833));
#494=IFCAXIS2PLACEMENT2D(#493,$);
#495=IFCRECTANGLEPROFILEDEF(.AREA.,$,#494,4.909960416801581,3.666);
#496=IFCCARTESIANPOINT((0.,0.,0.));
#497=IFCAXIS2PLACEMENT3D(#496,$,$);
#498=IFCDIRECTION((0.,0.,1.));
#499=IFCEXTRUDEDAREASOLID(#495,#497,#498,0.21892818211432266);
#500=IFCSHAPEREPRESENTATION(#11,'Body','SweptSolid',(#499));
#501=IFCPRODUCTDEFINITIONSHAPE($,$,(#500));
#502=IFCSTYLEDITEM(#499,(#31),'Sedumtak');
#513=IFCRELAGGREGATES('37MHDxZN1BURWR4NVS$9dF',$,$,$,#477,(#478));
#514=IFCCARTESIANPOINT((0.2,0.,2.155035692678544));
#515=IFCDIRECTION((-0.06975647374412532,0.,0.9975640502598243));
#516=IFCDIRECTION((0.9975640502598243,0.,0.06975647374412532));
#517=IFCAXIS2PLACEMENT3D(#514,#515,#516);
#518=IFCLOCALPLACEMENT($,#517);
#519=IFCCOVERING('0FvuaGDaX1yg0qkrYnS2fk',$,'Fascia s\X2\00F6\X0\der',$,$,#548,#537,$,.CLADDING.);
#520=IFCMATERIAL('S\X2\00E5\X0\gad ek, oljad',$,$);
#521=IFCRELASSOCIATESMATERIAL('0VnC6s0PXC2faRVA0$4ewi',$,$,$,(#549,#602,#519,#577),#520);
#522=IFCPROPERTYSET('32R9NwB8TBVReOH8HJ27p5',$,'Stroo_Carport',$,(#524,#525));
#523=IFCRELDEFINESBYPROPERTIES('06lP9DIgvB_g3jVOwbnabm',$,$,$,(#519),#522);
#524=IFCPROPERTYSINGLEVALUE('Bekl\X2\00E4\X0\dnad',$,IFCLABEL('S\X2\00E5\X0\gad ek. Oljas in.'),$);
#525=IFCPROPERTYSINGLEVALUE('H\X2\00F6\X0\jd',$,IFCLABEL('440 mm'),$);
#526=IFCCARTESIANPOINT((0.,0.));
#527=IFCCARTESIANPOINT((4.898,0.34250152489931396));
#528=IFCCARTESIANPOINT((4.898,0.7825015248993139));
#529=IFCCARTESIANPOINT((0.,0.44));
#530=IFCPOLYLINE((#526,#527,#528,#529,#526));
#531=IFCARBITRARYCLOSEDPROFILEDEF(.AREA.,$,#530);
#532=IFCCARTESIANPOINT((0.,0.,0.));
#533=IFCAXIS2PLACEMENT3D(#532,$,$);
#534=IFCDIRECTION((0.,0.,1.));
#535=IFCEXTRUDEDAREASOLID(#531,#533,#534,0.025);
#536=IFCSHAPEREPRESENTATION(#11,'Body','SweptSolid',(#535));
#537=IFCPRODUCTDEFINITIONSHAPE($,$,(#536));
#538=IFCSTYLEDITEM(#535,(#25),'Ek, oljad');
#544=IFCCARTESIANPOINT((0.2,0.025,1.9344984751006862));
#545=IFCDIRECTION((0.,-1.,0.));
#546=IFCDIRECTION((1.,0.,0.));
#547=IFCAXIS2PLACEMENT3D(#544,#545,#546);
#548=IFCLOCALPLACEMENT($,#547);
#549=IFCCOVERING('0O6fWNNIH2Z8LaB$n4B99g',$,'Fascia norr',$,$,#576,#565,$,.CLADDING.);
#550=IFCPROPERTYSET('1DBPU9VoHByBkLjnuouWSy',$,'Stroo_Carport',$,(#552,#553));
#551=IFCRELDEFINESBYPROPERTIES('0zx8ZGRsj048gs4cM1DI$k',$,$,$,(#549),#550);
#552=IFCPROPERTYSINGLEVALUE('Bekl\X2\00E4\X0\dnad',$,IFCLABEL('S\X2\00E5\X0\gad ek. Oljas in.'),$);
#553=IFCPROPERTYSINGLEVALUE('H\X2\00F6\X0\jd',$,IFCLABEL('440 mm'),$);
#554=IFCCARTESIANPOINT((0.,0.));
#555=IFCCARTESIANPOINT((4.898,0.34250152489931396));
#556=IFCCARTESIANPOINT((4.898,0.7825015248993139));
#557=IFCCARTESIANPOINT((0.,0.44));
#558=IFCPOLYLINE((#554,#555,#556,#557,#554));
#559=IFCARBITRARYCLOSEDPROFILEDEF(.AREA.,$,#558);
#560=IFCCARTESIANPOINT((0.,0.,0.));
#561=IFCAXIS2PLACEMENT3D(#560,$,$);
#562=IFCDIRECTION((0.,0.,1.));
#563=IFCEXTRUDEDAREASOLID(#559,#561,#562,0.025);
#564=IFCSHAPEREPRESENTATION(#11,'Body','SweptSolid',(#563));
#565=IFCPRODUCTDEFINITIONSHAPE($,$,(#564));
#566=IFCSTYLEDITEM(#563,(#25),'Ek, oljad');
#572=IFCCARTESIANPOINT((0.2,3.666,1.9344984751006862));
#573=IFCDIRECTION((0.,-1.,0.));
#574=IFCDIRECTION((1.,0.,0.));
#575=IFCAXIS2PLACEMENT3D(#572,#573,#574);
#576=IFCLOCALPLACEMENT($,#575);
#577=IFCCOVERING('2gyIGZWuP3ifZBi4JDIs$p',$,'Fascia v\X2\00E4\X0\nster gavel',$,$,#601,#590,$,.CLADDING.);
#578=IFCPROPERTYSET('0OkBEVpx55YR3Jhc7VOsQz',$,'Stroo_Carport',$,(#580,#581));
#579=IFCRELDEFINESBYPROPERTIES('1RpWNRyzn9gPwjyOlgHW44',$,$,$,(#577),#578);
#580=IFCPROPERTYSINGLEVALUE('Bekl\X2\00E4\X0\dnad',$,IFCLABEL('S\X2\00E5\X0\gad ek. Oljas in.'),$);
#581=IFCPROPERTYSINGLEVALUE('H\X2\00F6\X0\jd',$,IFCLABEL('440 mm'),$);
#582=IFCCARTESIANPOINT((0.0125,1.833));
#583=IFCAXIS2PLACEMENT2D(#582,$);
#584=IFCRECTANGLEPROFILEDEF(.AREA.,$,#583,0.025,3.666);
#585=IFCCARTESIANPOINT((0.,0.,0.));
#586=IFCAXIS2PLACEMENT3D(#585,$,$);
#587=IFCDIRECTION((0.,0.,1.));
#588=IFCEXTRUDEDAREASOLID(#584,#586,#587,0.44);
#589=IFCSHAPEREPRESENTATION(#11,'Body','SweptSolid',(#588));
#590=IFCPRODUCTDEFINITIONSHAPE($,$,(#589));
#591=IFCSTYLEDITEM(#588,(#25),'Ek, oljad');
#597=IFCCARTESIANPOINT((0.2,0.,1.93537256024998));
#598=IFCDIRECTION((0.,0.,1.));
#599=IFCDIRECTION((1.,0.,0.));
#600=IFCAXIS2PLACEMENT3D(#597,#598,#599);
#601=IFCLOCALPLACEMENT($,#600);
#602=IFCCOVERING('1mE0k0azP42BUvOSxDJIJa',$,'Fascia h\X2\00F6\X0\ger gavel',$,$,#626,#615,$,.CLADDING.);
#603=IFCPROPERTYSET('394N4yG5v7qvIjOc4yS$Hq',$,'Stroo_Carport',$,(#605,#606));
#604=IFCRELDEFINESBYPROPERTIES('2FasGUvGHA59X83J0eq4Gg',$,$,$,(#602),#603);
#605=IFCPROPERTYSINGLEVALUE('Bekl\X2\00E4\X0\dnad',$,IFCLABEL('S\X2\00E5\X0\gad ek. Oljas in.'),$);
#606=IFCPROPERTYSINGLEVALUE('H\X2\00F6\X0\jd',$,IFCLABEL('440 mm'),$);
#607=IFCCARTESIANPOINT((0.0125,1.833));
#608=IFCAXIS2PLACEMENT2D(#607,$);
#609=IFCRECTANGLEPROFILEDEF(.AREA.,$,#608,0.025,3.666);
#610=IFCCARTESIANPOINT((0.,0.,0.));
#611=IFCAXIS2PLACEMENT3D(#610,$,$);
#612=IFCDIRECTION((0.,0.,1.));
#613=IFCEXTRUDEDAREASOLID(#609,#611,#612,0.44);
#614=IFCSHAPEREPRESENTATION(#11,'Body','SweptSolid',(#613));
#615=IFCPRODUCTDEFINITIONSHAPE($,$,(#614));
#616=IFCSTYLEDITEM(#613,(#25),'Ek, oljad');
#622=IFCCARTESIANPOINT((5.0729999999999995,0.,2.2761259148507063));
#623=IFCDIRECTION((0.,0.,1.));
#624=IFCDIRECTION((1.,0.,0.));
#625=IFCAXIS2PLACEMENT3D(#622,#623,#624);
#626=IFCLOCALPLACEMENT($,#625);
#627=IFCPIPESEGMENT('2qoOKzH7rBUAF_3v$3_SPd',$,'Integrerat stupr\X2\00F6\X0\r',$,$,#652,#641,$,.RIGIDSEGMENT.);
#628=IFCMATERIAL('Pl\X2\00E5\X0\t',$,$);
#629=IFCRELASSOCIATESMATERIAL('3usCQTz5n6keJkXLCbWwBx',$,$,$,(#627),#628);
#630=IFCPROPERTYSET('2j6sUfRZvAyBKbwx1sOh0Z',$,'Stroo_Carport',$,(#632));
#631=IFCRELDEFINESBYPROPERTIES('16XLjoZ2b2_BS5vmsalLIf',$,$,$,(#627),#630);
#632=IFCPROPERTYSINGLEVALUE('Placering',$,IFCLABEL('Dolt bakom pelare (sett fr\X2\00E5\X0\n v\X2\00E4\X0\gen), dr\X2\00E4\X0\nering mot stenkista'),$);
#633=IFCCARTESIANPOINT((0.,0.));
#634=IFCAXIS2PLACEMENT2D(#633,$);
#635=IFCCIRCLEPROFILEDEF(.AREA.,$,#634,0.03);
#636=IFCCARTESIANPOINT((0.,0.,0.));
#637=IFCAXIS2PLACEMENT3D(#636,$,$);
#638=IFCDIRECTION((0.,0.,1.));
#639=IFCEXTRUDEDAREASOLID(#635,#637,#638,1.9543576896926431);
#640=IFCSHAPEREPRESENTATION(#11,'Body','SweptSolid',(#639));
#641=IFCPRODUCTDEFINITIONSHAPE($,$,(#640));
#642=IFCSTYLEDITEM(#639,(#37),'Pl\X2\00E5\X0\t');
#648=IFCCARTESIANPOINT((0.5139999999999999,0.16599999999999993,0.));
#649=IFCDIRECTION((0.,0.,1.));
#650=IFCDIRECTION((1.,0.,0.));
#651=IFCAXIS2PLACEMENT3D(#648,#649,#650);
#652=IFCLOCALPLACEMENT($,#651);
#653=IFCBUILDINGELEMENTPROXY('0fbol2ukf7vfLBEoDfrhgg',$,'Stenkista',$,$,#679,#668,$,$);
#654=IFCMATERIAL('Makadam',$,$);
#655=IFCRELASSOCIATESMATERIAL('1BFW$UHer3BgTfqy8FM4L4',$,$,$,(#653),#654);
#656=IFCPROPERTYSET('0e1$YHSS90o82Y9DFucCHN',$,'Stroo_Carport',$,(#658,#659));
#657=IFCRELDEFINESBYPROPERTIES('18MgUc0ZH9qvDTFDkHAmLp',$,$,$,(#653),#656);
#658=IFCPROPERTYSINGLEVALUE('Bredd',$,IFCLABEL('600 mm (A-40-1-100)'),$);
#659=IFCPROPERTYSINGLEVALUE('L\X2\00E4\X0\ngd/djup',$,IFCLABEL('antagna 800 x 600 mm - verifiera'),$);
#660=IFCCARTESIANPOINT((0.3,0.4));
#661=IFCAXIS2PLACEMENT2D(#660,$);
#662=IFCRECTANGLEPROFILEDEF(.AREA.,$,#661,0.6,0.8);
#663=IFCCARTESIANPOINT((0.,0.,0.));
#664=IFCAXIS2PLACEMENT3D(#663,$,$);
#665=IFCDIRECTION((0.,0.,1.));
#666=IFCEXTRUDEDAREASOLID(#662,#664,#665,0.6);
#667=IFCSHAPEREPRESENTATION(#11,'Body','SweptSolid',(#666));
#668=IFCPRODUCTDEFINITIONSHAPE($,$,(#667));
#669=IFCSTYLEDITEM(#666,(#34),'Makadam');
#675=IFCCARTESIANPOINT((0.,-0.8,-0.6));
#676=IFCDIRECTION((0.,0.,1.));
#677=IFCDIRECTION((1.,0.,0.));
#678=IFCAXIS2PLACEMENT3D(#675,#676,#677);
#679=IFCLOCALPLACEMENT($,#678);
#680=IFCPROPERTYSET('3rd8yMgyX3hPORpYyUKvve',$,'Stroo_Carport',$,(#682,#683,#684,#685,#686));
#681=IFCRELDEFINESBYPROPERTIES('2dZxrrf5L47QAGDOo6pxB1',$,$,$,(#1),#680);
#682=IFCPROPERTYSINGLEVALUE('Fastighet',$,IFCLABEL('Andreas 12'),$);
#683=IFCPROPERTYSINGLEVALUE('Adress',$,IFCLABEL('Gryningsv\X2\00E4\X0\gen 14, 163 51 Sp\X2\00E5\X0\nga'),$);
#684=IFCPROPERTYSINGLEVALUE('Ritningar',$,IFCLABEL('A-01-1-001 rev A, A-40-1-100 rev B'),$);
#685=IFCPROPERTYSINGLEVALUE('Arkitekt',$,IFCLABEL('Str\X2\00F600F6\X0\ arkitektbyr\X2\00E5\X0\ ab'),$);
#686=IFCPROPERTYSINGLEVALUE('Takdjup',$,IFCLABEL('3666 mm enl. A-40-1-100 (A-01-1-001 visar 3222 mm)'),$);
ENDSEC;
END-ISO-10303-21;
